<svg width="40" height="40" viewBox="0 0 40 40" fill="none" xmlns="http://www.w3.org/2000/svg">
<path d="M9.09116 28.9177C7.83255 28.9177 6.60221 28.5444 5.55572 27.8452C4.50923 27.146 3.69359 26.1521 3.21194 24.9893C2.7303 23.8265 2.60428 22.547 2.84982 21.3126C3.09536 20.0781 3.70143 18.9443 4.5914 18.0543C5.48137 17.1643 6.61526 16.5582 7.84968 16.3127C9.0841 16.0672 10.3636 16.1932 11.5264 16.6748C12.6892 17.1565 13.6831 17.9721 14.3823 19.0186C15.0815 20.0651 15.4548 21.2954 15.4548 22.554C15.4527 24.2412 14.7816 25.8586 13.5887 27.0515C12.3957 28.2445 10.7783 28.9156 9.09116 28.9177Z" fill="#C0DDFF"/>
<path d="M13.8913 26.6846C13.3022 27.384 12.5673 27.9463 11.7381 28.332C10.9089 28.7178 10.0054 28.9176 9.09088 28.9176C8.17635 28.9176 7.27287 28.7178 6.44366 28.332C5.61446 27.9463 4.87957 27.384 4.29042 26.6846C2.98132 27.4962 1.90049 28.6279 1.14985 29.9729C0.39921 31.3179 0.00348953 32.8319 0 34.3722C0 34.8544 0.191557 35.3169 0.532531 35.6578C0.873505 35.9988 1.33597 36.1904 1.81818 36.1904H16.3636C16.8458 36.1904 17.3083 35.9988 17.6492 35.6578C17.9902 35.3169 18.1818 34.8544 18.1818 34.3722C18.1783 32.8319 17.7825 31.3179 17.0319 29.9729C16.2813 28.6279 15.2004 27.4962 13.8913 26.6846ZM30.909 28.9177C29.6504 28.9177 28.42 28.5444 27.3736 27.8452C26.3271 27.146 25.5114 26.1521 25.0298 24.9893C24.5481 23.8265 24.4221 22.547 24.6676 21.3126C24.9132 20.0781 25.5193 18.9443 26.4092 18.0543C27.2992 17.1643 28.4331 16.5582 29.6675 16.3127C30.9019 16.0672 32.1814 16.1932 33.3442 16.6748C34.507 17.1565 35.5009 17.9721 36.2001 19.0186C36.8994 20.0651 37.2726 21.2954 37.2726 22.554C37.2706 24.2412 36.5995 25.8586 35.4065 27.0515C34.2135 28.2445 32.5961 28.9156 30.909 28.9177Z" fill="#99C8FF"/>
<path d="M35.7097 26.6838C35.1205 27.3833 34.3857 27.9456 33.5564 28.3313C32.7272 28.717 31.8238 28.9169 30.9092 28.9169C29.9947 28.9169 29.0912 28.717 28.262 28.3313C27.4328 27.9456 26.6979 27.3833 26.1088 26.6838C24.7997 27.4955 23.7188 28.6271 22.9682 29.9721C22.2176 31.3172 21.8218 32.8312 21.8184 34.3715C21.8184 34.8537 22.0099 35.3161 22.3509 35.6571C22.6919 35.9981 23.1543 36.1896 23.6365 36.1896H38.1819C38.6641 36.1896 39.1266 35.9981 39.4676 35.6571C39.8086 35.3161 40.0001 34.8537 40.0001 34.3715C39.9966 32.8312 39.6009 31.3172 38.8503 29.9721C38.0996 28.6271 37.0188 27.4955 35.7097 26.6838Z" fill="#6DB0FF"/>
<path d="M17.5569 13.0475H15.1423C13.8541 13.0475 12.6187 12.5358 11.7078 11.6249C10.7969 10.714 10.2852 9.47857 10.2852 8.19038C10.2852 6.90219 10.7969 5.66676 11.7078 4.75587C12.6187 3.84498 13.8541 3.33325 15.1423 3.33325H17.5569C17.8146 3.33325 18.0617 3.4356 18.2438 3.61778C18.426 3.79995 18.5284 4.04704 18.5284 4.30468C18.5284 4.56232 18.426 4.8094 18.2438 4.99158C18.0617 5.17376 17.8146 5.2761 17.5569 5.2761H15.1423C14.3694 5.2761 13.6281 5.58314 13.0816 6.12967C12.535 6.67621 12.228 7.41746 12.228 8.19038C12.228 8.96329 12.535 9.70455 13.0816 10.2511C13.6281 10.7976 14.3694 11.1047 15.1423 11.1047H17.5569C17.8146 11.1047 18.0617 11.207 18.2438 11.3892C18.426 11.5714 18.5284 11.8184 18.5284 12.0761C18.5284 12.3337 18.426 12.5808 18.2438 12.763C18.0617 12.9452 17.8146 13.0475 17.5569 13.0475ZM24.8565 13.0475H22.9137C22.656 13.0475 22.409 12.9452 22.2268 12.763C22.0446 12.5808 21.9423 12.3337 21.9423 12.0761C21.9423 11.8184 22.0446 11.5714 22.2268 11.3892C22.409 11.207 22.656 11.1047 22.9137 11.1047H24.8565C25.6295 11.1047 26.3707 10.7976 26.9172 10.2511C27.4638 9.70455 27.7708 8.96329 27.7708 8.19038C27.7708 7.41746 27.4638 6.67621 26.9172 6.12967C26.3707 5.58314 25.6295 5.2761 24.8565 5.2761H22.9137C22.656 5.2761 22.409 5.17376 22.2268 4.99158C22.0446 4.8094 21.9423 4.56232 21.9423 4.30468C21.9423 4.04704 22.0446 3.79995 22.2268 3.61778C22.409 3.4356 22.656 3.33325 22.9137 3.33325H24.8565C26.1447 3.33325 27.3802 3.84498 28.291 4.75587C29.2019 5.66676 29.7137 6.90219 29.7137 8.19038C29.7137 9.47857 29.2019 10.714 28.291 11.6249C27.3802 12.5358 26.1447 13.0475 24.8565 13.0475Z" fill="#0075FF" stroke="#0075FF" stroke-width="1.2"/>
<path d="M21.9045 9.33356H18.095C17.8424 9.33356 17.6001 9.21315 17.4215 8.99882C17.2429 8.7845 17.1426 8.49381 17.1426 8.1907C17.1426 7.8876 17.2429 7.59691 17.4215 7.38259C17.6001 7.16826 17.8424 7.04785 18.095 7.04785H21.9045C22.1571 7.04785 22.3993 7.16826 22.5779 7.38259C22.7565 7.59691 22.8568 7.8876 22.8568 8.1907C22.8568 8.49381 22.7565 8.7845 22.5779 8.99882C22.3993 9.21315 22.1571 9.33356 21.9045 9.33356Z" fill="#99C8FF" stroke="#99C8FF" stroke-width="1.2"/>
</svg>
