<svg width="40" height="40" viewBox="0 0 40 40" fill="none" xmlns="http://www.w3.org/2000/svg">
<path d="M11.6667 9.99967C10.7467 10.0002 10.0005 9.25486 10 8.33491C10 8.33427 10 8.33364 10 8.33301V4.99967C10 4.07921 10.7462 3.33301 11.6667 3.33301C12.5871 3.33301 13.3333 4.07921 13.3333 4.99967V8.33301C13.3338 9.25296 12.5885 9.99916 11.6686 9.99967C11.6679 9.99967 11.6673 9.99967 11.6667 9.99967ZM28.3333 9.99967C27.4134 10.0002 26.6672 9.25486 26.6667 8.33491C26.6667 8.33427 26.6667 8.33364 26.6667 8.33301V4.99967C26.6667 4.07921 27.4129 3.33301 28.3333 3.33301C29.2538 3.33301 30 4.07921 30 4.99967V8.33301C30.0005 9.25296 29.2552 9.99916 28.3352 9.99967C28.3346 9.99967 28.334 9.99967 28.3333 9.99967Z" fill="#6DB0FF"/>
<path d="M31.6663 6.66699H29.9997V8.33286C29.9997 9.25333 29.2535 9.99953 28.333 9.99953C27.4125 9.99953 26.6663 9.25333 26.6663 8.33286V6.66699H13.333V8.33286C13.333 9.25333 12.5868 9.99953 11.6663 9.99953C10.7459 9.99953 9.99967 9.25333 9.99967 8.33286V6.66699H8.33301C5.57159 6.66699 3.33301 8.90558 3.33301 11.667V15.0003H36.6663V11.667C36.6663 8.90558 34.4278 6.66699 31.6663 6.66699Z" fill="#0075FF"/>
<path d="M11.6667 23.3333C12.5871 23.3333 13.3333 22.5871 13.3333 21.6667C13.3333 20.7462 12.5871 20 11.6667 20C10.7462 20 10 20.7462 10 21.6667C10 22.5871 10.7462 23.3333 11.6667 23.3333Z" fill="#0075FF"/>
<path d="M11.6667 30.0001C12.5871 30.0001 13.3333 29.2539 13.3333 28.3334C13.3333 27.4129 12.5871 26.6667 11.6667 26.6667C10.7462 26.6667 10 27.4129 10 28.3334C10 29.2539 10.7462 30.0001 11.6667 30.0001Z" fill="#0075FF"/>
<path d="M19.9997 23.3333C20.9201 23.3333 21.6663 22.5871 21.6663 21.6667C21.6663 20.7462 20.9201 20 19.9997 20C19.0792 20 18.333 20.7462 18.333 21.6667C18.333 22.5871 19.0792 23.3333 19.9997 23.3333Z" fill="#0075FF"/>
<path d="M19.9997 30.0001C20.9201 30.0001 21.6663 29.2539 21.6663 28.3334C21.6663 27.4129 20.9201 26.6667 19.9997 26.6667C19.0792 26.6667 18.333 27.4129 18.333 28.3334C18.333 29.2539 19.0792 30.0001 19.9997 30.0001Z" fill="#0075FF"/>
<path d="M28.3337 23.3333C29.2541 23.3333 30.0003 22.5871 30.0003 21.6667C30.0003 20.7462 29.2541 20 28.3337 20C27.4132 20 26.667 20.7462 26.667 21.6667C26.667 22.5871 27.4132 23.3333 28.3337 23.3333Z" fill="#0075FF"/>
<path d="M28.3337 30.0001C29.2541 30.0001 30.0003 29.2539 30.0003 28.3334C30.0003 27.4129 29.2541 26.6667 28.3337 26.6667C27.4132 26.6667 26.667 27.4129 26.667 28.3334C26.667 29.2539 27.4132 30.0001 28.3337 30.0001Z" fill="#0075FF"/>
<path d="M3.33301 15.0005V31.6672C3.33301 34.4286 5.57159 36.6672 8.33301 36.6672H31.6663C34.4278 36.6672 36.6663 34.4286 36.6663 31.6672V15.0005H3.33301ZM11.6663 30.0005C10.7459 30.0005 9.99967 29.2543 9.99967 28.3338C9.99967 27.4134 10.7459 26.6672 11.6663 26.6672C12.5868 26.6672 13.333 27.4134 13.333 28.3338C13.333 29.2543 12.5868 30.0005 11.6663 30.0005ZM11.6663 23.3338C10.7459 23.3338 9.99967 22.5876 9.99967 21.6672C9.99967 20.7467 10.7459 20.0005 11.6663 20.0005C12.5868 20.0005 13.333 20.7467 13.333 21.6672C13.333 22.5876 12.5868 23.3338 11.6663 23.3338ZM19.9997 30.0005C19.0792 30.0005 18.333 29.2543 18.333 28.3338C18.333 27.4134 19.0792 26.6672 19.9997 26.6672C20.9202 26.6672 21.6663 27.4134 21.6663 28.3338C21.6663 29.2543 20.9202 30.0005 19.9997 30.0005ZM19.9997 23.3338C19.0792 23.3338 18.333 22.5876 18.333 21.6672C18.333 20.7467 19.0792 20.0005 19.9997 20.0005C20.9202 20.0005 21.6663 20.7467 21.6663 21.6672C21.6663 22.5876 20.9202 23.3338 19.9997 23.3338ZM28.333 30.0005C27.4125 30.0005 26.6663 29.2543 26.6663 28.3338C26.6663 27.4134 27.4125 26.6672 28.333 26.6672C29.2535 26.6672 29.9997 27.4134 29.9997 28.3338C29.9997 29.2543 29.2535 30.0005 28.333 30.0005ZM28.333 23.3338C27.4125 23.3338 26.6663 22.5876 26.6663 21.6672C26.6663 20.7467 27.4125 20.0005 28.333 20.0005C29.2535 20.0005 29.9997 20.7467 29.9997 21.6672C29.9997 22.5876 29.2535 23.3338 28.333 23.3338Z" fill="#C0DDFF"/>
</svg>
