<svg width="18" height="18" viewBox="0 0 18 18" fill="none" xmlns="http://www.w3.org/2000/svg">
<path d="M7.625 7.80183H9.5C9.69892 7.80183 9.88968 7.71756 10.0303 7.56756C10.171 7.41756 10.25 7.21412 10.25 7.00199C10.25 6.78986 10.171 6.58641 10.0303 6.43641C9.88968 6.28641 9.69892 6.20215 9.5 6.20215H8.75V5.80223C8.75 5.59009 8.67099 5.38665 8.53033 5.23665C8.38968 5.08665 8.19892 5.00238 8 5.00238C7.80109 5.00238 7.61033 5.08665 7.46967 5.23665C7.32902 5.38665 7.25 5.59009 7.25 5.80223V6.24214C6.79432 6.34082 6.38928 6.61654 6.1135 7.01579C5.83772 7.41505 5.71088 7.90934 5.75761 8.40271C5.80434 8.89608 6.0213 9.35333 6.36638 9.6857C6.71145 10.0181 7.16002 10.2018 7.625 10.2014H8.375C8.47446 10.2014 8.56984 10.2435 8.64017 10.3185C8.71049 10.3935 8.75 10.4952 8.75 10.6013C8.75 10.7073 8.71049 10.8091 8.64017 10.8841C8.56984 10.9591 8.47446 11.0012 8.375 11.0012H6.5C6.30109 11.0012 6.11033 11.0855 5.96967 11.2355C5.82902 11.3855 5.75 11.5889 5.75 11.801C5.75 12.0132 5.82902 12.2166 5.96967 12.3666C6.11033 12.5166 6.30109 12.6009 6.5 12.6009H7.25V13.0008C7.25 13.2129 7.32902 13.4164 7.46967 13.5664C7.61033 13.7164 7.80109 13.8006 8 13.8006C8.19892 13.8006 8.38968 13.7164 8.53033 13.5664C8.67099 13.4164 8.75 13.2129 8.75 13.0008V12.5609C9.20569 12.4622 9.61073 12.1865 9.88651 11.7872C10.1623 11.388 10.2891 10.8937 10.2424 10.4003C10.1957 9.90694 9.9787 9.44969 9.63363 9.11732C9.28855 8.78495 8.83998 8.60117 8.375 8.60167H7.625C7.52555 8.60167 7.43016 8.55954 7.35984 8.48454C7.28951 8.40954 7.25 8.30781 7.25 8.20175C7.25 8.09568 7.28951 7.99396 7.35984 7.91896C7.43016 7.84396 7.52555 7.80183 7.625 7.80183ZM16.25 9.00159H14V1.80302C14.0005 1.66208 13.9661 1.52349 13.9003 1.4013C13.8344 1.2791 13.7395 1.17763 13.625 1.10716C13.511 1.03696 13.3817 1 13.25 1C13.1183 1 12.989 1.03696 12.875 1.10716L10.625 2.48288L8.375 1.10716C8.26099 1.03696 8.13166 1 8 1C7.86835 1 7.73902 1.03696 7.625 1.10716L5.375 2.48288L3.12501 1.10716C3.01099 1.03696 2.88166 1 2.75001 1C2.61835 1 2.48902 1.03696 2.37501 1.10716C2.26055 1.17763 2.16559 1.2791 2.09974 1.4013C2.03389 1.52349 1.99948 1.66208 2.00001 1.80302V14.6005C2.00001 15.2369 2.23706 15.8472 2.65902 16.2972C3.08097 16.7472 3.65327 17 4.25001 17H14.75C15.3467 17 15.919 16.7472 16.341 16.2972C16.7629 15.8472 17 15.2369 17 14.6005V9.80143C17 9.5893 16.921 9.38586 16.7803 9.23586C16.6397 9.08586 16.4489 9.00159 16.25 9.00159ZM4.25001 15.4003C4.05109 15.4003 3.86033 15.3161 3.71968 15.1661C3.57902 15.0161 3.50001 14.8126 3.50001 14.6005V3.18674L5 4.09856C5.11576 4.16304 5.24441 4.19671 5.375 4.19671C5.5056 4.19671 5.63425 4.16304 5.75 4.09856L8 2.72284L10.25 4.09856C10.3658 4.16304 10.4944 4.19671 10.625 4.19671C10.7556 4.19671 10.8842 4.16304 11 4.09856L12.5 3.18674V14.6005C12.502 14.8733 12.5477 15.1438 12.635 15.4003H4.25001ZM15.5 14.6005C15.5 14.8126 15.421 15.0161 15.2803 15.1661C15.1397 15.3161 14.9489 15.4003 14.75 15.4003C14.5511 15.4003 14.3603 15.3161 14.2197 15.1661C14.079 15.0161 14 14.8126 14 14.6005V10.6013H15.5V14.6005Z" fill="#A1ABBD"/>
</svg>
