<svg width="18" height="18" viewBox="0 0 18 18" fill="none" xmlns="http://www.w3.org/2000/svg">
<path d="M14.9347 9.83204C14.7586 9.83204 14.5745 9.77584 14.3984 9.73569C14.0421 9.65577 13.6917 9.55114 13.3498 9.42256C12.9784 9.28705 12.5702 9.29409 12.2037 9.44231C11.8372 9.59054 11.5383 9.86949 11.3645 10.2255L11.1884 10.5948C10.411 10.1526 9.69282 9.61297 9.05112 8.98898C8.42902 8.34535 7.89105 7.62498 7.45014 6.84521L7.81837 6.6766C8.17328 6.5023 8.45138 6.2025 8.59916 5.83489C8.74694 5.46729 8.75396 5.05785 8.61886 4.68537C8.49173 4.33934 8.38744 3.98529 8.30667 3.62553C8.26664 3.44888 8.23462 3.26421 8.21061 3.08757C8.1134 2.52202 7.81807 2.00986 7.37779 1.64333C6.93752 1.27679 6.38124 1.07998 5.80914 1.08832H3.39966C3.06125 1.08788 2.72656 1.15918 2.41755 1.29755C2.10853 1.43592 1.83216 1.63823 1.60656 1.89123C1.37627 2.1511 1.2048 2.45789 1.10393 2.79052C1.00306 3.12316 0.975177 3.47376 1.0222 3.81823C1.45733 7.16006 2.97957 10.2645 5.35286 12.6503C7.73139 15.0307 10.8265 16.5576 14.1583 16.994C14.2622 17.002 14.3665 17.002 14.4704 16.994C15.0607 16.9949 15.6307 16.7777 16.0714 16.3838C16.3237 16.1575 16.5254 15.8803 16.6633 15.5704C16.8013 15.2604 16.8724 14.9247 16.8719 14.5853V12.1765C16.8676 11.6218 16.6725 11.0855 16.3195 10.6583C15.9666 10.2312 15.4774 9.93929 14.9347 9.83204ZM15.327 14.6495C15.3267 14.7616 15.3031 14.8723 15.2576 14.9746C15.2121 15.077 15.1457 15.1686 15.0628 15.2437C14.9751 15.3239 14.8707 15.3835 14.7571 15.4182C14.6436 15.4529 14.5238 15.4618 14.4064 15.4444C11.4192 15.0531 8.64307 13.6876 6.50556 11.5583C4.36623 9.41249 2.99303 6.61828 2.59917 3.60947C2.58178 3.49171 2.59071 3.37154 2.62532 3.25767C2.65993 3.1438 2.71936 3.03908 2.79929 2.95108C2.87503 2.86689 2.96769 2.79976 3.07117 2.75409C3.17465 2.70842 3.28661 2.68525 3.39966 2.68612H5.80113C5.98617 2.68158 6.16707 2.74151 6.31302 2.85569C6.45897 2.96988 6.56095 3.13127 6.60162 3.31239C6.60162 3.52918 6.67367 3.75399 6.72169 3.97078C6.81421 4.3914 6.93728 4.80466 7.08992 5.20726L5.96923 5.73719C5.77661 5.82588 5.62691 5.98758 5.55298 6.18682C5.47291 6.3823 5.47291 6.60155 5.55298 6.79703C6.70505 9.27222 8.6887 11.2619 11.1564 12.4174C11.3513 12.4977 11.5699 12.4977 11.7648 12.4174C11.9634 12.3433 12.1246 12.1931 12.2131 11.9999L12.7174 10.8758C13.1304 11.0269 13.5529 11.1503 13.9821 11.2452C14.1903 11.2933 14.4144 11.3335 14.6305 11.3656C14.8111 11.4064 14.972 11.5087 15.0859 11.6551C15.1997 11.8015 15.2595 11.9829 15.2549 12.1685L15.327 14.6495ZM10.6041 1C10.42 1 10.2278 1 10.0437 1C9.83143 1.0181 9.63499 1.12005 9.49763 1.28343C9.36027 1.4468 9.29324 1.65821 9.31128 1.87116C9.32933 2.08411 9.43097 2.28114 9.59385 2.41892C9.75674 2.55669 9.96751 2.62393 10.1798 2.60583H10.6041C11.8779 2.60583 13.0995 3.11338 14.0003 4.01683C14.901 4.92029 15.407 6.14563 15.407 7.4233C15.407 7.56783 15.407 7.70432 15.407 7.84885C15.3893 8.06066 15.456 8.2709 15.5925 8.43345C15.7291 8.596 15.9243 8.69761 16.1355 8.71599H16.1995C16.3999 8.71681 16.5933 8.64221 16.7415 8.50693C16.8897 8.37165 16.982 8.18553 17 7.98534C17 7.80067 17 7.60797 17 7.4233C17 5.72113 16.3264 4.08855 15.1272 2.88418C13.9279 1.67981 12.3011 1.00213 10.6041 1V1ZM12.2051 7.4233C12.2051 7.63625 12.2894 7.84047 12.4395 7.99105C12.5896 8.14163 12.7932 8.22622 13.0055 8.22622C13.2179 8.22622 13.4215 8.14163 13.5716 7.99105C13.7217 7.84047 13.806 7.63625 13.806 7.4233C13.806 6.57152 13.4687 5.75462 12.8682 5.15232C12.2677 4.55002 11.4533 4.21165 10.6041 4.21165C10.3918 4.21165 10.1882 4.29624 10.038 4.44682C9.88792 4.5974 9.80359 4.80162 9.80359 5.01457C9.80359 5.22751 9.88792 5.43174 10.038 5.58231C10.1882 5.73289 10.3918 5.81748 10.6041 5.81748C11.0287 5.81748 11.4359 5.98666 11.7361 6.28781C12.0364 6.58897 12.2051 6.99741 12.2051 7.4233Z" fill="#A1ABBD"/>
</svg>
