<svg width="18" height="18" viewBox="0 0 18 18" fill="none" xmlns="http://www.w3.org/2000/svg">
<path d="M11.2851 9.03199C12.024 8.45382 12.5633 7.66097 12.8281 6.76376C13.0928 5.86654 13.0698 4.90957 12.7622 4.02598C12.4545 3.14239 11.8777 2.37612 11.1118 1.83378C10.3459 1.29144 9.42903 1 8.48882 1C7.54861 1 6.63178 1.29144 5.86588 1.83378C5.09998 2.37612 4.52309 3.14239 4.21548 4.02598C3.90787 4.90957 3.88483 5.86654 4.14957 6.76376C4.41431 7.66097 4.95366 8.45382 5.69258 9.03199C4.42642 9.53648 3.32165 10.3732 2.49604 11.453C1.67044 12.5328 1.15496 13.8152 1.00455 15.1635C0.993659 15.2619 1.00237 15.3615 1.03019 15.4566C1.05801 15.5517 1.10439 15.6404 1.16668 15.7176C1.29248 15.8737 1.47545 15.9736 1.67534 15.9955C1.87524 16.0173 2.07568 15.9593 2.23257 15.8342C2.38947 15.7091 2.48996 15.5272 2.51195 15.3284C2.67745 13.8631 3.37998 12.5098 4.48531 11.5271C5.59064 10.5444 7.02128 10.0012 8.5039 10.0012C9.98651 10.0012 11.4171 10.5444 12.5225 11.5271C13.6278 12.5098 14.3303 13.8631 14.4958 15.3284C14.5163 15.5125 14.6047 15.6826 14.7439 15.8058C14.8831 15.929 15.0632 15.9966 15.2495 15.9955H15.3324C15.53 15.9729 15.7106 15.8735 15.8348 15.7191C15.9591 15.5646 16.0169 15.3676 15.9957 15.171C15.8446 13.8189 15.3263 12.5332 14.4965 11.4517C13.6666 10.3703 12.5565 9.53381 11.2851 9.03199V9.03199ZM8.48882 8.4998C7.89255 8.4998 7.30966 8.32395 6.81388 7.9945C6.3181 7.66504 5.93168 7.19678 5.7035 6.64892C5.47531 6.10105 5.41561 5.4982 5.53194 4.91659C5.64826 4.33499 5.9354 3.80074 6.35703 3.38143C6.77866 2.96211 7.31584 2.67656 7.90066 2.56087C8.48548 2.44518 9.09166 2.50455 9.64254 2.73148C10.1934 2.95842 10.6643 3.34271 10.9955 3.83578C11.3268 4.32884 11.5036 4.90852 11.5036 5.50153C11.5036 6.29672 11.186 7.05934 10.6206 7.62162C10.0552 8.18391 9.2884 8.4998 8.48882 8.4998Z" fill="#A1ABBD" stroke="#A1ABBD" stroke-width="0.3"/>
</svg>
