<svg width="18" height="18" viewBox="0 0 18 18" fill="none" xmlns="http://www.w3.org/2000/svg">
<path d="M11.3868 9.30514C11.8112 8.97306 12.121 8.51768 12.2731 8.00236C12.4251 7.48703 12.4119 6.93739 12.2352 6.42989C12.0585 5.92239 11.7272 5.48228 11.2873 5.17079C10.8474 4.85929 10.3208 4.69189 9.78076 4.69189C9.24075 4.69189 8.71416 4.85929 8.27425 5.17079C7.83435 5.48228 7.50301 5.92239 7.32633 6.42989C7.14965 6.93739 7.13642 7.48703 7.28848 8.00236C7.44053 8.51768 7.75031 8.97306 8.17472 9.30514C7.44749 9.5949 6.81295 10.0755 6.33876 10.6957C5.86457 11.3159 5.56849 12.0524 5.4821 12.8268C5.47585 12.8833 5.48086 12.9405 5.49683 12.9952C5.51281 13.0498 5.53945 13.1007 5.57522 13.1451C5.64748 13.2347 5.75257 13.2921 5.86738 13.3047C5.98219 13.3172 6.09732 13.2839 6.18743 13.2121C6.27755 13.1402 6.33527 13.0357 6.3479 12.9215C6.44295 12.0799 6.84646 11.3027 7.48131 10.7383C8.11617 10.1738 8.93787 9.86182 9.78942 9.86182C10.641 9.86182 11.4627 10.1738 12.0975 10.7383C12.7324 11.3027 13.1359 12.0799 13.2309 12.9215C13.2427 13.0273 13.2935 13.125 13.3734 13.1958C13.4534 13.2665 13.5568 13.3053 13.6638 13.3047H13.7115C13.8249 13.2917 13.9287 13.2346 14 13.1459C14.0714 13.0572 14.1046 12.9441 14.0924 12.8311C14.0056 12.0545 13.7079 11.3161 13.2313 10.695C12.7547 10.0738 12.1171 9.59337 11.3868 9.30514V9.30514ZM9.78076 8.99947C9.43829 8.99947 9.1035 8.89847 8.81875 8.70925C8.53399 8.52002 8.31205 8.25107 8.18099 7.9364C8.04993 7.62173 8.01564 7.27548 8.08245 6.94142C8.14926 6.60737 8.31418 6.30053 8.55635 6.05969C8.79851 5.81885 9.10705 5.65484 9.44295 5.58839C9.77884 5.52195 10.127 5.55605 10.4434 5.68639C10.7598 5.81673 11.0303 6.03745 11.2205 6.32065C11.4108 6.60384 11.5123 6.93679 11.5123 7.27739C11.5123 7.73411 11.3299 8.17213 11.0052 8.49508C10.6804 8.81804 10.24 8.99947 9.78076 8.99947Z" fill="#A1ABBD" stroke="#A1ABBD" stroke-width="0.7"/>
<path d="M14.3333 1H4.73333C3.24 1 2.06667 2.17333 2.06667 3.66667V5.26667H1.53333C1.21333 5.26667 1 5.48 1 5.8C1 6.12 1.21333 6.33333 1.53333 6.33333H2.06667V8.46667H1.53333C1.21333 8.46667 1 8.68 1 9C1 9.32 1.21333 9.53333 1.53333 9.53333H2.06667V11.6667H1.53333C1.21333 11.6667 1 11.88 1 12.2C1 12.52 1.21333 12.7333 1.53333 12.7333H2.06667V14.3333C2.06667 15.8267 3.24 17 4.73333 17H14.3333C15.8267 17 17 15.8267 17 14.3333V3.66667C17 2.17333 15.8267 1 14.3333 1ZM15.9333 14.3333C15.9333 15.1867 15.1867 15.9333 14.3333 15.9333H4.73333C3.88 15.9333 3.13333 15.1867 3.13333 14.3333V12.7333H3.66667C3.98667 12.7333 4.2 12.52 4.2 12.2C4.2 11.88 3.98667 11.6667 3.66667 11.6667H3.13333V9.53333H3.66667C3.98667 9.53333 4.2 9.32 4.2 9C4.2 8.68 3.98667 8.46667 3.66667 8.46667H3.13333V6.33333H3.66667C3.98667 6.33333 4.2 6.12 4.2 5.8C4.2 5.48 3.98667 5.26667 3.66667 5.26667H3.13333V3.66667C3.13333 2.81333 3.88 2.06667 4.73333 2.06667H14.3333C15.1867 2.06667 15.9333 2.81333 15.9333 3.66667V14.3333Z" fill="#A1ABBD" stroke="#A1ABBD" stroke-width="0.5"/>
</svg>
