<svg width="18" height="18" viewBox="0 0 18 18" fill="none" xmlns="http://www.w3.org/2000/svg">
<path d="M16.2821 6.96739L13.2821 3.96739C13.2122 3.89747 13.1292 3.842 13.0378 3.80415C12.9464 3.76631 12.8485 3.74683 12.7496 3.74683C12.5499 3.74683 12.3583 3.82617 12.2171 3.96739C12.0759 4.10862 11.9965 4.30017 11.9965 4.49989C11.9965 4.69962 12.0759 4.89117 12.2171 5.03239L13.9421 6.74989H5.24962C5.0507 6.74989 4.85994 6.82891 4.71929 6.96956C4.57863 7.11022 4.49962 7.30098 4.49962 7.49989C4.49962 7.69881 4.57863 7.88957 4.71929 8.03022C4.85994 8.17088 5.0507 8.24989 5.24962 8.24989H15.7496C15.8977 8.24916 16.0422 8.2046 16.165 8.12185C16.2878 8.0391 16.3833 7.92186 16.4396 7.78489C16.497 7.64831 16.5127 7.49778 16.4847 7.35228C16.4567 7.20679 16.3862 7.07286 16.2821 6.96739V6.96739ZM12.7496 9.74989H2.24962C2.10155 9.75063 1.95701 9.79519 1.83422 9.87793C1.71143 9.96068 1.61588 10.0779 1.55962 10.2149C1.50218 10.3515 1.48649 10.502 1.51452 10.6475C1.54255 10.793 1.61305 10.9269 1.71712 11.0324L4.71712 14.0324C4.78684 14.1027 4.86979 14.1585 4.96118 14.1966C5.05258 14.2346 5.15061 14.2542 5.24962 14.2542C5.34863 14.2542 5.44665 14.2346 5.53805 14.1966C5.62944 14.1585 5.71239 14.1027 5.78212 14.0324C5.85241 13.9627 5.90821 13.8797 5.94628 13.7883C5.98436 13.6969 6.00396 13.5989 6.00396 13.4999C6.00396 13.4009 5.98436 13.3029 5.94628 13.2115C5.90821 13.1201 5.85241 13.0371 5.78212 12.9674L4.05712 11.2499H12.7496C12.9485 11.2499 13.1393 11.1709 13.2799 11.0302C13.4206 10.8896 13.4996 10.6988 13.4996 10.4999C13.4996 10.301 13.4206 10.1102 13.2799 9.96956C13.1393 9.82891 12.9485 9.74989 12.7496 9.74989Z" fill="#A1ABBD" stroke="#A1ABBD" stroke-width="0.2"/>
</svg>
