<svg width="20" height="20" viewBox="0 0 20 20" fill="none" xmlns="http://www.w3.org/2000/svg">
<path d="M10.492 10.8333L8.57533 12.7416C8.49722 12.8191 8.43522 12.9112 8.39292 13.0128C8.35061 13.1143 8.32883 13.2232 8.32883 13.3333C8.32883 13.4433 8.35061 13.5522 8.39292 13.6537C8.43522 13.7553 8.49722 13.8475 8.57533 13.9249C8.65279 14.003 8.74496 14.065 8.84651 14.1073C8.94806 14.1496 9.05698 14.1714 9.16699 14.1714C9.277 14.1714 9.38592 14.1496 9.48747 14.1073C9.58902 14.065 9.68119 14.003 9.75866 13.9249L13.092 10.5916C13.1679 10.5123 13.2273 10.4189 13.267 10.3166C13.3503 10.1137 13.3503 9.88614 13.267 9.68325C13.2273 9.58096 13.1679 9.48751 13.092 9.40825L9.75866 6.07492C9.68096 5.99722 9.58872 5.93559 9.4872 5.89354C9.38568 5.85149 9.27688 5.82984 9.16699 5.82984C9.05711 5.82984 8.9483 5.85149 8.84678 5.89354C8.74527 5.93559 8.65302 5.99722 8.57533 6.07492C8.49763 6.15262 8.43599 6.24486 8.39394 6.34638C8.35189 6.4479 8.33025 6.5567 8.33025 6.66659C8.33025 6.77647 8.35189 6.88528 8.39394 6.9868C8.43599 7.08831 8.49763 7.18056 8.57533 7.25825L10.492 9.16659H2.50033C2.27931 9.16659 2.06735 9.25439 1.91107 9.41067C1.75479 9.56695 1.66699 9.77891 1.66699 9.99992C1.66699 10.2209 1.75479 10.4329 1.91107 10.5892C2.06735 10.7455 2.27931 10.8333 2.50033 10.8333H10.492ZM10.0003 1.66659C8.4429 1.65963 6.9147 2.08926 5.58905 2.90675C4.2634 3.72423 3.19337 4.89685 2.50033 6.29159C2.40087 6.4905 2.3845 6.72077 2.45483 6.93175C2.52516 7.14273 2.67641 7.31713 2.87533 7.41659C3.07424 7.51604 3.30451 7.53241 3.51549 7.46208C3.72647 7.39176 3.90087 7.2405 4.00033 7.04159C4.52715 5.97769 5.32852 5.07377 6.32162 4.42324C7.31471 3.77272 8.46351 3.39919 9.64929 3.34125C10.8351 3.28331 12.0148 3.54307 13.0666 4.09368C14.1184 4.64429 15.0041 5.46578 15.6321 6.47325C16.2601 7.48072 16.6077 8.63763 16.639 9.82441C16.6703 11.0112 16.384 12.1848 15.8099 13.2239C15.2358 14.2631 14.3946 15.13 13.3733 15.7353C12.3519 16.3405 11.1875 16.662 10.0003 16.6666C8.75773 16.672 7.53879 16.3269 6.4834 15.671C5.42802 15.015 4.57895 14.0748 4.03366 12.9583C3.9342 12.7593 3.7598 12.6081 3.54882 12.5378C3.33785 12.4674 3.10757 12.4838 2.90866 12.5833C2.70975 12.6827 2.55849 12.8571 2.48816 13.0681C2.41784 13.2791 2.4342 13.5093 2.53366 13.7083C3.19435 15.0378 4.19826 16.1668 5.44155 16.9783C6.68484 17.7898 8.12237 18.2544 9.60543 18.3241C11.0885 18.3937 12.5632 18.0659 13.8771 17.3745C15.191 16.6831 16.2963 15.6532 17.0787 14.3914C17.8611 13.1296 18.2922 11.6817 18.3274 10.1974C18.3626 8.71314 18.0006 7.24641 17.2789 5.94895C16.5571 4.65148 15.5019 3.57039 14.2222 2.81751C12.9426 2.06462 11.485 1.66728 10.0003 1.66659Z" fill="#A1ABBD" stroke="#A1ABBD" stroke-width="0.1"/>
</svg>
