<svg width="20" height="20" viewBox="0 0 20 20" fill="none" xmlns="http://www.w3.org/2000/svg">
<path d="M10.0003 15.8333C10.1651 15.8333 10.3263 15.7844 10.4633 15.6928C10.6003 15.6012 10.7072 15.4711 10.7702 15.3188C10.8333 15.1665 10.8498 14.999 10.8176 14.8373C10.7855 14.6757 10.7061 14.5272 10.5896 14.4107C10.473 14.2941 10.3246 14.2148 10.1629 14.1826C10.0012 14.1504 9.83369 14.1669 9.68142 14.23C9.52915 14.2931 9.399 14.3999 9.30743 14.5369C9.21587 14.674 9.16699 14.8351 9.16699 14.9999C9.16699 15.2209 9.25479 15.4329 9.41107 15.5892C9.56735 15.7455 9.77931 15.8333 10.0003 15.8333ZM14.167 15.8333C14.3318 15.8333 14.4929 15.7844 14.63 15.6928C14.767 15.6012 14.8738 15.4711 14.9369 15.3188C15 15.1665 15.0165 14.999 14.9843 14.8373C14.9522 14.6757 14.8728 14.5272 14.7562 14.4107C14.6397 14.2941 14.4912 14.2148 14.3296 14.1826C14.1679 14.1504 14.0004 14.1669 13.8481 14.23C13.6958 14.2931 13.5657 14.3999 13.4741 14.5369C13.3825 14.674 13.3337 14.8351 13.3337 14.9999C13.3337 15.2209 13.4215 15.4329 13.5777 15.5892C13.734 15.7455 13.946 15.8333 14.167 15.8333ZM14.167 12.4999C14.3318 12.4999 14.4929 12.451 14.63 12.3595C14.767 12.2679 14.8738 12.1378 14.9369 11.9855C15 11.8332 15.0165 11.6657 14.9843 11.504C14.9522 11.3424 14.8728 11.1939 14.7562 11.0773C14.6397 10.9608 14.4912 10.8814 14.3296 10.8493C14.1679 10.8171 14.0004 10.8336 13.8481 10.8967C13.6958 10.9598 13.5657 11.0666 13.4741 11.2036C13.3825 11.3407 13.3337 11.5018 13.3337 11.6666C13.3337 11.8876 13.4215 12.0996 13.5777 12.2558C13.734 12.4121 13.946 12.4999 14.167 12.4999ZM10.0003 12.4999C10.1651 12.4999 10.3263 12.451 10.4633 12.3595C10.6003 12.2679 10.7072 12.1378 10.7702 11.9855C10.8333 11.8332 10.8498 11.6657 10.8176 11.504C10.7855 11.3424 10.7061 11.1939 10.5896 11.0773C10.473 10.9608 10.3246 10.8814 10.1629 10.8493C10.0012 10.8171 9.83369 10.8336 9.68142 10.8967C9.52915 10.9598 9.399 11.0666 9.30743 11.2036C9.21587 11.3407 9.16699 11.5018 9.16699 11.6666C9.16699 11.8876 9.25479 12.0996 9.41107 12.2558C9.56735 12.4121 9.77931 12.4999 10.0003 12.4999ZM15.8337 2.49992H15.0003V1.66659C15.0003 1.44557 14.9125 1.23361 14.7562 1.07733C14.6 0.921049 14.388 0.833252 14.167 0.833252C13.946 0.833252 13.734 0.921049 13.5777 1.07733C13.4215 1.23361 13.3337 1.44557 13.3337 1.66659V2.49992H6.66699V1.66659C6.66699 1.44557 6.57919 1.23361 6.42291 1.07733C6.26663 0.921049 6.05467 0.833252 5.83366 0.833252C5.61264 0.833252 5.40068 0.921049 5.2444 1.07733C5.08812 1.23361 5.00033 1.44557 5.00033 1.66659V2.49992H4.16699C3.50395 2.49992 2.86807 2.76331 2.39923 3.23215C1.93038 3.70099 1.66699 4.33688 1.66699 4.99992V16.6666C1.66699 17.3296 1.93038 17.9655 2.39923 18.4344C2.86807 18.9032 3.50395 19.1666 4.16699 19.1666H15.8337C16.4967 19.1666 17.1326 18.9032 17.6014 18.4344C18.0703 17.9655 18.3337 17.3296 18.3337 16.6666V4.99992C18.3337 4.33688 18.0703 3.70099 17.6014 3.23215C17.1326 2.76331 16.4967 2.49992 15.8337 2.49992ZM16.667 16.6666C16.667 16.8876 16.5792 17.0996 16.4229 17.2558C16.2666 17.4121 16.0547 17.4999 15.8337 17.4999H4.16699C3.94598 17.4999 3.73402 17.4121 3.57774 17.2558C3.42146 17.0996 3.33366 16.8876 3.33366 16.6666V9.16659H16.667V16.6666ZM16.667 7.49992H3.33366V4.99992C3.33366 4.77891 3.42146 4.56694 3.57774 4.41066C3.73402 4.25438 3.94598 4.16659 4.16699 4.16659H5.00033V4.99992C5.00033 5.22093 5.08812 5.43289 5.2444 5.58917C5.40068 5.74545 5.61264 5.83325 5.83366 5.83325C6.05467 5.83325 6.26663 5.74545 6.42291 5.58917C6.57919 5.43289 6.66699 5.22093 6.66699 4.99992V4.16659H13.3337V4.99992C13.3337 5.22093 13.4215 5.43289 13.5777 5.58917C13.734 5.74545 13.946 5.83325 14.167 5.83325C14.388 5.83325 14.6 5.74545 14.7562 5.58917C14.9125 5.43289 15.0003 5.22093 15.0003 4.99992V4.16659H15.8337C16.0547 4.16659 16.2666 4.25438 16.4229 4.41066C16.5792 4.56694 16.667 4.77891 16.667 4.99992V7.49992ZM5.83366 12.4999C5.99848 12.4999 6.15959 12.451 6.29663 12.3595C6.43367 12.2679 6.54049 12.1378 6.60356 11.9855C6.66663 11.8332 6.68313 11.6657 6.65098 11.504C6.61883 11.3424 6.53946 11.1939 6.42291 11.0773C6.30637 10.9608 6.15788 10.8814 5.99623 10.8493C5.83458 10.8171 5.66703 10.8336 5.51476 10.8967C5.36248 10.9598 5.23234 11.0666 5.14077 11.2036C5.0492 11.3407 5.00033 11.5018 5.00033 11.6666C5.00033 11.8876 5.08812 12.0996 5.2444 12.2558C5.40068 12.4121 5.61264 12.4999 5.83366 12.4999ZM5.83366 15.8333C5.99848 15.8333 6.15959 15.7844 6.29663 15.6928C6.43367 15.6012 6.54049 15.4711 6.60356 15.3188C6.66663 15.1665 6.68313 14.999 6.65098 14.8373C6.61883 14.6757 6.53946 14.5272 6.42291 14.4107C6.30637 14.2941 6.15788 14.2148 5.99623 14.1826C5.83458 14.1504 5.66703 14.1669 5.51476 14.23C5.36248 14.2931 5.23234 14.3999 5.14077 14.5369C5.0492 14.674 5.00033 14.8351 5.00033 14.9999C5.00033 15.2209 5.08812 15.4329 5.2444 15.5892C5.40068 15.7455 5.61264 15.8333 5.83366 15.8333Z" fill="#A1ABBD"/>
</svg>
