<svg width="20" height="20" viewBox="0 0 20 20" fill="none" xmlns="http://www.w3.org/2000/svg">
<path d="M18.167 8.33342C17.8337 7.33342 16.8337 6.66675 15.8337 6.66675C14.417 6.66675 13.3337 7.75008 13.3337 9.16675C13.3337 10.2501 14.0003 11.1667 15.0003 11.5001V12.9167C15.0003 15.0001 13.3337 16.6667 11.2503 16.6667C9.16699 16.6667 7.50033 15.0001 7.50033 12.9167V12.4167C9.91699 12.0001 11.667 9.91675 11.667 7.50008V2.50008C11.667 2.00008 11.3337 1.66675 10.8337 1.66675H9.16699C8.66699 1.66675 8.33366 2.00008 8.33366 2.50008C8.33366 3.00008 8.66699 3.33341 9.16699 3.33341H10.0003V7.50008C10.0003 9.33342 8.50033 10.8334 6.66699 10.8334C4.83366 10.8334 3.33366 9.33342 3.33366 7.50008V3.33341H4.16699C4.66699 3.33341 5.00033 3.00008 5.00033 2.50008C5.00033 2.00008 4.66699 1.66675 4.16699 1.66675H2.50033C2.00033 1.66675 1.66699 2.00008 1.66699 2.50008V7.50008C1.66699 9.91675 3.41699 12.0001 5.83366 12.4167V12.9167C5.83366 15.9167 8.25033 18.3334 11.2503 18.3334C14.2503 18.3334 16.667 15.9167 16.667 12.9167V11.5001C18.0003 11.0834 18.667 9.66675 18.167 8.33342Z" fill="#A1ABBD"/>
</svg>
