<svg width="18" height="18" viewBox="0 0 18 18" fill="none" xmlns="http://www.w3.org/2000/svg">
<path d="M2.82564 9.2444C1.81558 9.2444 1.00102 8.42974 1.00102 7.41955C1.00102 7.38697 1.00102 7.35438 1.00102 7.35438V5.82281C0.96844 4.81263 1.71784 3.96538 2.72789 3.93279C2.76048 3.93279 2.79306 3.93279 2.79306 3.93279H15.2396C16.2496 3.96538 17.0316 4.81263 16.999 5.82281V5.8554V7.45214C17.0316 8.46232 16.217 9.27699 15.2396 9.30957H15.207H2.82564V9.2444ZM2.69531 5.10591C2.40207 5.17108 2.17399 5.46436 2.17399 5.75764V7.35438C2.17399 7.71283 2.43465 8.00611 2.79306 8.00611H15.2396C15.598 7.97352 15.8586 7.71283 15.8586 7.35438V5.82281C15.8586 5.46436 15.598 5.17108 15.2396 5.17108H2.69531V5.10591ZM5.139 17C3.67279 17 2.46723 15.7943 2.46723 14.3279V8.10387H15.5328V14.3279C15.5328 15.7943 14.3273 17 12.861 17H5.139ZM3.67279 14.3279C3.67279 15.1426 4.32444 15.8269 5.139 15.8269H5.17158H12.861C13.6756 15.8269 14.3598 15.1752 14.3598 14.3605V14.3279V9.30957H3.67279V14.3279ZM4.3896 4.32383C4.35702 4.32383 4.29185 4.32383 4.25927 4.32383C3.90086 4.19348 3.70537 3.83503 3.77053 3.47658C3.90086 2.79226 4.25927 2.17312 4.78059 1.68432C5.79065 0.771894 7.32202 0.771894 8.33208 1.68432C8.8534 2.14053 9.21181 2.75967 9.34214 3.47658C9.43988 3.83503 9.21181 4.19348 8.8534 4.32383H8.72307C8.42983 4.29124 8.16917 4.09572 8.104 3.80244C8.00626 3.02037 7.35461 2.43381 6.57263 2.40122C5.79065 2.43381 5.139 3.02037 5.00867 3.80244C4.97609 4.06314 4.71543 4.29124 4.3896 4.32383ZM9.4073 4.35642C9.37472 4.35642 9.30955 4.35642 9.27697 4.35642C8.91856 4.25866 8.72307 3.9002 8.78823 3.50917C8.91856 2.82485 9.27697 2.2057 9.76571 1.7169C10.2544 1.26069 10.9061 1.03259 11.5577 1.03259C12.2094 1.03259 12.8285 1.29328 13.3498 1.7169C13.8711 2.17312 14.2295 2.79226 14.3598 3.50917C14.4576 3.86762 14.2295 4.22607 13.8711 4.35642H13.7408C13.4475 4.32383 13.1869 4.12831 13.1217 3.83503C13.0565 2.95519 12.2746 2.33605 11.4274 2.43381C10.7106 2.49898 10.1241 3.08554 10.0264 3.83503C9.99379 4.12831 9.73313 4.35642 9.4073 4.35642ZM7.71301 13.22C7.35461 13.22 7.09395 12.9267 7.09395 12.6008C7.09395 12.2424 7.38719 11.9817 7.71301 11.9817H10.5477C10.9061 11.9817 11.1668 12.2749 11.1668 12.6008C11.1668 12.9593 10.8735 13.22 10.5477 13.22H7.71301Z" fill="#A1ABBD" stroke="#A1ABBD" stroke-width="0.2"/>
</svg>
