<svg width="20" height="20" viewBox="0 0 20 20" fill="none" xmlns="http://www.w3.org/2000/svg">
<path d="M6.66704 9.16675C6.50223 9.16675 6.34111 9.21562 6.20407 9.30719C6.06703 9.39876 5.96022 9.52891 5.89714 9.68118C5.83407 9.83345 5.81757 10.001 5.84972 10.1627C5.88188 10.3243 5.96124 10.4728 6.07779 10.5893C6.19433 10.7059 6.34282 10.7852 6.50447 10.8174C6.66612 10.8496 6.83367 10.8331 6.98595 10.77C7.13822 10.7069 7.26837 10.6001 7.35993 10.4631C7.4515 10.326 7.50038 10.1649 7.50038 10.0001C7.50038 9.77907 7.41258 9.56711 7.2563 9.41083C7.10002 9.25454 6.88806 9.16675 6.66704 9.16675ZM10.0004 9.16675C9.83556 9.16675 9.67444 9.21562 9.5374 9.30719C9.40036 9.39876 9.29355 9.52891 9.23048 9.68118C9.1674 9.83345 9.1509 10.001 9.18306 10.1627C9.21521 10.3243 9.29458 10.4728 9.41112 10.5893C9.52767 10.7059 9.67615 10.7852 9.8378 10.8174C9.99945 10.8496 10.167 10.8331 10.3193 10.77C10.4716 10.7069 10.6017 10.6001 10.6933 10.4631C10.7848 10.326 10.8337 10.1649 10.8337 10.0001C10.8337 9.77907 10.7459 9.56711 10.5896 9.41083C10.4334 9.25454 10.2214 9.16675 10.0004 9.16675ZM13.3337 9.16675C13.1689 9.16675 13.0078 9.21562 12.8707 9.30719C12.7337 9.39876 12.6269 9.52891 12.5638 9.68118C12.5007 9.83345 12.4842 10.001 12.5164 10.1627C12.5485 10.3243 12.6279 10.4728 12.7445 10.5893C12.861 10.7059 13.0095 10.7852 13.1711 10.8174C13.3328 10.8496 13.5003 10.8331 13.6526 10.77C13.8049 10.7069 13.935 10.6001 14.0266 10.4631C14.1182 10.326 14.167 10.1649 14.167 10.0001C14.167 9.77907 14.0792 9.56711 13.923 9.41083C13.7667 9.25454 13.5547 9.16675 13.3337 9.16675ZM10.0004 1.66675C8.90603 1.66675 7.82239 1.8823 6.81135 2.30109C5.8003 2.71987 4.88164 3.3337 4.10782 4.10752C2.54502 5.67033 1.66704 7.78994 1.66704 10.0001C1.65976 11.9244 2.32604 13.7905 3.55038 15.2751L1.88371 16.9417C1.76808 17.0589 1.68975 17.2077 1.6586 17.3694C1.62746 17.5311 1.64489 17.6983 1.70871 17.8501C1.77792 18 1.89013 18.126 2.03108 18.2121C2.17203 18.2981 2.33538 18.3404 2.50038 18.3334H10.0004C12.2105 18.3334 14.3301 17.4554 15.8929 15.8926C17.4557 14.3298 18.3337 12.2102 18.3337 10.0001C18.3337 7.78994 17.4557 5.67033 15.8929 4.10752C14.3301 2.54472 12.2105 1.66675 10.0004 1.66675ZM10.0004 16.6667H4.50871L5.28371 15.8917C5.36245 15.8146 5.42509 15.7225 5.46801 15.621C5.51092 15.5194 5.53325 15.4103 5.53371 15.3001C5.53058 15.0803 5.44072 14.8706 5.28371 14.7167C4.19253 13.6268 3.51302 12.1922 3.36095 10.6574C3.20888 9.12262 3.59366 7.58259 4.44973 6.29968C5.3058 5.01678 6.5802 4.07038 8.05581 3.62173C9.53141 3.17307 11.1169 3.24992 12.5422 3.83918C13.9675 4.42843 15.1444 5.49364 15.8724 6.85332C16.6004 8.213 16.8344 9.78303 16.5346 11.2959C16.2349 12.8088 15.4198 14.171 14.2283 15.1503C13.0368 16.1296 11.5427 16.6655 10.0004 16.6667Z" fill="#A1ABBD"/>
</svg>
