<svg width="20" height="20" viewBox="0 0 20 20" fill="none" xmlns="http://www.w3.org/2000/svg">
<path d="M10.5228 14.8493C10.3511 14.6786 10.1187 14.5828 9.87657 14.5828C9.6344 14.5828 9.40207 14.6786 9.23032 14.8493C9.14467 14.9366 9.07625 15.0392 9.02866 15.1518C8.94341 15.3762 8.94341 15.6241 9.02866 15.8485C9.07848 15.9599 9.14665 16.0622 9.23032 16.151C9.3148 16.2334 9.4144 16.2988 9.52366 16.3435C9.6367 16.3917 9.75828 16.4166 9.88116 16.4168C10.0313 16.4161 10.1789 16.3785 10.3111 16.3073C10.4433 16.2361 10.556 16.1336 10.6393 16.0086C10.7226 15.8837 10.7739 15.7403 10.7888 15.5909C10.8036 15.4415 10.7815 15.2907 10.7245 15.1518C10.6803 15.0374 10.6115 14.9341 10.5228 14.8493ZM17.3337 7.19516C17.3241 7.11095 17.3057 7.02799 17.2787 6.94766V6.86516C17.2346 6.77091 17.1758 6.68427 17.1045 6.6085L11.6045 1.1085C11.5287 1.03719 11.4421 0.978404 11.3478 0.934329H11.2653C11.1722 0.880926 11.0694 0.846645 10.9628 0.833496H5.41699C4.68765 0.833496 3.98817 1.12323 3.47245 1.63895C2.95672 2.15468 2.66699 2.85415 2.66699 3.5835V16.4168C2.66699 17.1462 2.95672 17.8456 3.47245 18.3614C3.98817 18.8771 4.68765 19.1668 5.41699 19.1668H14.5837C15.313 19.1668 16.0125 18.8771 16.5282 18.3614C17.0439 17.8456 17.3337 17.1462 17.3337 16.4168V7.25016C17.3337 7.25016 17.3337 7.25016 17.3337 7.19516ZM11.8337 3.95933L14.2078 6.3335H12.7503C12.5072 6.3335 12.2741 6.23692 12.1021 6.06501C11.9302 5.8931 11.8337 5.65994 11.8337 5.41683V3.95933ZM15.5003 16.4168C15.5003 16.6599 15.4037 16.8931 15.2318 17.065C15.0599 17.2369 14.8268 17.3335 14.5837 17.3335H5.41699C5.17388 17.3335 4.94072 17.2369 4.76881 17.065C4.5969 16.8931 4.50033 16.6599 4.50033 16.4168V3.5835C4.50033 3.34038 4.5969 3.10722 4.76881 2.93531C4.94072 2.76341 5.17388 2.66683 5.41699 2.66683H10.0003V5.41683C10.0003 6.14617 10.2901 6.84565 10.8058 7.36137C11.3215 7.8771 12.021 8.16683 12.7503 8.16683H15.5003V16.4168ZM9.88116 8.16683C9.39813 8.16652 8.92355 8.29344 8.50516 8.53482C8.08677 8.7762 7.73934 9.12352 7.49782 9.54183C7.4315 9.64616 7.38697 9.76283 7.3669 9.88482C7.34684 10.0068 7.35165 10.1316 7.38107 10.2517C7.41048 10.3718 7.46388 10.4847 7.53805 10.5836C7.61222 10.6825 7.70564 10.7654 7.81267 10.8272C7.91971 10.8891 8.03815 10.9287 8.16088 10.9436C8.28361 10.9585 8.40808 10.9484 8.52682 10.914C8.64555 10.8795 8.75609 10.8214 8.85178 10.7431C8.94748 10.6649 9.02635 10.568 9.08366 10.4585C9.16442 10.3186 9.28071 10.2025 9.42076 10.1221C9.5608 10.0416 9.71963 9.99952 9.88116 10.0002C10.1243 10.0002 10.3574 10.0967 10.5293 10.2686C10.7012 10.4406 10.7978 10.6737 10.7978 10.9168C10.7978 11.1599 10.7012 11.3931 10.5293 11.565C10.3574 11.7369 10.1243 11.8335 9.88116 11.8335C9.63804 11.8335 9.40488 11.9301 9.23298 12.102C9.06107 12.2739 8.96449 12.507 8.96449 12.7502C8.96449 12.9933 9.06107 13.2264 9.23298 13.3983C9.40488 13.5703 9.63804 13.6668 9.88116 13.6668C10.6105 13.6668 11.31 13.3771 11.8257 12.8614C12.3414 12.3456 12.6312 11.6462 12.6312 10.9168C12.6312 10.1875 12.3414 9.48801 11.8257 8.97229C11.31 8.45656 10.6105 8.16683 9.88116 8.16683Z" fill="#A1ABBD"/>
</svg>
