<svg width="18" height="18" viewBox="0 0 18 18" fill="none" xmlns="http://www.w3.org/2000/svg">
<path d="M7.13515 5C6.22913 5.00172 5.34316 5.26665 4.58516 5.76252C3.82716 6.25839 3.22984 6.96379 2.86596 7.79281C2.50208 8.62184 2.38735 9.53869 2.53573 10.4317C2.68412 11.3247 3.08922 12.1554 3.7017 12.8224C4.13913 13.2962 4.67004 13.6743 5.26097 13.9329C5.85189 14.1915 6.49002 14.325 7.13515 14.325C7.78027 14.325 8.4184 14.1915 9.00933 13.9329C9.60025 13.6743 10.1312 13.2962 10.5686 12.8224C11.1811 12.1554 11.5862 11.3247 11.7346 10.4317C11.8829 9.53869 11.7682 8.62184 11.4043 7.79281C11.0405 6.96379 10.4431 6.25839 9.68514 5.76252C8.92714 5.26665 8.04117 5.00172 7.13515 5ZM7.13515 13.4012C6.16746 13.3997 5.23807 13.0232 4.54254 12.351C4.75371 11.8374 5.11293 11.3981 5.57456 11.0889C6.0362 10.7798 6.5794 10.6147 7.13515 10.6147C7.6909 10.6147 8.2341 10.7798 8.69573 11.0889C9.15737 11.3981 9.51659 11.8374 9.72776 12.351C9.03223 13.0232 8.10284 13.3997 7.13515 13.4012ZM6.20088 8.73385C6.20088 8.54923 6.25567 8.36876 6.35833 8.21525C6.46099 8.06174 6.6069 7.9421 6.77762 7.87145C6.94833 7.80079 7.13618 7.78231 7.31742 7.81833C7.49865 7.85434 7.66512 7.94325 7.79578 8.07379C7.92644 8.20434 8.01542 8.37067 8.05147 8.55174C8.08752 8.73282 8.06902 8.92051 7.9983 9.09107C7.92759 9.26164 7.80784 9.40743 7.6542 9.51C7.50056 9.61257 7.31993 9.66732 7.13515 9.66732C6.88736 9.66732 6.64973 9.56897 6.47452 9.39391C6.29931 9.21885 6.20088 8.98142 6.20088 8.73385ZM10.3631 11.5342C9.94569 10.821 9.30332 10.2661 8.53656 9.95669C8.77441 9.68723 8.92939 9.35491 8.98289 8.99963C9.0364 8.64434 8.98616 8.28118 8.83821 7.95371C8.69026 7.62624 8.45088 7.34839 8.14879 7.15348C7.8467 6.95858 7.49474 6.85491 7.13515 6.85491C6.77555 6.85491 6.42359 6.95858 6.12151 7.15348C5.81942 7.34839 5.58004 7.62624 5.43209 7.95371C5.28413 8.28118 5.2339 8.64434 5.2874 8.99963C5.34091 9.35491 5.49589 9.68723 5.73374 9.95669C4.96698 10.2661 4.32461 10.821 3.90724 11.5342C3.57461 10.9681 3.39886 10.3238 3.39806 9.66732C3.39806 8.67704 3.79178 7.72732 4.49263 7.02708C5.19347 6.32685 6.14401 5.93346 7.13515 5.93346C8.12629 5.93346 9.07683 6.32685 9.77767 7.02708C10.4785 7.72732 10.8722 8.67704 10.8722 9.66732C10.8714 10.3238 10.6957 10.9681 10.3631 11.5342Z" fill="#A1ABBD" stroke="#A1ABBD" stroke-width="0.4"/>
<path d="M13 6.7998H15" stroke="#A1ABBD" stroke-width="1.5" stroke-linecap="round"/>
<path d="M13 9.7998H15" stroke="#A1ABBD" stroke-width="1.5" stroke-linecap="round"/>
<path d="M13 12.7998H15" stroke="#A1ABBD" stroke-width="1.5" stroke-linecap="round"/>
<rect x="0.75" y="2.75" width="16.5" height="13.5" rx="2.25" stroke="#A1ABBD" stroke-width="1.5"/>
</svg>
