<svg width="20" height="20" viewBox="0 0 20 20" fill="none" xmlns="http://www.w3.org/2000/svg">
<path d="M9.85146 17.703C8.79178 17.703 7.76349 17.4953 6.79513 17.0857C5.8601 16.6902 5.0205 16.1242 4.29964 15.4033C3.57876 14.6825 3.01272 13.8429 2.61725 12.9078C2.20768 11.9395 2 10.9112 2 9.85148C2 8.7918 2.20768 7.76349 2.61725 6.79513C3.01272 5.86012 3.57876 5.0205 4.29964 4.29964C5.0205 3.57878 5.8601 3.01272 6.79513 2.61725C7.76349 2.20766 8.79178 2 9.85146 2C10.9111 2 11.9394 2.20768 12.9078 2.61725C13.8428 3.01272 14.6824 3.57878 15.4033 4.29964C16.1242 5.0205 16.6902 5.86012 17.0857 6.79513C17.4953 7.76349 17.703 8.79178 17.703 9.85148C17.703 10.9112 17.4953 11.9394 17.0857 12.9078C16.6902 13.8429 16.1242 14.6825 15.4033 15.4033C14.6824 16.1242 13.8428 16.6902 12.9078 17.0857C11.9394 17.4953 10.9111 17.703 9.85146 17.703ZM9.85146 3.21075C6.18974 3.21075 3.21072 6.18978 3.21072 9.8515C3.21072 13.5132 6.18974 16.4922 9.85146 16.4922C13.5132 16.4922 16.4922 13.5132 16.4922 9.8515C16.4922 6.18978 13.5132 3.21075 9.85146 3.21075Z" fill="#A1ABBD" stroke="#A1ABBD" stroke-width="0.5"/>
<path d="M5.91406 7.95831C5.91406 8.06466 5.93501 8.16997 5.97571 8.26823C6.01641 8.36649 6.07606 8.45577 6.15127 8.53097C6.22647 8.60617 6.31575 8.66583 6.41401 8.70653C6.51226 8.74723 6.61758 8.76817 6.72393 8.76817C6.83028 8.76817 6.9356 8.74723 7.03385 8.70653C7.13211 8.66583 7.22139 8.60617 7.29659 8.53097C7.3718 8.45577 7.43145 8.36649 7.47215 8.26823C7.51285 8.16997 7.5338 8.06466 7.5338 7.95831C7.5338 7.85195 7.51285 7.74664 7.47215 7.64838C7.43145 7.55012 7.3718 7.46085 7.29659 7.38564C7.22139 7.31044 7.13211 7.25078 7.03385 7.21008C6.9356 7.16938 6.83028 7.14844 6.72393 7.14844C6.61758 7.14844 6.51226 7.16938 6.41401 7.21008C6.31575 7.25078 6.22647 7.31044 6.15127 7.38564C6.07606 7.46085 6.01641 7.55012 5.97571 7.64838C5.93501 7.74664 5.91406 7.85195 5.91406 7.95831Z" fill="#A1ABBD" stroke="#A1ABBD" stroke-width="0.5"/>
<path d="M12.1836 7.97784C12.1836 8.19263 12.2689 8.39862 12.4208 8.5505C12.5727 8.70238 12.7787 8.78771 12.9935 8.78771C13.2083 8.78771 13.4142 8.70238 13.5661 8.5505C13.718 8.39862 13.8033 8.19263 13.8033 7.97784C13.8033 7.76305 13.718 7.55705 13.5661 7.40517C13.4142 7.25329 13.2083 7.16797 12.9935 7.16797C12.7787 7.16797 12.5727 7.25329 12.4208 7.40517C12.2689 7.55705 12.1836 7.76305 12.1836 7.97784Z" fill="#A1ABBD" stroke="#A1ABBD" stroke-width="0.5"/>
<path d="M6.84376 13.461C6.59128 13.461 6.35572 13.3018 6.27034 13.0494C6.16325 12.7327 6.33317 12.3891 6.64989 12.282C6.68288 12.2708 7.47132 12.0073 8.64747 11.8754C9.73426 11.7535 11.3802 11.7249 13.0498 12.2811C13.367 12.3868 13.5385 12.7296 13.4328 13.0468C13.3271 13.364 12.9842 13.5355 12.6671 13.4298C9.86244 12.4955 7.06565 13.4195 7.03772 13.4289C6.97525 13.4501 6.90973 13.461 6.84376 13.461Z" fill="#A1ABBD" stroke="#A1ABBD" stroke-width="0.5"/>
</svg>
