<svg width="20" height="20" viewBox="0 0 20 20" fill="none" xmlns="http://www.w3.org/2000/svg">
<path d="M10.0001 1.5C14.6873 1.5 18.5 5.31333 18.5 10C18.5 14.6872 14.6873 18.5 10.0001 18.5C5.31249 18.5 1.49976 14.6867 1.49976 10C1.49976 5.31333 5.31249 1.5 10.0001 1.5ZM10.0001 17.1475C13.9416 17.1475 17.147 13.9415 17.147 10C17.147 6.05954 13.9416 2.85301 10.0001 2.85301C6.05869 2.85301 2.85275 6.05954 2.85275 10C2.85275 13.9415 6.05869 17.1475 10.0001 17.1475Z" fill="#A1ABBD" stroke="#A1ABBD" stroke-width="0.2"/>
<path d="M9.1747 11.055C9.1747 11.3268 9.12117 11.5958 9.01718 11.8469C8.91319 12.098 8.76077 12.3261 8.56862 12.5182C8.37647 12.7104 8.14835 12.8628 7.8973 12.9668C7.64624 13.0708 7.37716 13.1243 7.10542 13.1243C6.83367 13.1243 6.56459 13.0708 6.31354 12.9668C6.06248 12.8628 5.83437 12.7104 5.64221 12.5182C5.45006 12.3261 5.29764 12.098 5.19365 11.8469C5.08966 11.5958 5.03614 11.3268 5.03614 11.055C5.03614 10.7833 5.08966 10.5142 5.19365 10.2631C5.29764 10.0121 5.45007 9.78393 5.64222 9.59178C5.83437 9.39963 6.06248 9.2472 6.31354 9.14321C6.56459 9.03921 6.83367 8.98569 7.10542 8.98569C7.37716 8.98569 7.64624 9.03921 7.8973 9.14321C8.14835 9.2472 8.37647 9.39963 8.56862 9.59178C8.76077 9.78393 8.91319 10.0121 9.01718 10.2631C9.12117 10.5142 9.1747 10.7833 9.1747 11.055ZM13.2534 5.70278C13.2534 6.11035 13.0915 6.50123 12.8033 6.78943C12.5151 7.07763 12.1243 7.23954 11.7167 7.23954C11.3091 7.23954 10.9183 7.07763 10.6301 6.78943C10.3419 6.50123 10.18 6.11035 10.18 5.70278C10.18 5.2952 10.3419 4.90432 10.6301 4.61612C10.9183 4.32792 11.3091 4.16602 11.7167 4.16602C12.1243 4.16602 12.5151 4.32792 12.8033 4.61612C13.0915 4.90432 13.2534 5.2952 13.2534 5.70278ZM15.2266 10.844C15.2266 11.3369 15.0308 11.8095 14.6823 12.158C14.3338 12.5066 13.8611 12.7023 13.3683 12.7023C12.8754 12.7023 12.4028 12.5066 12.0543 12.158C11.7058 11.8095 11.51 11.3369 11.51 10.844C11.51 10.3512 11.7058 9.87848 12.0543 9.52998C12.4028 9.18148 12.8754 8.98569 13.3683 8.98569C13.8611 8.98569 14.3338 9.18148 14.6823 9.52998C15.0308 9.87848 15.2266 10.3512 15.2266 10.844ZM10.8893 14.4976C10.8893 14.7053 10.8068 14.9045 10.6599 15.0513C10.5131 15.1982 10.3139 15.2807 10.1062 15.2807C9.89856 15.2807 9.69939 15.1982 9.55254 15.0513C9.40569 14.9045 9.32319 14.7053 9.32319 14.4976C9.32319 14.2899 9.40569 14.0908 9.55254 13.9439C9.69939 13.7971 9.89856 13.7146 10.1062 13.7146C10.3139 13.7146 10.5131 13.7971 10.6599 13.9439C10.8068 14.0908 10.8893 14.2899 10.8893 14.4976ZM7.62567 6.78711C7.62567 7.01137 7.53659 7.22644 7.37802 7.38502C7.21945 7.54359 7.00438 7.63268 6.78012 7.63268C6.55587 7.63268 6.3408 7.54359 6.18223 7.38502C6.02366 7.22644 5.93457 7.01137 5.93457 6.78711C5.93457 6.56285 6.02366 6.34778 6.18223 6.18921C6.3408 6.03063 6.55587 5.94154 6.78012 5.94154C7.00438 5.94154 7.21945 6.03063 7.37802 6.18921C7.53659 6.34778 7.62567 6.56285 7.62567 6.78711ZM10.5747 8.91679C10.5747 9.10676 10.4992 9.28895 10.3649 9.42329C10.2306 9.55762 10.0484 9.63309 9.8584 9.63309C9.66843 9.63309 9.48624 9.55762 9.35191 9.42329C9.21758 9.28895 9.14211 9.10676 9.14211 8.91679C9.14211 8.72681 9.21758 8.54462 9.35191 8.41028C9.48624 8.27595 9.66843 8.20048 9.8584 8.20048C10.0484 8.20048 10.2306 8.27595 10.3649 8.41028C10.4992 8.54462 10.5747 8.72681 10.5747 8.91679Z" fill="#A1ABBD"/>
</svg>
