<svg width="20" height="20" viewBox="0 0 20 20" fill="none" xmlns="http://www.w3.org/2000/svg">
<path d="M9.52542 2C7.35287 2.00622 5.26567 2.84908 3.69492 4.3545V2.85C3.69492 2.62457 3.60563 2.40837 3.4467 2.24896C3.28777 2.08955 3.07222 2 2.84746 2C2.6227 2 2.40714 2.08955 2.24821 2.24896C2.08929 2.40837 2 2.62457 2 2.85V6.675C2 6.90043 2.08929 7.11663 2.24821 7.27604C2.40714 7.43545 2.6227 7.525 2.84746 7.525H6.66102C6.88578 7.525 7.10133 7.43545 7.26026 7.27604C7.41919 7.11663 7.50847 6.90043 7.50847 6.675C7.50847 6.44957 7.41919 6.23337 7.26026 6.07396C7.10133 5.91455 6.88578 5.825 6.66102 5.825H4.62712C5.39975 5.00646 6.36314 4.3934 7.43062 4.04097C8.49809 3.68854 9.63618 3.60779 10.7425 3.806C11.8488 4.0042 12.8886 4.47514 13.7685 5.17644C14.6483 5.87775 15.3405 6.78742 15.7828 7.82363C16.2251 8.85984 16.4037 9.99009 16.3024 11.1127C16.2012 12.2353 15.8233 13.3151 15.2028 14.2548C14.5822 15.1946 13.7385 15.9649 12.7475 16.4965C11.7565 17.028 10.6492 17.3041 9.52542 17.3C9.30066 17.3 9.08511 17.3896 8.92618 17.549C8.76725 17.7084 8.67797 17.9246 8.67797 18.15C8.67797 18.3754 8.76725 18.5916 8.92618 18.751C9.08511 18.9104 9.30066 19 9.52542 19C11.773 19 13.9286 18.1045 15.5179 16.5104C17.1071 14.9163 18 12.7543 18 10.5C18 8.24566 17.1071 6.08365 15.5179 4.48959C13.9286 2.89553 11.773 2 9.52542 2ZM9.52542 7.1C9.30066 7.1 9.08511 7.18955 8.92618 7.34896C8.76725 7.50836 8.67797 7.72457 8.67797 7.95V10.5C8.67797 10.7254 8.76725 10.9416 8.92618 11.101C9.08511 11.2604 9.30066 11.35 9.52542 11.35H11.2203C11.4451 11.35 11.6607 11.2604 11.8196 11.101C11.9785 10.9416 12.0678 10.7254 12.0678 10.5C12.0678 10.2746 11.9785 10.0584 11.8196 9.89896C11.6607 9.73955 11.4451 9.65 11.2203 9.65H10.3729V7.95C10.3729 7.72457 10.2836 7.50836 10.1247 7.34896C9.96574 7.18955 9.75018 7.1 9.52542 7.1Z" fill="#A1ABBD" stroke="#A1ABBD" stroke-width="0.2"/>
</svg>
