<svg width="19" height="19" viewBox="0 0 19 19" fill="none" xmlns="http://www.w3.org/2000/svg">
<path d="M11.873 9.73655C12.4075 9.16254 12.7086 8.40974 12.7174 7.62544C12.7174 6.77887 12.3811 5.96697 11.7825 5.36836C11.1839 4.76974 10.372 4.43344 9.52544 4.43344C8.67887 4.43344 7.86697 4.76974 7.26836 5.36836C6.66974 5.96697 6.33344 6.77887 6.33344 7.62544C6.34225 8.40974 6.64337 9.16254 7.17789 9.73655C6.43364 10.1072 5.79318 10.6569 5.31413 11.3365C4.83507 12.016 4.53243 12.8039 4.43344 13.6294C4.40881 13.8534 4.47415 14.078 4.61509 14.2538C4.75604 14.4295 4.96104 14.5421 5.185 14.5668C5.40896 14.5914 5.63353 14.5261 5.80932 14.3851C5.9851 14.2442 6.0977 14.0392 6.12233 13.8152C6.2231 12.9971 6.61958 12.244 7.23707 11.6979C7.85456 11.1518 8.65044 10.8504 9.47478 10.8504C10.2991 10.8504 11.095 11.1518 11.7125 11.6979C12.33 12.244 12.7264 12.9971 12.8272 13.8152C12.8507 14.0317 12.9569 14.2308 13.1237 14.3709C13.2905 14.5109 13.505 14.5811 13.7223 14.5668H13.8152C14.0366 14.5413 14.2389 14.4294 14.3781 14.2554C14.5173 14.0814 14.5821 13.8594 14.5583 13.6379C14.4667 12.8167 14.1736 12.0309 13.7051 11.3503C13.2366 10.6697 12.6073 10.1154 11.873 9.73655V9.73655ZM9.50011 9.12855C9.20282 9.12855 8.91221 9.0404 8.66502 8.87523C8.41784 8.71007 8.22518 8.47532 8.11142 8.20066C7.99765 7.926 7.96788 7.62377 8.02588 7.3322C8.08388 7.04062 8.22703 6.7728 8.43725 6.56258C8.64746 6.35237 8.91529 6.20921 9.20687 6.15121C9.49844 6.09322 9.80067 6.12298 10.0753 6.23675C10.35 6.35052 10.5847 6.54317 10.7499 6.79036C10.9151 7.03754 11.0032 7.32815 11.0032 7.62544C11.0032 8.02409 10.8449 8.40641 10.563 8.6883C10.2811 8.97019 9.89876 9.12855 9.50011 9.12855V9.12855ZM15.4112 1.05566H3.589C2.91712 1.05566 2.27275 1.32257 1.79766 1.79766C1.32257 2.27275 1.05566 2.91712 1.05566 3.589V15.4112C1.05566 16.0831 1.32257 16.7275 1.79766 17.2026C2.27275 17.6776 2.91712 17.9446 3.589 17.9446H15.4112C16.0831 17.9446 16.7275 17.6776 17.2026 17.2026C17.6776 16.7275 17.9446 16.0831 17.9446 15.4112V3.589C17.9446 2.91712 17.6776 2.27275 17.2026 1.79766C16.7275 1.32257 16.0831 1.05566 15.4112 1.05566ZM16.2557 15.4112C16.2557 15.6352 16.1667 15.85 16.0083 16.0083C15.85 16.1667 15.6352 16.2557 15.4112 16.2557H3.589C3.36504 16.2557 3.15025 16.1667 2.99189 16.0083C2.83352 15.85 2.74455 15.6352 2.74455 15.4112V3.589C2.74455 3.36504 2.83352 3.15025 2.99189 2.99189C3.15025 2.83352 3.36504 2.74455 3.589 2.74455H15.4112C15.6352 2.74455 15.85 2.83352 16.0083 2.99189C16.1667 3.15025 16.2557 3.36504 16.2557 3.589V15.4112Z" fill="#A1ABBD"/>
</svg>
