<svg width="20" height="20" viewBox="0 0 20 20" fill="none" xmlns="http://www.w3.org/2000/svg">
<path d="M16.6712 3.3288C15.8202 2.47797 14.6661 2 13.4627 2C12.2593 2 11.1052 2.47797 10.2542 3.3288L3.37638 10.2067C2.94487 10.6257 2.60099 11.1264 2.36472 11.6796C2.12845 12.2327 2.00452 12.8274 2.00012 13.4289C1.99573 14.0304 2.11096 14.6267 2.33911 15.1833C2.56727 15.7399 2.9038 16.2455 3.32914 16.6709C3.75447 17.0962 4.26013 17.4327 4.81669 17.6609C5.37326 17.889 5.96963 18.0043 6.57113 17.9999C7.17263 17.9955 7.76725 17.8715 8.32042 17.6353C8.8736 17.399 9.37427 17.0551 9.79335 16.6236L16.6712 9.74576C17.522 8.89476 18 7.74066 18 6.53728C18 5.3339 17.522 4.1798 16.6712 3.3288ZM8.53477 15.3739C8.00655 15.8732 7.30727 16.1514 6.58043 16.1514C5.85359 16.1514 5.15432 15.8732 4.62609 15.3739C4.11029 14.8542 3.82083 14.1518 3.82083 13.4196C3.82083 12.6874 4.11029 11.9849 4.62609 11.4652L7.4446 8.64673L11.3533 12.5554L8.53477 15.3739ZM15.4215 8.48719L12.603 11.3057L8.69431 7.39701L11.5128 4.57851C12.0367 4.08777 12.7308 3.81995 13.4485 3.83165C14.1662 3.84336 14.8512 4.13367 15.3588 4.64123C15.8663 5.14879 16.1566 5.83382 16.1683 6.55152C16.18 7.26922 15.9122 7.96335 15.4215 8.48719Z" fill="#A1ABBD"/>
</svg>
