<svg width="20" height="20" viewBox="0 0 20 20" fill="none" xmlns="http://www.w3.org/2000/svg">
<path d="M10.0001 2.00012C11.5207 2.00012 13.0393 2.41295 14.3552 3.30398L15.6344 2.13951L15.495 5.13004L12.5044 4.99065L13.4601 4.11964C12.413 3.53073 11.2059 3.18393 10.0001 3.18393C9.09469 3.18005 8.19752 3.35548 7.36031 3.70012C6.5231 4.04475 5.76242 4.55176 5.12216 5.19189C4.4819 5.83202 3.97474 6.59259 3.62995 7.42973C3.28515 8.26687 3.10953 9.164 3.11324 10.0694C3.10936 10.9748 3.28484 11.8721 3.62956 12.7094C3.97428 13.5467 4.48141 14.3074 5.12169 14.9477C5.76196 15.588 6.5227 16.0951 7.36 16.4398C8.1973 16.7845 9.09458 16.96 10.0001 16.9561V16.8868C10.2788 16.8868 10.5556 16.8868 10.7644 16.8167L10.9044 17.9305C10.6256 17.9999 10.2788 17.9999 10.0001 17.9999C8.94789 18.0056 7.90502 17.8026 6.93183 17.4026C5.95863 17.0026 5.07444 16.4136 4.33043 15.6696C3.58642 14.9256 2.99737 14.0414 2.59737 13.0682C2.19737 12.095 1.99437 11.0522 2.00012 10C1.99437 8.94783 2.19737 7.90498 2.59737 6.93179C2.99737 5.9586 3.58642 5.07442 4.33043 4.33041C5.07444 3.58641 5.95863 2.99736 6.93183 2.59736C7.90502 2.19737 8.94789 1.99437 10.0001 2.00012ZM13.4081 15.9811L13.9643 16.9548C13.5482 17.2336 13.06 17.4417 12.5044 17.6511L12.1563 16.5386C12.5744 16.3986 13.0593 16.1898 13.4081 15.9811ZM15.565 14.1037L16.4687 14.7986C16.1206 15.2161 15.7738 15.6343 15.3556 15.9831L14.5913 15.1467C14.9394 14.7986 15.2862 14.4518 15.565 14.1037ZM16.7475 11.5293L17.8606 11.8081C17.7057 12.329 17.5195 12.8401 17.303 13.3387L16.26 12.8511C16.4687 12.433 16.6081 11.9474 16.7475 11.5293ZM9.26643 5.99839C9.42562 5.99839 9.5783 6.06163 9.69086 6.1742C9.80343 6.28677 9.86667 6.43944 9.86667 6.59863V10.1334H13.4015C13.4803 10.1334 13.5583 10.1489 13.6312 10.1791C13.704 10.2092 13.7702 10.2535 13.8259 10.3092C13.8816 10.3649 13.9258 10.4311 13.956 10.5039C13.9862 10.5768 14.0017 10.6548 14.0017 10.7336C14.0017 10.8125 13.9862 10.8905 13.956 10.9633C13.9258 11.0362 13.8816 11.1023 13.8259 11.1581C13.7702 11.2138 13.704 11.258 13.6312 11.2882C13.5583 11.3183 13.4803 11.3339 13.4015 11.3339H9.26643C9.10723 11.3339 8.95456 11.2706 8.84199 11.1581C8.72942 11.0455 8.66618 10.8928 8.66618 10.7336V6.59863C8.66618 6.43944 8.72942 6.28677 8.84199 6.1742C8.95456 6.06163 9.10723 5.99839 9.26643 5.99839ZM17.8606 8.53875C17.93 9.02628 18 9.51247 18 10V10.1394H16.8862V10C16.8862 9.58183 16.8168 9.16633 16.7475 8.7475L17.8606 8.53875ZM16.6081 5.61757C16.9562 5.82699 17.3724 6.66133 17.4418 7.00947L16.4687 7.35627C16.3993 7.07749 15.9131 6.45191 15.7044 6.31252L16.6081 5.61757Z" fill="#A1ABBD" stroke="#A1ABBD" stroke-width="0.5"/>
</svg>
