<svg width="18" height="18" viewBox="0 0 18 18" fill="none" xmlns="http://www.w3.org/2000/svg">
<path d="M14.4614 4.24756H3.53864C2.13893 4.24756 1 5.38649 1 6.7862V13.8859C1 15.2856 2.13893 16.4245 3.53864 16.4245H14.4614C15.8611 16.4245 17 15.2856 17 13.8859V6.7862C17 5.38649 15.8611 4.24756 14.4614 4.24756ZM14.4614 15.6528H3.53864C2.5647 15.6528 1.7717 14.8598 1.7717 13.8859V6.7862C1.7717 5.81226 2.5647 5.01926 3.53864 5.01926H14.4614C15.4353 5.01926 16.2283 5.81226 16.2283 6.7862V8.47153C15.7369 7.95883 15.0486 7.63596 14.2822 7.63596H13.2107C11.7205 7.63596 10.5088 8.84763 10.5088 10.3378C10.5088 11.828 11.7205 13.0397 13.2107 13.0397H14.2822C15.0468 13.0397 15.7351 12.7168 16.2283 12.2041V13.8877C16.2265 14.8598 15.4353 15.6528 14.4614 15.6528ZM16.2106 10.336C16.2106 11.4005 15.3448 12.2662 14.2804 12.2662H13.2089C12.1445 12.2662 11.2787 11.4005 11.2787 10.336C11.2787 9.27162 12.1445 8.40589 13.2089 8.40589H14.2804C15.3448 8.40766 16.2106 9.27162 16.2106 10.336Z" fill="#A1ABBD" stroke="#A1ABBD" stroke-width="0.7"/>
<path d="M14.3301 9.25879C13.75 9.25879 13.2764 9.73068 13.2764 10.3126C13.2764 10.8945 13.7483 11.3663 14.3301 11.3663C14.912 11.3663 15.3839 10.8945 15.3839 10.3126C15.3839 9.73068 14.912 9.25879 14.3301 9.25879ZM14.3301 10.5929C14.1776 10.5929 14.0481 10.4634 14.0481 10.3108C14.0481 10.1547 14.174 10.0287 14.3301 10.0287C14.4863 10.0287 14.6122 10.1547 14.6122 10.3108C14.6122 10.4669 14.4863 10.5929 14.3301 10.5929Z" fill="#A1ABBD" stroke="#A1ABBD" stroke-width="0.2"/>
<path fill-rule="evenodd" clip-rule="evenodd" d="M2.67676 2.41922C2.67676 2.18769 2.86445 2 3.09598 2H14.9738C15.2053 2 15.393 2.18769 15.393 2.41922C15.393 2.65075 15.2053 2.83844 14.9738 2.83844H3.09598C2.86445 2.83844 2.67676 2.65075 2.67676 2.41922Z" fill="#A1ABBD" stroke="#A1ABBD" stroke-width="0.7" stroke-linecap="round" stroke-linejoin="round"/>
</svg>
