<svg width="20" height="20" viewBox="0 0 20 20" fill="none" xmlns="http://www.w3.org/2000/svg">
<path d="M10.0022 7.66073C8.16388 7.66073 6.67188 6.16872 6.67188 4.33036C6.67188 2.492 8.16388 1 10.0022 1C11.8406 1 13.3326 2.492 13.3326 4.33036C13.3326 6.16872 11.8406 7.66073 10.0022 7.66073ZM10.0022 2.33215C8.901 2.33215 8.00402 3.22912 8.00402 4.33036C8.00402 5.4316 8.901 6.32858 10.0022 6.32858C11.1035 6.32858 12.0005 5.4316 12.0005 4.33036C12.0005 3.22912 11.1035 2.33215 10.0022 2.33215Z" fill="#A1ABBD" stroke="#A1ABBD" stroke-width="0.5"/>
<path d="M13.1118 19.1752C12.7477 19.1752 12.4457 18.8732 12.4457 18.5091V15.2739C12.4457 15.043 12.5701 14.821 12.7654 14.7055L14.5416 13.6398L12.9875 9.62925C12.5345 9.32729 11.2379 8.54577 10.0035 8.54577C8.76013 8.54577 7.46351 9.33617 7.01058 9.62925L5.44753 13.2668L7.30365 14.7499C7.46351 14.8743 7.55232 15.0696 7.55232 15.2739V18.5091C7.55232 18.8732 7.25036 19.1752 6.88624 19.1752C6.52212 19.1752 6.22017 18.8732 6.22017 18.5091V15.5936L4.24859 14.0217C4.14224 13.9371 4.06466 13.8218 4.0265 13.6914C3.98833 13.561 3.99146 13.422 4.03545 13.2934L5.81165 9.00758C5.86 8.87817 5.94294 8.76451 6.05143 8.67898C6.13136 8.61682 8.03189 7.21362 10.0035 7.21362C11.975 7.21362 13.8756 8.61682 13.9555 8.67898C14.071 8.75891 14.1509 8.88325 14.1953 9.01646L15.9715 13.7464C16.0603 14.0394 15.936 14.3592 15.6784 14.5101L13.7779 15.6469V18.5091C13.7779 18.8732 13.4759 19.1752 13.1118 19.1752Z" fill="#A1ABBD" stroke="#A1ABBD" stroke-width="0.5"/>
</svg>
