<svg width="20" height="20" viewBox="0 0 20 20" fill="none" xmlns="http://www.w3.org/2000/svg">
<path d="M17.4284 2.2465C17.3509 2.16839 17.2588 2.1064 17.1572 2.06409C17.0557 2.02178 16.9468 2 16.8367 2C16.7267 2 16.6178 2.02178 16.5163 2.06409C16.4147 2.1064 16.3225 2.16839 16.2451 2.2465L14.4784 4.01316L13.8867 3.42983C13.7306 3.27462 13.5194 3.1875 13.2992 3.1875C13.0791 3.1875 12.8679 3.27462 12.7117 3.42983L11.5367 4.60483L10.9451 4.01316C10.8676 3.93506 10.7754 3.87306 10.6739 3.83076C10.5723 3.78845 10.4634 3.76667 10.3534 3.76667C10.2434 3.76667 10.1345 3.78845 10.0329 3.83076C9.93138 3.87306 9.83921 3.93506 9.76174 4.01316L3.28674 10.4965L2.67008 9.91317C2.50833 9.80013 2.31172 9.74815 2.11524 9.7665C1.91877 9.78484 1.73518 9.87231 1.59715 10.0133C1.45913 10.1544 1.37562 10.3398 1.36151 10.5366C1.3474 10.7334 1.40359 10.9289 1.52008 11.0882L4.46174 14.0382L3.02008 15.4882L2.42841 14.8882C2.27149 14.7312 2.05866 14.6431 1.83674 14.6431C1.61482 14.6431 1.402 14.7312 1.24508 14.8882C1.08816 15.0451 1 15.2579 1 15.4798C1 15.7017 1.08816 15.9146 1.24508 16.0715L3.60341 18.4298C3.68128 18.5071 3.77362 18.5682 3.87515 18.6096C3.97669 18.6511 4.0854 18.6721 4.19508 18.6715C4.30475 18.6721 4.41347 18.6511 4.515 18.6096C4.61653 18.5682 4.70888 18.5071 4.78674 18.4298C4.86485 18.3524 4.92685 18.2602 4.96915 18.1586C5.01146 18.0571 5.03324 17.9482 5.03324 17.8382C5.03324 17.7282 5.01146 17.6192 4.96915 17.5177C4.92685 17.4161 4.86485 17.324 4.78674 17.2465L4.19508 16.6632L5.64508 15.2132L8.58674 18.1548C8.66392 18.2336 8.75596 18.2962 8.85752 18.3391C8.95908 18.382 9.06815 18.4044 9.17841 18.4048C9.34322 18.4041 9.50412 18.3546 9.64078 18.2625C9.77743 18.1703 9.88369 18.0397 9.94613 17.8872C10.0086 17.7347 10.0244 17.5671 9.99156 17.4056C9.95874 17.244 9.87876 17.0959 9.76174 16.9798L9.17841 16.3882L15.6617 9.91317C15.7398 9.8357 15.8018 9.74353 15.8442 9.64198C15.8865 9.54043 15.9082 9.43151 15.9082 9.3215C15.9082 9.21149 15.8865 9.10257 15.8442 9.00102C15.8018 8.89947 15.7398 8.8073 15.6617 8.72983L15.0701 8.13816L16.2451 7.00483C16.4003 6.8487 16.4874 6.63749 16.4874 6.41733C16.4874 6.19718 16.4003 5.98597 16.2451 5.82983L15.6617 5.23817L17.4284 3.4715C17.513 3.39346 17.5805 3.29875 17.6267 3.19334C17.6728 3.08792 17.6967 2.97408 17.6967 2.859C17.6967 2.74391 17.6728 2.63008 17.6267 2.52466C17.5805 2.41924 17.513 2.32453 17.4284 2.2465ZM5.64508 12.8382L4.46174 11.6798L5.63674 10.4965L6.83674 11.6798L5.64508 12.8382ZM7.99508 15.1965L6.83674 14.0382L7.99508 12.8382L9.17841 14.0215L7.99508 15.1965ZM10.3534 12.8382L6.83674 9.3215L10.3701 5.78817L10.9617 6.3715L13.9034 9.3215L10.3534 12.8382ZM13.8867 7.00483L12.7117 5.78817L13.3034 5.1965L13.8867 5.77983L14.4701 6.36317L13.8867 7.00483Z" fill="#A1ABBD"/>
</svg>
