<svg width="20" height="20" viewBox="0 0 20 20" fill="none" xmlns="http://www.w3.org/2000/svg">
<path d="M17.6667 7.36167C17.6571 7.27746 17.6387 7.1945 17.6117 7.11417V7.03167C17.5676 6.93742 17.5088 6.85078 17.4375 6.775L11.9375 1.275C11.8617 1.2037 11.7751 1.14491 11.6808 1.10083H11.5892C11.5 1.05317 11.4042 1.01918 11.305 1H5.75C5.02065 1 4.32118 1.28973 3.80546 1.80546C3.28973 2.32118 3 3.02065 3 3.75V16.5833C3 17.3127 3.28973 18.0122 3.80546 18.5279C4.32118 19.0436 5.02065 19.3333 5.75 19.3333H14.9167C15.646 19.3333 16.3455 19.0436 16.8612 18.5279C17.3769 18.0122 17.6667 17.3127 17.6667 16.5833V7.41667C17.6667 7.41667 17.6667 7.41667 17.6667 7.36167ZM12.1667 4.12583L14.5408 6.5H13.0833C12.8402 6.5 12.6071 6.40342 12.4352 6.23152C12.2632 6.05961 12.1667 5.82645 12.1667 5.58333V4.12583ZM15.8333 16.5833C15.8333 16.8265 15.7368 17.0596 15.5648 17.2315C15.3929 17.4034 15.1598 17.5 14.9167 17.5H5.75C5.50688 17.5 5.27373 17.4034 5.10182 17.2315C4.92991 17.0596 4.83333 16.8265 4.83333 16.5833V3.75C4.83333 3.50689 4.92991 3.27373 5.10182 3.10182C5.27373 2.92991 5.50688 2.83333 5.75 2.83333H10.3333V5.58333C10.3333 6.31268 10.6231 7.01215 11.1388 7.52788C11.6545 8.0436 12.354 8.33333 13.0833 8.33333H15.8333V16.5833Z" fill="#A1ABBD" stroke="white" stroke-width="0.2"/>
<path d="M14.2483 11.1743C14.2235 11.0991 14.1784 11.0331 14.1185 10.9843C14.0586 10.9354 13.9865 10.9058 13.9109 10.899L11.6785 10.558L10.6781 8.43392C10.646 8.36445 10.5958 8.30587 10.5334 8.26488C10.4709 8.22389 10.3987 8.20215 10.325 8.20215C10.2513 8.20215 10.1791 8.22389 10.1167 8.26488C10.0542 8.30587 10.0041 8.36445 9.97194 8.43392L8.97151 10.5539L6.7392 10.899C6.66659 10.9098 6.59832 10.9417 6.54215 10.9911C6.48598 11.0405 6.44415 11.1054 6.42141 11.1784C6.4006 11.2497 6.39873 11.3257 6.41601 11.3981C6.43329 11.4705 6.46906 11.5365 6.51949 11.5892L8.13979 13.2326L7.74747 15.5663C7.73346 15.6433 7.74079 15.7229 7.7686 15.7957C7.79641 15.8685 7.84353 15.9315 7.9044 15.9771C7.96372 16.0215 8.03369 16.0478 8.10646 16.0528C8.17923 16.0579 8.2519 16.0417 8.31633 16.0059L10.325 14.9089L12.3259 16.01C12.3809 16.0425 12.4431 16.0595 12.5063 16.0593C12.5894 16.0596 12.6705 16.0323 12.7378 15.9812C12.7987 15.9356 12.8458 15.8726 12.8736 15.7998C12.9014 15.727 12.9088 15.6474 12.8947 15.5704L12.5024 13.2368L14.1227 11.5934C14.1794 11.5431 14.2212 11.477 14.2435 11.4029C14.2657 11.3287 14.2673 11.2494 14.2483 11.1743ZM11.8355 12.8177C11.7895 12.8643 11.755 12.922 11.7352 12.9857C11.7154 13.0494 11.7107 13.1173 11.7217 13.1833L12.0042 14.9048L10.529 14.0831C10.4723 14.0514 10.409 14.0349 10.3446 14.0349C10.2803 14.0349 10.217 14.0514 10.1603 14.0831L8.68512 14.9048L8.96759 13.1833C8.97855 13.1173 8.97391 13.0494 8.95408 12.9857C8.93425 12.922 8.89983 12.8643 8.85382 12.8177L7.67685 11.5851L9.32853 11.3345C9.39208 11.3253 9.4525 11.2998 9.50448 11.2604C9.55647 11.221 9.59843 11.1689 9.62669 11.1085L10.325 9.54321L11.0626 11.1127C11.0909 11.173 11.1328 11.2251 11.1848 11.2645C11.2368 11.3039 11.2972 11.3294 11.3608 11.3386L13.0124 11.5892L11.8355 12.8177Z" fill="#A1ABBD" stroke="#A1ABBD" stroke-width="0.6"/>
</svg>
