<svg width="20" height="21" viewBox="0 0 20 21" fill="none" xmlns="http://www.w3.org/2000/svg">
<ellipse cx="12.4164" cy="2.50216" rx="1.6547" ry="1.50216" stroke="#A1ABBD" stroke-width="1.6"/>
<path d="M10.1206 4.81951L11.7164 5.4231C11.9068 5.49515 12.0708 5.62363 12.1863 5.79136L12.7987 6.68088C12.8838 6.80451 12.9972 6.90602 13.1295 6.97697L16.2109 8.62998C16.641 8.8607 16.8211 9.38356 16.6243 9.8302C16.4124 10.3112 15.8456 10.5228 15.3703 10.2984L12.4485 8.91917C12.0148 8.71442 11.4988 8.92585 11.3335 9.37609L11.096 10.0228C10.9776 10.3453 11.0331 10.706 11.2428 10.9781L13.2717 13.6092C13.4066 13.7842 13.4797 13.9989 13.4797 14.2199V18.025C13.4797 18.6851 12.9447 19.2201 12.2847 19.2201C11.6247 19.2201 11.0896 18.6851 11.0896 18.025V14.6498C11.0896 14.3735 10.9646 14.112 10.7496 13.9385L9.88179 13.2382C9.64561 13.0477 9.2955 13.1097 9.13921 13.3698L8.37205 14.6466C8.34526 14.6912 8.31503 14.7337 8.28164 14.7735L5.46522 18.1377C5.10662 18.5661 4.48609 18.6623 4.01461 18.3627C3.46731 18.0149 3.33194 17.2748 3.7207 16.7558L6.03215 13.6699C6.09399 13.5874 6.14176 13.4952 6.17355 13.3971L7.77562 8.45217C7.88298 8.12081 7.72444 7.76167 7.40727 7.6177C7.30456 7.57108 7.1832 7.60648 7.12167 7.70102L5.30613 10.4902C5.03724 10.9033 4.5069 11.058 4.05808 10.8543C3.50165 10.6017 3.30114 9.91272 3.63515 9.40103L5.76857 6.13276C5.88039 5.96147 6.04902 5.83509 6.24481 5.77584L9.47722 4.79769C9.68824 4.73384 9.91444 4.74151 10.1206 4.81951Z" stroke="#A1ABBD" stroke-width="1.6" stroke-linejoin="round"/>
</svg>
