<svg width="18" height="18" viewBox="0 0 18 18" fill="none" xmlns="http://www.w3.org/2000/svg">
<path d="M14.0094 14.1692C14.0094 14.3325 13.9453 14.489 13.8312 14.6045C13.7171 14.7199 13.5624 14.7848 13.401 14.7848C13.2397 14.7848 13.085 14.7199 12.9709 14.6045C12.8568 14.489 12.7927 14.3325 12.7927 14.1692V11.5846C12.7927 9.68141 11.2674 8.13844 9.38589 8.13844C7.50439 8.13844 5.97925 9.68141 5.97925 11.5846V13.8C5.97925 13.9633 5.91515 14.1199 5.80105 14.2353C5.68695 14.3508 5.5322 14.4157 5.37084 14.4157C5.20948 14.4157 5.05473 14.3508 4.94063 14.2353C4.82653 14.1199 4.76243 13.9633 4.76243 13.8V11.5846C4.76243 9.00162 6.83243 6.90768 9.38609 6.90768C11.9393 6.90768 14.0094 9.00162 14.0094 11.5846V14.1692ZM16.8585 4.5364C16.9098 4.59842 16.9484 4.67004 16.9722 4.74718C16.9961 4.82431 17.0047 4.90544 16.9976 4.98594C16.9904 5.06644 16.9677 5.14472 16.9307 5.21633C16.8936 5.28794 16.843 5.35146 16.7817 5.40327C16.6579 5.50791 16.4981 5.55852 16.3375 5.54398C16.1768 5.52944 16.0284 5.45094 15.9249 5.32573C14.3158 3.37743 11.944 2.23077 9.38589 2.23077C6.94189 2.23077 4.66553 3.27692 3.06012 5.07753C3.00659 5.13757 2.9419 5.18636 2.86973 5.22111C2.79757 5.25585 2.71935 5.27587 2.63954 5.28002C2.55973 5.28418 2.4799 5.27238 2.40459 5.24531C2.32929 5.21824 2.25999 5.17642 2.20066 5.12224C2.08094 5.01289 2.00905 4.85989 2.0008 4.6969C1.99255 4.53391 2.04862 4.37428 2.15667 4.25312C3.99053 2.19671 6.59385 1 9.38589 1C12.3085 1 15.0206 2.31159 16.8585 4.5364V4.5364ZM16.5642 11.2154C16.5642 11.3786 16.5001 11.5353 16.386 11.6507C16.2719 11.7662 16.1172 11.831 15.9558 11.831C15.7944 11.831 15.6397 11.7662 15.5256 11.6507C15.4115 11.5353 15.3474 11.3786 15.3474 11.2154C15.3474 8.71116 13.8247 6.49496 11.5581 5.59732C11.4837 5.56785 11.4158 5.52385 11.3582 5.46782C11.3007 5.4118 11.2546 5.34485 11.2226 5.2708C11.1906 5.19676 11.1734 5.11706 11.1718 5.03626C11.1703 4.95546 11.1844 4.87514 11.2136 4.79989C11.2427 4.72464 11.2862 4.65593 11.3415 4.59768C11.3969 4.53944 11.463 4.4928 11.5362 4.46043C11.6094 4.42805 11.6882 4.41058 11.768 4.40901C11.8478 4.40744 11.9272 4.4218 12.0016 4.45127C14.731 5.53189 16.5642 8.20039 16.5642 11.2154ZM9.38589 3.95384C9.54717 3.95384 9.70184 4.01867 9.81589 4.13408C9.92993 4.24949 9.994 4.40601 9.994 4.56922C9.994 4.73243 9.92993 4.88896 9.81589 5.00436C9.70184 5.11977 9.54717 5.1846 9.38589 5.1846C6.09338 5.1846 3.42418 7.8847 3.42418 11.2154C3.42418 11.3786 3.36009 11.5352 3.24601 11.6506C3.13193 11.7661 2.9772 11.8309 2.81586 11.8309C2.65453 11.8309 2.4998 11.7661 2.38572 11.6506C2.27164 11.5352 2.20755 11.3786 2.20755 11.2154C2.20755 7.20511 5.42141 3.95384 9.38589 3.95384V3.95384ZM9.38589 11.0923C9.2586 11.0923 9.13637 11.1427 9.04542 11.2328C8.95447 11.3229 8.90205 11.4455 8.8994 11.5743L8.90305 11.6734C8.91689 12.0697 8.92452 12.4662 8.92595 12.8627C8.92616 13.2451 8.91744 13.5643 8.89697 13.8063C8.82906 14.6117 8.61034 15.3142 8.28683 15.912C8.15893 16.1506 8.00886 16.3764 7.83865 16.5862C7.74034 16.706 7.65865 16.7913 7.6023 16.8426C7.48221 16.9516 7.32425 17.0079 7.16316 16.9991C7.00207 16.9903 6.85103 16.9171 6.74324 16.7956C6.63553 16.6742 6.57988 16.5145 6.58855 16.3515C6.59722 16.1886 6.66948 16.0358 6.78946 15.9267C6.78804 15.928 6.79432 15.922 6.8073 15.9083C6.83446 15.8802 6.86608 15.8443 6.90155 15.8012C7.02242 15.6517 7.12898 15.4909 7.2198 15.321C7.46426 14.8693 7.63169 14.331 7.6848 13.7017C7.70163 13.5021 7.70953 13.2135 7.70933 12.8634C7.70874 12.4814 7.7013 12.0994 7.68703 11.7177L7.68298 11.6104L7.68257 11.5846C7.68257 10.6328 8.44514 9.86151 9.38589 9.86151C9.83755 9.86146 10.2707 10.043 10.5902 10.3661C10.9096 10.6892 11.0891 11.1275 11.0892 11.5846V14.874C11.0892 15.0373 11.0251 15.1939 10.911 15.3093C10.797 15.4247 10.6422 15.4896 10.4809 15.4896C10.3196 15.4896 10.1648 15.4247 10.0507 15.3093C9.93667 15.1939 9.87258 15.0373 9.87258 14.874V11.5846C9.87258 11.454 9.82132 11.3288 9.73009 11.2365C9.63886 11.1441 9.51512 11.0923 9.38609 11.0923H9.38589Z" fill="#A1ABBD" stroke="#A1ABBD" stroke-width="0.3"/>
</svg>
