<svg width="20" height="20" viewBox="0 0 20 20" fill="none" xmlns="http://www.w3.org/2000/svg">
<path d="M18.1742 7.23726C17.9596 7.53681 17.6168 7.59345 17.3173 7.37886L17.0177 7.16427L9.1926 17.8766C8.54883 18.7752 7.66288 19.2737 6.63459 19.4436C5.692 19.5994 4.69277 19.4124 3.79412 18.7686C1.99682 17.4811 1.60034 15.0818 2.90204 13.3702L10.6273 2.58633L10.3277 2.37174C10.0282 2.15715 9.97156 1.81439 10.1861 1.51484C10.4007 1.21529 10.7435 1.15865 11.043 1.37324L18.0326 6.38035C18.2323 6.52341 18.3031 6.95187 18.1742 7.23726ZM11.6258 3.30164L7.40552 9.1928L6.63285 10.3768L13.8308 9.1874L15.8195 6.3059L11.6258 3.30164ZM13.0469 8.17255C12.7898 8.21503 12.5044 8.08613 12.4478 7.74337C12.4053 7.4863 12.5342 7.2009 12.877 7.14426C13.1341 7.10178 13.4195 7.23069 13.4761 7.57345C13.4329 7.84468 13.304 8.13007 13.0469 8.17255ZM12.178 6.64355C11.8353 6.70019 11.5357 6.4856 11.4791 6.14284C11.4224 5.80008 11.637 5.50053 11.9798 5.44389C12.3226 5.38725 12.6221 5.60184 12.6788 5.9446C12.7354 6.28736 12.5208 6.58691 12.178 6.64355ZM11.0604 9.46914C10.5463 9.5541 10.047 9.19645 9.96206 8.68231C9.8771 8.16817 10.2348 7.66892 10.7489 7.58396C11.263 7.49899 11.7623 7.85665 11.8472 8.37079C11.9322 8.88493 11.5746 9.38418 11.0604 9.46914Z" fill="#A1ABBD"/>
</svg>
