<svg width="20" height="20" viewBox="0 0 20 20" fill="none" xmlns="http://www.w3.org/2000/svg">
<path d="M17.3337 7.19516C17.3241 7.11095 17.3057 7.02799 17.2787 6.94766V6.86516C17.2346 6.77091 17.1758 6.68427 17.1045 6.6085L11.6045 1.1085C11.5287 1.03719 11.4421 0.978404 11.3478 0.934329C11.3205 0.930443 11.2927 0.930443 11.2653 0.934329C11.1722 0.880926 11.0694 0.846645 10.9628 0.833496H5.41699C4.68765 0.833496 3.98817 1.12323 3.47245 1.63895C2.95672 2.15468 2.66699 2.85415 2.66699 3.5835V16.4168C2.66699 17.1462 2.95672 17.8456 3.47245 18.3614C3.98817 18.8771 4.68765 19.1668 5.41699 19.1668H14.5837C15.313 19.1668 16.0125 18.8771 16.5282 18.3614C17.0439 17.8456 17.3337 17.1462 17.3337 16.4168V7.25016C17.3337 7.25016 17.3337 7.25016 17.3337 7.19516ZM11.8337 3.95933L14.2078 6.3335H12.7503C12.5072 6.3335 12.2741 6.23692 12.1021 6.06501C11.9302 5.8931 11.8337 5.65994 11.8337 5.41683V3.95933ZM15.5003 16.4168C15.5003 16.6599 15.4037 16.8931 15.2318 17.065C15.0599 17.2369 14.8268 17.3335 14.5837 17.3335H5.41699C5.17388 17.3335 4.94072 17.2369 4.76881 17.065C4.5969 16.8931 4.50033 16.6599 4.50033 16.4168V3.5835C4.50033 3.34038 4.5969 3.10722 4.76881 2.93532C4.94072 2.76341 5.17388 2.66683 5.41699 2.66683H10.0003V5.41683C10.0003 6.14617 10.2901 6.84565 10.8058 7.36137C11.3215 7.8771 12.021 8.16683 12.7503 8.16683H15.5003V16.4168ZM12.0995 10.266L9.08366 13.291L7.90116 12.0993C7.72855 11.9267 7.49443 11.8297 7.25033 11.8297C7.00622 11.8297 6.7721 11.9267 6.59949 12.0993C6.42688 12.2719 6.32991 12.5061 6.32991 12.7502C6.32991 12.9943 6.42688 13.2284 6.59949 13.401L8.43283 15.2343C8.51804 15.3202 8.61943 15.3884 8.73113 15.435C8.84283 15.4815 8.96265 15.5055 9.08366 15.5055C9.20467 15.5055 9.32448 15.4815 9.43619 15.435C9.54789 15.3884 9.64928 15.3202 9.73449 15.2343L13.4012 11.5677C13.5738 11.3951 13.6707 11.1609 13.6707 10.9168C13.6707 10.6727 13.5738 10.4386 13.4012 10.266C13.2285 10.0934 12.9944 9.99641 12.7503 9.99641C12.5062 9.99641 12.2721 10.0934 12.0995 10.266Z" fill="#A1ABBD"/>
</svg>
