<svg width="18" height="18" viewBox="0 0 18 18" fill="none" xmlns="http://www.w3.org/2000/svg">
<path d="M13.8111 3.10606C12.4038 1.75757 10.4949 1 8.50459 1C6.51425 1 4.60543 1.75757 3.19804 3.10606C1.79066 4.45454 1 6.28348 1 8.19053C1 10.0976 1.79066 11.9265 3.19804 13.275L7.85896 17.7493C7.94118 17.8288 8.039 17.8918 8.14678 17.9348C8.25455 17.9779 8.37015 18 8.4869 18C8.60366 18 8.71926 17.9779 8.82703 17.9348C8.93481 17.8918 9.03263 17.8288 9.11485 17.7493L13.8111 13.2326C15.2126 11.8898 16 10.0684 16 8.16934C16 6.27025 15.2126 4.44893 13.8111 3.10606V3.10606ZM12.5464 12.0208L8.50459 15.9105L4.46277 12.0208C3.66426 11.255 3.12064 10.2796 2.90061 9.21784C2.68058 8.15607 2.79403 7.05563 3.22661 6.05563C3.6592 5.05563 4.3915 4.20096 5.33095 3.59966C6.2704 2.99836 7.37481 2.67742 8.50459 2.67742C9.63437 2.67742 10.7388 2.99836 11.6782 3.59966C12.6177 4.20096 13.35 5.05563 13.7826 6.05563C14.2152 7.05563 14.3286 8.15607 14.1086 9.21784C13.8885 10.2796 13.3449 11.255 12.5464 12.0208V12.0208ZM5.85132 5.58897C5.13734 6.27519 4.73641 7.20462 4.73641 8.17358C4.73641 9.14254 5.13734 10.072 5.85132 10.7582C6.38176 11.2673 7.05731 11.615 7.79321 11.7576C8.5291 11.9003 9.29257 11.8315 9.98784 11.56C10.6831 11.2884 11.2792 10.8262 11.7013 10.2313C12.1235 9.6364 12.3528 8.9353 12.3607 8.21595C12.3647 7.73564 12.2681 7.25944 12.0767 6.81551C11.8853 6.37157 11.6029 5.96892 11.2463 5.63135C10.8958 5.28779 10.4778 5.01404 10.0164 4.82585C9.55508 4.63766 9.05943 4.53876 8.55801 4.53482C8.0566 4.53088 7.55932 4.62199 7.09479 4.80291C6.63027 4.98382 6.20767 5.25097 5.85132 5.58897V5.58897ZM9.99927 9.55486C9.66411 9.8809 9.22116 10.0853 8.74615 10.133C8.27114 10.1808 7.79357 10.0689 7.39509 9.81665C6.9966 9.56437 6.70196 9.18729 6.56152 8.74989C6.42108 8.31249 6.44357 7.84194 6.62515 7.41867C6.80673 6.9954 7.13612 6.64571 7.55701 6.42938C7.97789 6.21306 8.46413 6.14353 8.9326 6.23268C9.40106 6.32184 9.82266 6.56414 10.1253 6.91817C10.428 7.27219 10.5929 7.71595 10.5918 8.17358C10.579 8.69666 10.3499 9.19347 9.95505 9.55486H9.99927Z" fill="#A1ABBD"/>
</svg>
