<svg width="40" height="40" viewBox="0 0 40 40" fill="none" xmlns="http://www.w3.org/2000/svg">
<path d="M26.0002 3.33325H30.5002C32.9855 3.33325 35.0003 5.348 35.0003 7.8333V9.33331H5V7.8333C5 5.348 7.01474 3.33325 9.50004 3.33325H14.0001H26.0002Z" fill="#6DB0FF"/>
<path fill-rule="evenodd" clip-rule="evenodd" d="M5 32.2089V9.33374H35.0003V32.2089C35.0003 34.6948 32.9856 36.709 30.5002 36.709H9.50004C7.01473 36.709 5 34.6948 5 32.2089Z" fill="#C0DDFF"/>
<path d="M17.3751 12.333H10.625C10.0037 12.333 9.5 12.8367 9.5 13.458V20.2081C9.5 20.8294 10.0037 21.3331 10.625 21.3331H17.3751C17.9964 21.3331 18.5001 20.8294 18.5001 20.2081V13.458C18.5001 12.8367 17.9964 12.333 17.3751 12.333Z" fill="#0075FF"/>
<path fill-rule="evenodd" clip-rule="evenodd" d="M20.375 14.2085C20.375 13.5872 20.8787 13.0835 21.5 13.0835L29.3751 13.0835C29.9964 13.0835 30.5001 13.5872 30.5001 14.2085C30.5001 14.8298 29.9964 15.3335 29.3751 15.3335H21.5C20.8787 15.3335 20.375 14.8298 20.375 14.2085Z" fill="#6DB0FF"/>
<path fill-rule="evenodd" clip-rule="evenodd" d="M9.5 25.4585C9.5 24.8372 10.0037 24.3335 10.625 24.3335H29.3751C29.9964 24.3335 30.5001 24.8372 30.5001 25.4585C30.5001 26.0798 29.9964 26.5835 29.3751 26.5835H10.625C10.0037 26.5835 9.5 26.0798 9.5 25.4585Z" fill="#6DB0FF"/>
<path fill-rule="evenodd" clip-rule="evenodd" d="M9.5 31.4585C9.5 30.8372 10.0037 30.3335 10.625 30.3335L20.0001 30.3335C20.6214 30.3335 21.1251 30.8372 21.1251 31.4585C21.1251 32.0798 20.6214 32.5835 20.0001 32.5835H10.625C10.0037 32.5835 9.5 32.0798 9.5 31.4585Z" fill="#6DB0FF"/>
<path fill-rule="evenodd" clip-rule="evenodd" d="M20.375 19.4588C20.375 18.8374 20.8787 18.3337 21.5 18.3337H29.3751C29.9964 18.3337 30.5001 18.8374 30.5001 19.4588C30.5001 20.0801 29.9964 20.5838 29.3751 20.5838H21.5C20.8787 20.5838 20.375 20.0801 20.375 19.4588Z" fill="#6DB0FF"/>
</svg>
