<svg width="26" height="26" viewBox="0 0 26 26" fill="none" xmlns="http://www.w3.org/2000/svg">
<g opacity="0.8">
<path d="M19.4997 14.2784V10.8334C19.4981 9.29847 18.9534 7.81359 17.962 6.64175C16.9706 5.46992 15.5965 4.68674 14.083 4.43091V3.25008C14.083 2.96276 13.9689 2.68721 13.7657 2.48405C13.5625 2.28088 13.287 2.16675 12.9997 2.16675C12.7124 2.16675 12.4368 2.28088 12.2336 2.48405C12.0305 2.68721 11.9163 2.96276 11.9163 3.25008V4.43091C10.4029 4.68674 9.02874 5.46992 8.03734 6.64175C7.04594 7.81359 6.50123 9.29847 6.49967 10.8334V14.2784C5.8675 14.5019 5.31992 14.9155 4.93202 15.4624C4.54413 16.0094 4.33489 16.6629 4.33301 17.3334V19.5001C4.33301 19.7874 4.44714 20.063 4.65031 20.2661C4.85347 20.4693 5.12902 20.5834 5.41634 20.5834H8.81801C9.06748 21.5014 9.61209 22.3118 10.3678 22.8895C11.1235 23.4673 12.0484 23.7803 12.9997 23.7803C13.951 23.7803 14.8758 23.4673 15.6315 22.8895C16.3873 22.3118 16.9319 21.5014 17.1813 20.5834H20.583C20.8703 20.5834 21.1459 20.4693 21.349 20.2661C21.5522 20.063 21.6663 19.7874 21.6663 19.5001V17.3334C21.6645 16.6629 21.4552 16.0094 21.0673 15.4624C20.6794 14.9155 20.1319 14.5019 19.4997 14.2784ZM8.66634 10.8334C8.66634 9.68414 9.12289 8.58194 9.93554 7.76929C10.7482 6.95663 11.8504 6.50008 12.9997 6.50008C14.1489 6.50008 15.2511 6.95663 16.0638 7.76929C16.8765 8.58194 17.333 9.68414 17.333 10.8334V14.0834H8.66634V10.8334ZM12.9997 21.6667C12.6216 21.6645 12.2506 21.5633 11.9237 21.3732C11.5969 21.1832 11.3254 20.9109 11.1363 20.5834H14.863C14.674 20.9109 14.4025 21.1832 14.0756 21.3732C13.7487 21.5633 13.3778 21.6645 12.9997 21.6667ZM19.4997 18.4167H6.49967V17.3334C6.49967 17.0461 6.61381 16.7705 6.81698 16.5674C7.02014 16.3642 7.29569 16.2501 7.58301 16.2501H18.4163C18.7037 16.2501 18.9792 16.3642 19.1824 16.5674C19.3855 16.7705 19.4997 17.0461 19.4997 17.3334V18.4167Z" fill="#A1ABBD"/>
</g>
</svg>
