<svg width="17" height="17" viewBox="0 0 17 17" fill="none" xmlns="http://www.w3.org/2000/svg">
<path d="M13.4587 4.60426H12.552L12.3253 3.89593C12.1784 3.4803 11.9058 3.12066 11.5454 2.86684C11.1849 2.61301 10.7545 2.47756 10.3137 2.47926H6.68699C6.24184 2.4801 5.80819 2.62071 5.44724 2.88125C5.0863 3.14179 4.81629 3.5091 4.67533 3.93135L4.44866 4.63968H3.54199C2.97841 4.63968 2.43791 4.86356 2.03939 5.26208C1.64088 5.66059 1.41699 6.2011 1.41699 6.76468V12.4313C1.41699 12.9949 1.64088 13.5354 2.03939 13.9339C2.43791 14.3325 2.97841 14.5563 3.54199 14.5563H13.4587C14.0222 14.5563 14.5627 14.3325 14.9613 13.9339C15.3598 13.5354 15.5837 12.9949 15.5837 12.4313V6.76468C15.5884 6.48266 15.5369 6.20252 15.4322 5.9406C15.3275 5.67868 15.1717 5.44022 14.9739 5.23913C14.7761 5.03804 14.5403 4.87834 14.2801 4.76934C14.02 4.66034 13.7407 4.60422 13.4587 4.60426ZM14.167 12.3959C14.167 12.5838 14.0924 12.764 13.9595 12.8968C13.8267 13.0296 13.6465 13.1043 13.4587 13.1043H3.54199C3.35413 13.1043 3.17396 13.0296 3.04112 12.8968C2.90829 12.764 2.83366 12.5838 2.83366 12.3959V6.72926C2.83366 6.5414 2.90829 6.36123 3.04112 6.2284C3.17396 6.09556 3.35413 6.02093 3.54199 6.02093H4.95866C5.11312 6.02899 5.26598 5.98627 5.39388 5.8993C5.52179 5.81233 5.61771 5.68588 5.66699 5.53926L6.04949 4.3776C6.09701 4.23691 6.18754 4.11471 6.3083 4.02828C6.42905 3.94184 6.57391 3.89555 6.72241 3.89593H10.3491C10.4976 3.89555 10.6424 3.94184 10.7632 4.02828C10.8839 4.11471 10.9745 4.23691 11.022 4.3776L11.4045 5.53926C11.4499 5.67438 11.5351 5.79263 11.6488 5.87856C11.7626 5.9645 11.8996 6.01412 12.042 6.02093H13.4587C13.6465 6.02093 13.8267 6.09556 13.9595 6.2284C14.0924 6.36123 14.167 6.5414 14.167 6.72926V12.3959ZM8.50033 6.02093C7.93994 6.02093 7.39215 6.1871 6.92621 6.49843C6.46027 6.80976 6.09711 7.25227 5.88267 7.76999C5.66822 8.28772 5.61211 8.85741 5.72143 9.40702C5.83076 9.95663 6.10061 10.4615 6.49686 10.8577C6.89311 11.254 7.39796 11.5238 7.94757 11.6332C8.49718 11.7425 9.06687 11.6864 9.5846 11.4719C10.1023 11.2575 10.5448 10.8943 10.8562 10.4284C11.1675 9.96244 11.3337 9.41464 11.3337 8.85426C11.3337 8.10282 11.0351 7.38215 10.5038 6.85079C9.97244 6.31944 9.25177 6.02093 8.50033 6.02093ZM8.50033 10.2709C8.22014 10.2709 7.94624 10.1878 7.71327 10.0322C7.4803 9.87651 7.29872 9.65526 7.1915 9.3964C7.08427 9.13754 7.05622 8.85269 7.11088 8.57789C7.16554 8.30308 7.30047 8.05065 7.49859 7.85253C7.69672 7.65441 7.94914 7.51948 8.22395 7.46482C8.49875 7.41016 8.7836 7.43821 9.04246 7.54543C9.30132 7.65266 9.52258 7.83424 9.67824 8.06721C9.83391 8.30018 9.91699 8.57407 9.91699 8.85426C9.91699 9.22999 9.76774 9.59032 9.50206 9.856C9.23638 10.1217 8.87605 10.2709 8.50033 10.2709Z" fill="#0075FF"/>
</svg>
