<svg width="20" height="16" viewBox="0 0 20 16" fill="none" xmlns="http://www.w3.org/2000/svg">
<path opacity="0.8" d="M18.6358 6.66663H4.64513L9.147 2.28357C9.40389 2.03271 9.5482 1.69246 9.5482 1.33769C9.5482 0.98291 9.40389 0.642664 9.147 0.391799C8.89012 0.140935 8.54171 0 8.17842 0C7.81513 0 7.46672 0.140935 7.20983 0.391799L0.388816 7.05298C0.264619 7.17968 0.167262 7.32908 0.102334 7.49261C-0.0341112 7.81696 -0.0341112 8.18077 0.102334 8.50511C0.167262 8.66865 0.264619 8.81805 0.388816 8.94475L7.20983 15.6059C7.33665 15.7308 7.48754 15.8299 7.65378 15.8975C7.82002 15.9652 7.99833 16 8.17842 16C8.35851 16 8.53682 15.9652 8.70306 15.8975C8.8693 15.8299 9.02018 15.7308 9.147 15.6059C9.27487 15.4821 9.37636 15.3347 9.44561 15.1724C9.51487 15.01 9.55053 14.8359 9.55053 14.66C9.55053 14.4842 9.51487 14.31 9.44561 14.1477C9.37636 13.9853 9.27487 13.838 9.147 13.7142L4.64513 9.3311H18.6358C18.9976 9.3311 19.3446 9.19074 19.6004 8.9409C19.8563 8.69105 20 8.35219 20 7.99886C20 7.64553 19.8563 7.30667 19.6004 7.05683C19.3446 6.80699 18.9976 6.66663 18.6358 6.66663Z" fill="#152C5B"/>
</svg>
