<svg width="40" height="40" viewBox="0 0 40 40" fill="none" xmlns="http://www.w3.org/2000/svg">
<path d="M19.9997 21.6666C20.9201 21.6666 21.6663 20.9204 21.6663 19.9999C21.6663 19.0794 20.9201 18.3333 19.9997 18.3333C19.0792 18.3333 18.333 19.0794 18.333 19.9999C18.333 20.9204 19.0792 21.6666 19.9997 21.6666Z" fill="#0075FF"/>
<path d="M19.9997 3.33325C16.8454 3.33351 13.7559 4.22881 11.0902 5.91513C8.42448 7.60145 6.29199 10.0096 4.94049 12.8597C3.58899 15.7098 3.07396 18.8849 3.45523 22.016C3.83651 25.1472 5.09844 28.1059 7.09441 30.5484L3.82135 33.8216C3.58826 34.0546 3.42951 34.3516 3.36519 34.6749C3.30087 34.9981 3.33386 35.3332 3.45999 35.6378C3.58612 35.9423 3.79972 36.2026 4.07379 36.3857C4.34785 36.5688 4.67006 36.6666 4.99968 36.6666H19.9997C24.42 36.6666 28.6592 34.9106 31.7848 31.785C34.9104 28.6594 36.6663 24.4202 36.6663 19.9999C36.6663 15.5796 34.9104 11.3404 31.7848 8.21481C28.6592 5.0892 24.42 3.33325 19.9997 3.33325ZM13.333 21.6666C13.0034 21.6666 12.6811 21.5688 12.4071 21.3857C12.133 21.2026 11.9194 20.9423 11.7932 20.6377C11.6671 20.3332 11.6341 19.9981 11.6984 19.6748C11.7627 19.3515 11.9214 19.0545 12.1545 18.8214C12.3876 18.5883 12.6846 18.4296 13.0079 18.3653C13.3312 18.301 13.6663 18.334 13.9708 18.4601C14.2754 18.5863 14.5357 18.7999 14.7188 19.074C14.9019 19.3481 14.9997 19.6703 14.9997 19.9999C14.9997 20.4419 14.8241 20.8659 14.5115 21.1784C14.199 21.491 13.775 21.6666 13.333 21.6666ZM19.9997 21.6666C19.67 21.6666 19.3478 21.5688 19.0737 21.3857C18.7996 21.2026 18.586 20.9423 18.4599 20.6377C18.3337 20.3332 18.3007 19.9981 18.365 19.6748C18.4293 19.3515 18.5881 19.0545 18.8212 18.8214C19.0543 18.5883 19.3512 18.4296 19.6745 18.3653C19.9978 18.301 20.3329 18.334 20.6375 18.4601C20.942 18.5863 21.2023 18.7999 21.3855 19.074C21.5686 19.3481 21.6663 19.6703 21.6663 19.9999C21.6663 20.4419 21.4908 20.8659 21.1782 21.1784C20.8656 21.491 20.4417 21.6666 19.9997 21.6666ZM26.6663 21.6666C26.3367 21.6666 26.0145 21.5688 25.7404 21.3857C25.4663 21.2026 25.2527 20.9423 25.1265 20.6377C25.0004 20.3332 24.9674 19.9981 25.0317 19.6748C25.096 19.3515 25.2547 19.0545 25.4878 18.8214C25.7209 18.5883 26.0179 18.4296 26.3412 18.3653C26.6645 18.301 26.9996 18.334 27.3041 18.4601C27.6087 18.5863 27.869 18.7999 28.0521 19.074C28.2353 19.3481 28.333 19.6703 28.333 19.9999C28.333 20.4419 28.1574 20.8659 27.8449 21.1784C27.5323 21.491 27.1084 21.6666 26.6663 21.6666Z" fill="#C0DDFF"/>
<path d="M13.3337 21.6666C14.2541 21.6666 15.0003 20.9204 15.0003 19.9999C15.0003 19.0794 14.2541 18.3333 13.3337 18.3333C12.4132 18.3333 11.667 19.0794 11.667 19.9999C11.667 20.9204 12.4132 21.6666 13.3337 21.6666Z" fill="#0075FF"/>
<path d="M26.6667 21.6666C27.5871 21.6666 28.3333 20.9204 28.3333 19.9999C28.3333 19.0794 27.5871 18.3333 26.6667 18.3333C25.7462 18.3333 25 19.0794 25 19.9999C25 20.9204 25.7462 21.6666 26.6667 21.6666Z" fill="#0075FF"/>
</svg>
