<svg width="40" height="40" viewBox="0 0 40 40" fill="none" xmlns="http://www.w3.org/2000/svg">
<path d="M33.5613 35.9721H6.70415C5.81996 35.972 4.95138 35.744 4.18569 35.311C3.41999 34.8781 2.78415 34.2554 2.34203 33.5057C1.89992 32.7559 1.66711 31.9054 1.66699 31.0396C1.66688 30.1739 1.89946 29.3233 2.34137 28.5734L15.7699 5.7995C16.2121 5.04966 16.848 4.42699 17.6139 3.99408C18.3797 3.56116 19.2484 3.33325 20.1327 3.33325C21.017 3.33325 21.8857 3.56116 22.6515 3.99408C23.4174 4.42699 24.0533 5.04966 24.4955 5.7995L37.924 28.5734C38.366 29.3233 38.5985 30.1739 38.5984 31.0396C38.5983 31.9054 38.3655 32.7559 37.9234 33.5057C37.4813 34.2554 36.8454 34.8781 36.0797 35.311C35.314 35.744 34.4454 35.972 33.5613 35.9721Z" fill="#C0DDFF"/>
<path d="M19.9997 29.3752C20.9201 29.3752 21.6663 28.6446 21.6663 27.7433C21.6663 26.842 20.9201 26.1113 19.9997 26.1113C19.0792 26.1113 18.333 26.842 18.333 27.7433C18.333 28.6446 19.0792 29.3752 19.9997 29.3752Z" fill="#0075FF"/>
<path d="M19.9997 22.8471C19.5576 22.8471 19.1337 22.6751 18.8212 22.3691C18.5086 22.0631 18.333 21.648 18.333 21.2151V14.6874C18.333 14.2545 18.5086 13.8395 18.8212 13.5334C19.1337 13.2274 19.5576 13.0554 19.9997 13.0554C20.4417 13.0554 20.8656 13.2274 21.1782 13.5334C21.4907 13.8395 21.6663 14.2545 21.6663 14.6874V21.2151C21.6663 21.648 21.4907 22.0631 21.1782 22.3691C20.8656 22.6751 20.4417 22.8471 19.9997 22.8471Z" fill="#0075FF"/>
</svg>
