<svg width="40" height="40" viewBox="0 0 40 40" fill="none" xmlns="http://www.w3.org/2000/svg">
<path d="M34.9997 3.33325H14.9997C14.0797 3.33274 13.3335 4.07807 13.333 4.99802C13.333 4.99865 13.333 4.99929 13.333 4.99992V11.6666H26.6663C27.5863 11.6661 28.3325 12.4114 28.333 13.3314C28.333 13.332 28.333 13.3326 28.333 13.3333V26.6666H34.9997C35.9196 26.6671 36.6658 25.9218 36.6663 25.0018C36.6663 25.0012 36.6663 25.0005 36.6663 24.9999V4.99992C36.6669 4.07997 35.9215 3.33377 35.0016 3.33325C35.0009 3.33325 35.0003 3.33325 34.9997 3.33325Z" fill="#C0DDFF"/>
<path d="M4.99967 20H18.333C19.2535 20 19.9997 20.7462 19.9997 21.6667V35C19.9997 35.9205 19.2535 36.6667 18.333 36.6667H4.99967C4.07921 36.6667 3.33301 35.9205 3.33301 35V21.6667C3.33301 20.7462 4.07921 20 4.99967 20Z" fill="#0075FF"/>
<path d="M26.6663 11.6667H9.99967C9.07972 11.6662 8.33352 12.4116 8.33301 13.3315C8.33301 13.3321 8.33301 13.3328 8.33301 13.3334V20.0001H18.333C19.253 19.9996 19.9992 20.7449 19.9997 21.6649C19.9997 21.6655 19.9997 21.6661 19.9997 21.6667V31.6668H26.6663C27.5863 31.6673 28.3325 30.9219 28.333 30.002C28.333 30.0014 28.333 30.0007 28.333 30.0001V13.3334C28.3335 12.4135 27.5882 11.6673 26.6682 11.6667C26.6676 11.6667 26.667 11.6667 26.6663 11.6667Z" fill="#6DB0FF"/>
</svg>
