<svg width="40" height="40" viewBox="0 0 40 40" fill="none" xmlns="http://www.w3.org/2000/svg">
<path d="M10.0003 37.5694H3.33366C3.11477 37.5695 2.89802 37.5273 2.69579 37.4453C2.49355 37.3633 2.3098 37.2431 2.15502 37.0916C2.00024 36.94 1.87748 36.7601 1.79374 36.5621C1.71001 36.3641 1.66694 36.1518 1.66699 35.9375V22.8819C1.66694 22.6676 1.71001 22.4554 1.79374 22.2574C1.87748 22.0593 2.00024 21.8794 2.15502 21.7279C2.3098 21.5763 2.49355 21.4561 2.69579 21.3741C2.89802 21.2921 3.11477 21.2499 3.33366 21.25H10.0003C10.2192 21.2499 10.436 21.2921 10.6382 21.3741C10.8404 21.4561 11.0242 21.5763 11.179 21.7279C11.3337 21.8794 11.4565 22.0593 11.5402 22.2574C11.624 22.4554 11.667 22.6676 11.667 22.8819V35.9375C11.667 36.1518 11.624 36.3641 11.5402 36.5621C11.4565 36.7601 11.3337 36.94 11.179 37.0916C11.0242 37.2431 10.8404 37.3633 10.6382 37.4453C10.436 37.5273 10.2192 37.5695 10.0003 37.5694Z" fill="#99C8FF"/>
<path d="M23.3333 37.5695H16.6667C16.4478 37.5696 16.231 37.5274 16.0288 37.4454C15.8266 37.3634 15.6428 37.2432 15.488 37.0917C15.3333 36.9401 15.2105 36.7602 15.1268 36.5622C15.043 36.3641 14.9999 36.1519 15 35.9376V3.29869C14.9999 3.08437 15.043 2.87213 15.1268 2.67411C15.2105 2.47609 15.3333 2.29616 15.488 2.14461C15.6428 1.99306 15.8266 1.87285 16.0288 1.79086C16.231 1.70887 16.4478 1.66669 16.6667 1.66675H23.3333C23.5522 1.66669 23.769 1.70887 23.9712 1.79086C24.1734 1.87285 24.3572 1.99306 24.512 2.14461C24.6667 2.29616 24.7895 2.47609 24.8732 2.67411C24.957 2.87213 25.0001 3.08437 25 3.29869V35.9376C25.0001 36.1519 24.957 36.3641 24.8732 36.5622C24.7895 36.7602 24.6667 36.9401 24.512 37.0917C24.3572 37.2432 24.1734 37.3634 23.9712 37.4454C23.769 37.5274 23.5522 37.5696 23.3333 37.5695Z" fill="#0075FF"/>
<path d="M36.6673 37.5694H30.0007C29.7818 37.5694 29.565 37.5273 29.3628 37.4453C29.1605 37.3633 28.9768 37.2431 28.822 37.0915C28.6672 36.94 28.5445 36.7601 28.4607 36.562C28.377 36.364 28.3339 36.1518 28.334 35.9374V16.3541C28.3339 16.1398 28.377 15.9276 28.4607 15.7295C28.5445 15.5315 28.6672 15.3516 28.822 15.2C28.9768 15.0485 29.1605 14.9283 29.3628 14.8463C29.565 14.7643 29.7818 14.7221 30.0007 14.7222H36.6673C36.8862 14.7221 37.103 14.7643 37.3052 14.8463C37.5074 14.9283 37.6912 15.0485 37.846 15.2C38.0007 15.3516 38.1235 15.5315 38.2072 15.7295C38.291 15.9276 38.334 16.1398 38.334 16.3541V35.9374C38.334 36.1518 38.291 36.364 38.2072 36.562C38.1235 36.7601 38.0007 36.94 37.846 37.0915C37.6912 37.2431 37.5074 37.3633 37.3052 37.4453C37.103 37.5273 36.8862 37.5694 36.6673 37.5694Z" fill="#6DB0FF"/>
</svg>
