<svg width="40" height="40" viewBox="0 0 40 40" fill="none" xmlns="http://www.w3.org/2000/svg">
<path d="M32.028 38.0016C24.0033 38.0016 15.9876 38.0016 7.96283 38.0016C7.74372 37.9239 7.51549 37.8558 7.31464 37.7489C6.41995 37.263 6 36.4564 6 35.3972C6 25.5528 6 17.4357 6 7.59139C6 7.39703 6.00913 7.20267 6.04565 7.00831C6.24649 5.9782 6.81252 5.21048 7.78937 5.06471C8.72057 4.91894 9.68829 5.03555 10.6651 5.03555C10.6651 6.20172 10.656 7.38731 10.6651 8.57291C10.6834 10.7497 12.1532 12.3824 14.1891 12.4018C18.0691 12.431 21.94 12.431 25.82 12.4018C27.6824 12.3921 29.0975 11.0316 29.2801 9.06853C29.3896 7.85378 29.3257 6.60987 29.3349 5.3854C29.3349 5.24935 29.3349 5.1133 29.3349 4.96753C30.193 4.96753 30.9964 4.93837 31.7907 4.97724C33.014 5.03555 33.9178 6.01707 33.9909 7.31929C34.0091 7.68857 34 8.06758 34 8.44658C34 17.9508 34 25.7278 33.9909 35.2417C33.9909 35.7082 33.8996 36.1941 33.7352 36.6314C33.434 37.4185 32.7767 37.7878 32.028 38.0016ZM14.1617 19.3696C13.6505 18.8157 13.1849 18.3007 12.701 17.7953C12.3906 17.4649 12.0163 17.2997 11.5781 17.4163C10.6651 17.6495 10.3639 18.7768 11.0395 19.5154C11.7607 20.3026 12.491 21.0703 13.2305 21.8477C13.8604 22.5183 14.4904 22.5183 15.1294 21.838C16.2158 20.6913 17.2931 19.5348 18.3795 18.3881C18.8177 17.9216 19.2651 17.4746 19.685 16.9887C20.3058 16.2696 19.9863 15.1714 19.1007 14.9382C18.626 14.8119 18.2517 15.0062 17.9231 15.3658C16.6814 16.6777 15.449 17.9994 14.1617 19.3696ZM14.18 29.3403C13.6413 28.7572 13.1849 28.2422 12.7101 27.7466C12.1898 27.2024 11.4959 27.1829 11.0212 27.6785C10.5373 28.1839 10.5465 28.9419 11.076 29.5055C11.7972 30.283 12.5276 31.0604 13.267 31.8379C13.8422 32.4404 14.4995 32.4501 15.0655 31.8476C16.581 30.2441 18.0965 28.6309 19.6029 27.0177C20.1324 26.4541 20.1415 25.6961 19.6576 25.1907C19.1829 24.6951 18.4891 24.7145 17.9687 25.2588C16.9097 26.3763 15.8507 27.5036 14.8008 28.6309C14.5908 28.835 14.4082 29.0682 14.18 29.3403ZM25.8383 19.8653C26.5686 19.8653 27.299 19.8653 28.0202 19.8653C28.7962 19.8653 29.3257 19.3599 29.3349 18.6311C29.344 17.9022 28.8145 17.3872 28.0385 17.3774C26.5686 17.3774 25.0988 17.3774 23.629 17.3774C22.8621 17.3774 22.3326 17.8925 22.3326 18.6311C22.3417 19.3502 22.8621 19.8555 23.6107 19.8653C24.3502 19.8653 25.0897 19.8653 25.8383 19.8653ZM25.8291 27.3093C25.0988 27.3093 24.3684 27.3093 23.6472 27.3093C22.8712 27.3093 22.3417 27.8146 22.3326 28.5434C22.3234 29.2723 22.8529 29.7874 23.629 29.7971C25.0988 29.7971 26.5686 29.7971 28.0385 29.7971C28.8145 29.7971 29.3349 29.282 29.3349 28.5434C29.3257 27.8146 28.8053 27.319 28.0202 27.3093C27.2899 27.3093 26.5595 27.3093 25.8291 27.3093Z" fill="#C0DDFF"/>
<path d="M14.1641 19.3676C15.4513 17.9877 16.6838 16.6757 17.9163 15.3541C18.2449 15.0042 18.6193 14.8099 19.094 14.9265C19.9704 15.1597 20.2899 16.2578 19.6783 16.977C19.2583 17.4629 18.811 17.9099 18.3728 18.3764C17.2955 19.5328 16.2091 20.6796 15.1227 21.8263C14.4836 22.5065 13.8537 22.5065 13.2238 21.836C12.4934 21.0586 11.7539 20.2908 11.0327 19.5037C10.3662 18.7651 10.6675 17.6378 11.5713 17.4046C12.0095 17.288 12.3838 17.4532 12.6942 17.7836C13.1781 18.3084 13.6528 18.8234 14.1641 19.3676Z" fill="#0075FF"/>
<path d="M14.1791 29.3382C14.4073 29.0661 14.5808 28.8329 14.7816 28.6288C15.8315 27.5015 16.8905 26.3742 17.9495 25.2567C18.4699 24.7125 19.1638 24.693 19.6385 25.1886C20.1315 25.694 20.1132 26.452 19.5837 27.0156C18.0774 28.6288 16.5619 30.2323 15.0464 31.8455C14.4804 32.448 13.823 32.4383 13.2479 31.8358C12.5175 31.068 11.7872 30.2906 11.0568 29.5034C10.5364 28.9398 10.5182 28.1818 11.002 27.6765C11.4768 27.1808 12.1706 27.2003 12.691 27.7445C13.184 28.2401 13.6496 28.7552 14.1791 29.3382Z" fill="#0075FF"/>
<path d="M25.8404 19.8628C25.101 19.8628 24.3615 19.8628 23.622 19.8628C22.8734 19.8531 22.353 19.3575 22.3439 18.6286C22.3347 17.8998 22.8642 17.375 23.6402 17.375C25.1101 17.375 26.5799 17.375 28.0498 17.375C28.8258 17.375 29.3461 17.8901 29.3461 18.6286C29.337 19.3575 28.8166 19.8531 28.0315 19.8628C27.292 19.8628 26.5617 19.8628 25.8404 19.8628Z" fill="#0075FF"/>
<path d="M25.8299 27.3086C26.5603 27.3086 27.2906 27.3086 28.0119 27.3086C28.7879 27.3086 29.3174 27.8042 29.3265 28.5428C29.3356 29.2716 28.8061 29.7867 28.0301 29.7964C26.5603 29.7964 25.0904 29.7964 23.6206 29.7964C22.8446 29.7964 22.3242 29.2814 22.3242 28.5428C22.3333 27.8139 22.8537 27.3183 23.6389 27.3086C24.3783 27.3086 25.1087 27.3086 25.8299 27.3086Z" fill="#0075FF"/>
<path d="M16.6977 4.31167C17.0173 3.45648 17.5285 2.79566 18.268 2.32919C19.9752 1.26021 22.3123 2.0085 23.134 3.93267C23.2709 4.24364 23.4261 4.33111 23.7274 4.32139C24.403 4.29223 25.0877 4.31167 25.7724 4.31167C26.521 4.32139 27.0049 4.82672 27.0049 5.6236C27.014 7.22708 27.014 7.43893 27.0049 9.0424C27.0049 9.849 26.521 10.3641 25.7815 10.3641C21.9289 10.3738 18.0763 10.3738 14.2328 10.3641C13.5024 10.3641 13.0186 9.83928 13.0186 9.07156C13.0094 7.45836 13.0094 7.22708 13.0186 5.61388C13.0186 4.81701 13.5116 4.32139 14.2602 4.31167C15.0544 4.30195 15.867 4.31167 16.6977 4.31167Z" fill="#6DB0FF"/>
</svg>
