<svg width="40" height="40" viewBox="0 0 40 40" fill="none" xmlns="http://www.w3.org/2000/svg">
<path d="M37.1245 11.1517L37.1246 11.1517C37.3439 11.3711 37.518 11.6316 37.6367 11.9182C37.7554 12.2049 37.8166 12.5122 37.8166 12.8225C37.8166 13.1328 37.7554 13.44 37.6367 13.7267C37.518 14.0134 37.3439 14.2738 37.1246 14.4932L37.1245 14.4932L31.9001 19.7195L31.8989 19.7207C31.6801 19.9423 31.4196 20.1185 31.1325 20.2391C30.8454 20.3597 30.5372 20.4223 30.2258 20.4233C29.9144 20.4243 29.6059 20.3636 29.318 20.2449C29.0301 20.1261 28.7685 19.9516 28.5482 19.7313C28.328 19.511 28.1535 19.2493 28.0348 18.9613C27.916 18.6733 27.8554 18.3646 27.8564 18.053C27.8574 17.7415 27.9199 17.4332 28.0405 17.1459C28.161 16.8586 28.3371 16.598 28.5587 16.3791L28.5598 16.378L29.3252 15.6124L29.7518 15.1856H29.1484H17.1689C16.5424 15.1856 15.9416 14.9367 15.4986 14.4935C15.0555 14.0503 14.8066 13.4492 14.8066 12.8225C14.8066 12.1957 15.0555 11.5946 15.4986 11.1514C15.9416 10.7083 16.5424 10.4593 17.1689 10.4593H29.1486H29.752L29.3254 10.0326L28.5616 9.26851C28.5613 9.26825 28.5611 9.268 28.5608 9.26774C28.125 8.82335 27.882 8.2248 27.8848 7.60217C27.8876 6.97919 28.1363 6.38254 28.5766 5.94204C29.017 5.50155 29.6134 5.25285 30.236 5.25002C30.8584 5.2472 31.4567 5.49021 31.9009 5.92621C31.9011 5.92647 31.9014 5.92672 31.9017 5.92697L37.1245 11.1517Z" fill="#99C8FF" stroke="white" stroke-width="0.5"/>
<path d="M11.238 24.7157L10.831 25.139H11.4182H23.3977C24.021 25.139 24.6208 25.3964 25.0646 25.858C25.5088 26.3199 25.7599 26.9484 25.7599 27.6058C25.7599 28.2631 25.5088 28.8917 25.0646 29.3536C24.6208 29.8152 24.021 30.0726 23.3977 30.0726H11.4182H10.8311L11.238 30.4958L12.0021 31.2908C12.0023 31.2909 12.0024 31.2911 12.0026 31.2912C12.4418 31.7541 12.6889 32.3808 12.6869 33.0351C12.6849 33.6897 12.434 34.3149 11.9917 34.7749C11.5498 35.2346 10.9531 35.4918 10.3324 35.4939C9.71205 35.4959 9.11405 35.2428 8.66941 34.7865C8.66923 34.7863 8.66905 34.7861 8.66887 34.7859L3.44552 29.3535L3.44548 29.3534C3.22559 29.1248 3.05066 28.8529 2.93115 28.553C2.81163 28.253 2.75 27.9311 2.75 27.6059C2.75 27.2806 2.81163 26.9588 2.93115 26.6588C3.05066 26.3588 3.22559 26.0869 3.44548 25.8583L3.44552 25.8583L8.66888 20.4258C8.66905 20.4256 8.66923 20.4254 8.6694 20.4253C9.11402 19.9689 9.71202 19.7158 10.3324 19.7178C10.953 19.7198 11.5498 19.977 11.9917 20.4367C12.434 20.8966 12.685 21.5219 12.687 22.1764C12.689 22.8307 12.442 23.4574 12.0028 23.9202C12.0027 23.9204 12.0025 23.9206 12.0023 23.9208L11.238 24.7157Z" fill="#0075FF" stroke="white" stroke-width="0.5"/>
</svg>
