<svg width="40" height="40" viewBox="0 0 40 40" fill="none" xmlns="http://www.w3.org/2000/svg">
<circle cx="20" cy="20" r="20" fill="#FED9AA"/>
<path d="M19.9999 9.23047C17.87 9.23047 15.7879 9.86207 14.0169 11.0454C12.2459 12.2287 10.8656 13.9107 10.0505 15.8785C9.23538 17.8463 9.02211 20.0116 9.43765 22.1007C9.85318 24.1897 10.8788 26.1086 12.385 27.6147C13.8911 29.1208 15.8099 30.1465 17.899 30.562C19.988 30.9775 22.1533 30.7643 24.1212 29.9492C26.089 29.1341 27.7709 27.7538 28.9542 25.9828C30.1376 24.2118 30.7692 22.1297 30.7692 19.9997C30.7692 18.5855 30.4906 17.1851 29.9494 15.8785C29.4082 14.5719 28.615 13.3847 27.6149 12.3847C26.6149 11.3847 25.4277 10.5914 24.1212 10.0502C22.8146 9.50902 21.4142 9.23047 19.9999 9.23047ZM19.9999 28.6151C18.296 28.6151 16.6303 28.1098 15.2135 27.1631C13.7967 26.2165 12.6924 24.8709 12.0404 23.2967C11.3883 21.7224 11.2177 19.9901 11.5501 18.3189C11.8825 16.6477 12.7031 15.1126 13.908 13.9077C15.1128 12.7028 16.6479 11.8823 18.3192 11.5499C19.9904 11.2174 21.7227 11.388 23.2969 12.0401C24.8712 12.6922 26.2167 13.7965 27.1634 15.2132C28.11 16.63 28.6153 18.2957 28.6153 19.9997C28.6153 22.2846 27.7076 24.476 26.0919 26.0917C24.4762 27.7074 22.2849 28.6151 19.9999 28.6151ZM19.9999 13.5382C19.7143 13.5382 19.4404 13.6516 19.2384 13.8536C19.0365 14.0555 18.923 14.3295 18.923 14.6151V19.3751L16.6615 20.6782C16.454 20.7957 16.2914 20.9788 16.1992 21.1987C16.1071 21.4186 16.0904 21.6629 16.152 21.8933C16.2136 22.1236 16.3499 22.3271 16.5396 22.4716C16.7292 22.6162 16.9615 22.6937 17.1999 22.692C17.3886 22.6933 17.5743 22.645 17.7384 22.552L20.5384 20.9366L20.6353 20.8397L20.8076 20.6997C20.8497 20.6464 20.8859 20.5886 20.9153 20.5274C20.9504 20.4696 20.9793 20.4082 21.0015 20.3443C21.0308 20.2758 21.049 20.2031 21.0553 20.1289L21.0769 19.9997V14.6151C21.0769 14.3295 20.9634 14.0555 20.7614 13.8536C20.5595 13.6516 20.2856 13.5382 19.9999 13.5382Z" fill="white"/>
</svg>
