<svg width="12" height="12" viewBox="0 0 16 12" fill="none" xmlns="http://www.w3.org/2000/svg">
<path d="M1.1462 2.4H14.8538C15.1578 2.4 15.4493 2.27357 15.6643 2.04853C15.8792 1.82348 16 1.51826 16 1.2C16 0.88174 15.8792 0.576516 15.6643 0.351472C15.4493 0.126428 15.1578 0 14.8538 0L1.1462 0C0.842209 0 0.550668 0.126428 0.335714 0.351472C0.12076 0.576516 0 0.88174 0 1.2C0 1.51826 0.12076 1.82348 0.335714 2.04853C0.550668 2.27357 0.842209 2.4 1.1462 2.4ZM1.1462 7.2H6.82672C7.13071 7.2 7.42225 7.07357 7.63721 6.84853C7.85216 6.62349 7.97292 6.31826 7.97292 6C7.97292 5.68174 7.85216 5.37652 7.63721 5.15147C7.42225 4.92643 7.13071 4.8 6.82672 4.8H1.1462C0.842209 4.8 0.550668 4.92643 0.335714 5.15147C0.12076 5.37652 0 5.68174 0 6C0 6.31826 0.12076 6.62349 0.335714 6.84853C0.550668 7.07357 0.842209 7.2 1.1462 7.2ZM1.1462 12H6.82672C7.13071 12 7.42225 11.8736 7.63721 11.6485C7.85216 11.4235 7.97292 11.1183 7.97292 10.8C7.97292 10.4817 7.85216 10.1765 7.63721 9.95147C7.42225 9.72643 7.13071 9.6 6.82672 9.6H1.1462C0.842209 9.6 0.550668 9.72643 0.335714 9.95147C0.12076 10.1765 0 10.4817 0 10.8C0 11.1183 0.12076 11.4235 0.335714 11.6485C0.550668 11.8736 0.842209 12 1.1462 12Z" fill="#152C5B"/>
<path d="M11.6365 11.514C11.5028 11.4414 11.384 11.342 11.2869 11.2214C11.1904 11.1001 11.1177 10.9601 11.073 10.8094C11.0282 10.6587 11.0123 10.5002 11.0261 10.343C11.04 10.1858 11.0833 10.0331 11.1536 9.89346C11.2239 9.75384 11.3199 9.63012 11.4359 9.52938L12.6738 8.44938L11.4359 7.36938C11.3199 7.26864 11.2239 7.14492 11.1536 7.0053C11.0833 6.86569 11.04 6.71292 11.0261 6.55575C11.0123 6.39857 11.0282 6.24009 11.073 6.08936C11.1177 5.93864 11.1904 5.79864 11.2869 5.67738C11.3947 5.54192 11.5297 5.43298 11.6822 5.35832C11.8347 5.28365 12.0011 5.24509 12.1695 5.24538C12.4388 5.24819 12.6985 5.35015 12.9031 5.53338L15.1955 7.52538C15.3253 7.63798 15.4297 7.77917 15.5015 7.93888C15.5732 8.0986 15.6104 8.2729 15.6104 8.44938C15.6104 8.62586 15.5732 8.80017 15.5015 8.95988C15.4297 9.11959 15.3253 9.26078 15.1955 9.37338L12.9031 11.3654C12.788 11.4671 12.6548 11.5441 12.5113 11.5919C12.3677 11.6398 12.2166 11.6575 12.0665 11.6441C11.9164 11.6307 11.7703 11.5865 11.6365 11.514Z" fill="#152C5B"/>
</svg>
