<svg width="12" height="12" viewBox="0 0 16 12" fill="none" xmlns="http://www.w3.org/2000/svg">
<path opacity="0.4" d="M1.1462 2.4H14.8538C15.1578 2.4 15.4493 2.27357 15.6643 2.04853C15.8792 1.82348 16 1.51826 16 1.2C16 0.88174 15.8792 0.576516 15.6643 0.351472C15.4493 0.126428 15.1578 0 14.8538 0L1.1462 0C0.842209 0 0.550668 0.126428 0.335714 0.351472C0.12076 0.576516 0 0.88174 0 1.2C0 1.51826 0.12076 1.82348 0.335714 2.04853C0.550668 2.27357 0.842209 2.4 1.1462 2.4ZM1.1462 7.2H6.82672C7.13071 7.2 7.42225 7.07357 7.63721 6.84853C7.85216 6.62349 7.97292 6.31826 7.97292 6C7.97292 5.68174 7.85216 5.37652 7.63721 5.15147C7.42225 4.92643 7.13071 4.8 6.82672 4.8H1.1462C0.842209 4.8 0.550668 4.92643 0.335714 5.15147C0.12076 5.37652 0 5.68174 0 6C0 6.31826 0.12076 6.62349 0.335714 6.84853C0.550668 7.07357 0.842209 7.2 1.1462 7.2ZM15.3451 5.67253C15.248 5.55189 15.1292 5.45246 14.9955 5.37992C14.8617 5.30739 14.7156 5.26317 14.5655 5.24979C14.4154 5.23642 14.2643 5.25415 14.1207 5.30198C13.9772 5.34981 13.844 5.42679 13.7289 5.52853L11.4365 7.52053C11.3067 7.63313 11.2022 7.77432 11.1305 7.93403C11.0588 8.09374 11.0216 8.26805 11.0216 8.44453C11.0216 8.62101 11.0588 8.79531 11.1305 8.95503C11.2022 9.11474 11.3067 9.25593 11.4365 9.36853L13.7289 11.3605C13.9335 11.5438 14.1932 11.6457 14.4625 11.6485C14.6309 11.6488 14.7973 11.6103 14.9498 11.5356C15.1023 11.4609 15.2373 11.352 15.3451 11.2165C15.4416 11.0953 15.5143 10.9553 15.559 10.8045C15.6038 10.6538 15.6197 10.4953 15.6059 10.3382C15.592 10.181 15.5487 10.0282 15.4784 9.88861C15.4081 9.74899 15.3121 9.62527 15.1961 9.52453L13.9582 8.44453L15.1961 7.36453C15.3121 7.26379 15.4081 7.14007 15.4784 7.00045C15.5487 6.86084 15.592 6.70807 15.6059 6.55089C15.6197 6.39372 15.6038 6.23523 15.559 6.08451C15.5143 5.93379 15.4416 5.79379 15.3451 5.67253ZM1.1462 12H6.82672C7.13071 12 7.42225 11.8736 7.63721 11.6485C7.85216 11.4235 7.97292 11.1183 7.97292 10.8C7.97292 10.4817 7.85216 10.1765 7.63721 9.95147C7.42225 9.72643 7.13071 9.6 6.82672 9.6H1.1462C0.842209 9.6 0.550668 9.72643 0.335714 9.95147C0.12076 10.1765 0 10.4817 0 10.8C0 11.1183 0.12076 11.4235 0.335714 11.6485C0.550668 11.8736 0.842209 12 1.1462 12Z" fill="#152C5B"/>
</svg>
