<svg width="21" height="25" viewBox="0 0 21 25" fill="none" xmlns="http://www.w3.org/2000/svg">
<g opacity="0.3">
<path d="M17.9642 3.44629H17.2857C17.0821 3.44629 16.9464 3.582 16.9464 3.78557V5.14271C16.9464 6.63556 15.7249 7.85699 14.2321 7.85699H6.76784C5.27498 7.85699 4.05356 6.63556 4.05356 5.14271V3.78557C4.05356 3.582 3.91785 3.44629 3.71428 3.44629H3.03571C1.91607 3.44629 1 4.36236 1 5.482V21.0891C1 22.2087 1.91607 23.1248 3.03571 23.1248H17.9642C19.0839 23.1248 19.9999 22.2087 19.9999 21.0891V5.482C19.9999 4.36236 19.0839 3.44629 17.9642 3.44629Z" stroke="#152C5B" stroke-width="2"/>
<path d="M7.12901 5.42741H13.8709C14.208 5.42741 14.4838 5.1516 14.4838 4.8145V3.5887C14.4838 2.57742 13.6564 1.75 12.6451 1.75H8.35482C7.34353 1.75 6.51611 2.57742 6.51611 3.5887V4.8145C6.51611 5.1516 6.79192 5.42741 7.12901 5.42741Z" stroke="#152C5B" stroke-width="2"/>
<path d="M7.80437 18.0821C7.80437 18.3503 7.57796 18.5697 7.30122 18.5697H6.79807C6.52134 18.5697 6.29492 18.3503 6.29492 18.0821V15.6445C6.29492 15.3764 6.52134 15.157 6.79807 15.157H7.30122C7.57796 15.157 7.80437 15.3764 7.80437 15.6445V18.0821ZM11.2546 18.0821C11.2546 18.3503 11.0281 18.5697 10.7514 18.5697H10.2483C9.97152 18.5697 9.7451 18.3503 9.7451 18.0821V13.4507C9.7451 13.1825 9.97152 12.9631 10.2483 12.9631H10.7514C11.0281 12.9631 11.2546 13.1825 11.2546 13.4507V18.0821ZM14.7047 18.0821C14.7047 18.3503 14.4783 18.5697 14.2016 18.5697H13.6984C13.4217 18.5697 13.1953 18.3503 13.1953 18.0821V14.4257C13.1953 14.1576 13.4217 13.9382 13.6984 13.9382H14.2016C14.4783 13.9382 14.7047 14.1576 14.7047 14.4257V18.0821Z" fill="#152C5B" stroke="#152C5B"/>
</g>
</svg>
