<svg width="16" height="16" viewBox="0 0 30 30" fill="none" xmlns="http://www.w3.org/2000/svg">
<g opacity="0.3">
<path d="M15.3727 15.7718C16.0042 15.2012 16.5106 14.4956 16.8578 13.7027C17.2049 12.9098 17.3845 12.0482 17.3845 11.1765C17.3845 9.53837 16.7611 7.96736 15.6514 6.80905C14.5418 5.65073 13.0367 5 11.4674 5C9.89808 5 8.39304 5.65073 7.28336 6.80905C6.17368 7.96736 5.55028 9.53837 5.55028 11.1765C5.55027 12.0482 5.72992 12.9098 6.07705 13.7027C6.42417 14.4956 6.93065 15.2012 7.5621 15.7718C5.90547 16.5548 4.49994 17.8193 3.51358 19.4141C2.52721 21.0089 2.00174 22.8664 2 24.7647C2 25.0923 2.12468 25.4065 2.34662 25.6382C2.56855 25.8699 2.86956 26 3.18343 26C3.49729 26 3.7983 25.8699 4.02023 25.6382C4.24217 25.4065 4.36685 25.0923 4.36685 24.7647C4.36685 22.799 5.11494 20.9138 6.44655 19.5238C7.77816 18.1338 9.58422 17.3529 11.4674 17.3529C13.3506 17.3529 15.1566 18.1338 16.4882 19.5238C17.8199 20.9138 18.568 22.799 18.568 24.7647C18.568 25.0923 18.6926 25.4065 18.9146 25.6382C19.1365 25.8699 19.4375 26 19.7514 26C20.0652 26 20.3662 25.8699 20.5882 25.6382C20.8101 25.4065 20.9348 25.0923 20.9348 24.7647C20.9331 22.8664 20.4076 21.0089 19.4212 19.4141C18.4349 17.8193 17.0293 16.5548 15.3727 15.7718ZM11.4674 14.8824C10.7652 14.8824 10.0788 14.665 9.49497 14.2578C8.91113 13.8506 8.45609 13.2718 8.18737 12.5947C7.91866 11.9175 7.84835 11.1724 7.98534 10.4535C8.12233 9.73462 8.46046 9.07429 8.95698 8.55602C9.45349 8.03774 10.0861 7.68479 10.7748 7.5418C11.4635 7.3988 12.1773 7.47219 12.826 7.75268C13.4748 8.03317 14.0292 8.50816 14.4193 9.11759C14.8095 9.72702 15.0177 10.4435 15.0177 11.1765C15.0177 12.1593 14.6436 13.1019 13.9778 13.7969C13.312 14.4919 12.409 14.8824 11.4674 14.8824ZM22.994 15.2776C23.7513 14.3874 24.246 13.2877 24.4186 12.1108C24.5911 10.9339 24.4341 9.73003 23.9665 8.64412C23.4988 7.5582 22.7405 6.63651 21.7827 5.98999C20.8249 5.34347 19.7085 4.99968 18.568 5C18.2541 5 17.9531 5.13015 17.7311 5.36181C17.5092 5.59347 17.3845 5.90767 17.3845 6.23529C17.3845 6.56291 17.5092 6.87712 17.7311 7.10878C17.9531 7.34044 18.2541 7.47059 18.568 7.47059C19.5095 7.47059 20.4126 7.86103 21.0784 8.55602C21.7442 9.251 22.1182 10.1936 22.1182 11.1765C22.1166 11.8253 21.9517 12.4623 21.6402 13.0238C21.3287 13.5852 20.8814 14.0515 20.3431 14.3759C20.1676 14.4815 20.0211 14.6324 19.9175 14.8141C19.8139 14.9958 19.7567 15.2022 19.7514 15.4135C19.7464 15.6232 19.7927 15.8308 19.8859 16.0167C19.9791 16.2025 20.116 16.3606 20.2839 16.4759L20.7455 16.7971L20.8993 16.8835C22.3258 17.5898 23.5292 18.7068 24.3679 20.1031C25.2065 21.4994 25.6455 23.1167 25.633 24.7647C25.633 25.0923 25.7577 25.4065 25.9796 25.6382C26.2016 25.8699 26.5026 26 26.8164 26C27.1303 26 27.4313 25.8699 27.6532 25.6382C27.8752 25.4065 27.9998 25.0923 27.9998 24.7647C28.0095 22.8691 27.5547 21.0023 26.6785 19.3418C25.8024 17.6814 24.534 16.2823 22.994 15.2776Z" fill="#152C5B"/>
</g>
</svg>
