<svg width="16" height="16" viewBox="0 0 23 17" fill="none" xmlns="http://www.w3.org/2000/svg">
<g opacity="0.7">
<path d="M14.4941 8.46828C15.0122 8.01975 15.4279 7.46499 15.7127 6.84166C15.9976 6.21832 16.145 5.541 16.145 4.85567C16.145 3.56786 15.6334 2.33281 14.7228 1.42219C13.8122 0.511578 12.5771 0 11.2893 0C10.0015 0 8.76647 0.511578 7.85586 1.42219C6.94524 2.33281 6.43366 3.56786 6.43366 4.85567C6.43366 5.541 6.58108 6.21832 6.86594 6.84166C7.1508 7.46499 7.56642 8.01975 8.08459 8.46828C6.72514 9.08387 5.57175 10.078 4.76232 11.3317C3.9529 12.5855 3.52169 14.0458 3.52026 15.5381C3.52026 15.7957 3.62258 16.0427 3.8047 16.2248C3.98682 16.407 4.23384 16.5093 4.4914 16.5093C4.74896 16.5093 4.99597 16.407 5.17809 16.2248C5.36022 16.0427 5.46253 15.7957 5.46253 15.5381C5.46253 13.9928 6.07642 12.5107 7.16916 11.418C8.2619 10.3252 9.74397 9.71133 11.2893 9.71133C12.8347 9.71133 14.3168 10.3252 15.4095 11.418C16.5022 12.5107 17.1161 13.9928 17.1161 15.5381C17.1161 15.7957 17.2184 16.0427 17.4006 16.2248C17.5827 16.407 17.8297 16.5093 18.0873 16.5093C18.3448 16.5093 18.5918 16.407 18.774 16.2248C18.9561 16.0427 19.0584 15.7957 19.0584 15.5381C19.057 14.0458 18.6258 12.5855 17.8163 11.3317C17.0069 10.078 15.8535 9.08387 14.4941 8.46828ZM11.2893 7.76907C10.7131 7.76907 10.1498 7.5982 9.67073 7.27807C9.19163 6.95794 8.81821 6.50293 8.5977 5.97058C8.37719 5.43822 8.3195 4.85243 8.43191 4.28729C8.54433 3.72215 8.8218 3.20303 9.22925 2.79558C9.63669 2.38814 10.1558 2.11066 10.721 1.99825C11.2861 1.88583 11.8719 1.94353 12.4042 2.16404C12.9366 2.38454 13.3916 2.75796 13.7117 3.23707C14.0319 3.71617 14.2027 4.27945 14.2027 4.85567C14.2027 5.62835 13.8958 6.36938 13.3494 6.91575C12.803 7.46212 12.062 7.76907 11.2893 7.76907Z" fill="#152C5B"/>
<path d="M19.5335 7.61851C20.0402 7.01642 20.3711 6.27263 20.4866 5.47667C20.602 4.68072 20.4969 3.86652 20.1841 3.13209C19.8713 2.39766 19.364 1.77429 18.7232 1.33704C18.0825 0.89978 17.3357 0.667265 16.5727 0.667481C16.3627 0.667481 16.1613 0.755502 16.0129 0.912181C15.8644 1.06886 15.781 1.28136 15.781 1.50294C15.781 1.72452 15.8644 1.93702 16.0129 2.0937C16.1613 2.25038 16.3627 2.3384 16.5727 2.3384C17.2026 2.3384 17.8067 2.60247 18.2521 3.0725C18.6975 3.54254 18.9477 4.18005 18.9477 4.84478C18.9466 5.2836 18.8363 5.71442 18.6279 6.09415C18.4195 6.47388 18.1203 6.78922 17.7602 7.00862C17.6428 7.08007 17.5448 7.18212 17.4755 7.305C17.4062 7.42787 17.3679 7.56746 17.3644 7.71041C17.361 7.85224 17.392 7.99263 17.4543 8.11833C17.5167 8.24404 17.6083 8.35092 17.7206 8.42891L18.0294 8.64613L18.1323 8.70461C19.0866 9.18226 19.8916 9.93774 20.4527 10.8821C21.0137 11.8264 21.3073 12.9203 21.299 14.0348C21.299 14.2564 21.3824 14.4689 21.5308 14.6256C21.6793 14.7823 21.8807 14.8703 22.0906 14.8703C22.3006 14.8703 22.502 14.7823 22.6504 14.6256C22.7989 14.4689 22.8823 14.2564 22.8823 14.0348C22.8888 12.7528 22.5845 11.4902 21.9984 10.3672C21.4123 9.24421 20.5638 8.298 19.5335 7.61851Z" fill="#152C5B"/>
<path d="M3.34879 7.61851C2.84214 7.01642 2.51119 6.27263 2.39577 5.47667C2.28035 4.68072 2.38538 3.86652 2.69822 3.13209C3.01105 2.39766 3.51837 1.77429 4.15909 1.33704C4.79981 0.89978 5.54662 0.667265 6.30964 0.667481C6.51961 0.667481 6.72097 0.755502 6.86944 0.912181C7.01791 1.06886 7.10132 1.28136 7.10132 1.50294C7.10132 1.72452 7.01791 1.93702 6.86944 2.0937C6.72097 2.25038 6.51961 2.3384 6.30964 2.3384C5.67975 2.3384 5.07565 2.60247 4.63025 3.0725C4.18485 3.54254 3.93462 4.18005 3.93462 4.84478C3.93574 5.2836 4.04602 5.71442 4.25441 6.09415C4.46281 6.47388 4.76202 6.78922 5.12213 7.00862C5.23951 7.08007 5.33754 7.18212 5.40685 7.305C5.47616 7.42787 5.51442 7.56746 5.51797 7.71041C5.52128 7.85224 5.49032 7.99263 5.42799 8.11833C5.36566 8.24404 5.27402 8.35092 5.16172 8.42891L4.85296 8.64613L4.75005 8.70461C3.79577 9.18226 2.9907 9.93774 2.42967 10.8821C1.86864 11.8264 1.57501 12.9203 1.58335 14.0348C1.58335 14.2564 1.49994 14.4689 1.35148 14.6256C1.20301 14.7823 1.00165 14.8703 0.791681 14.8703C0.581716 14.8703 0.380351 14.7823 0.231883 14.6256C0.0834155 14.4689 6.19888e-06 14.2564 6.19888e-06 14.0348C-0.00646496 12.7528 0.297816 11.4902 0.883936 10.3672C1.47006 9.24421 2.31855 8.298 3.34879 7.61851Z" fill="#152C5B"/>
</g>
</svg>
