<svg width="26" height="26" viewBox="0 0 26 26" fill="none" xmlns="http://www.w3.org/2000/svg">
<path d="M13.3 13.72C13.8336 13.2581 14.2616 12.6869 14.5549 12.045C14.8482 11.4032 15 10.7057 15 10C15 8.67392 14.4732 7.40215 13.5355 6.46447C12.5979 5.52678 11.3261 5 10 5C8.67392 5 7.40215 5.52678 6.46447 6.46447C5.52678 7.40215 5 8.67392 5 10C4.99999 10.7057 5.1518 11.4032 5.44513 12.045C5.73845 12.6869 6.16642 13.2581 6.7 13.72C5.30014 14.3539 4.11247 15.3775 3.27898 16.6685C2.4455 17.9596 2.00147 19.4633 2 21C2 21.2652 2.10536 21.5196 2.29289 21.7071C2.48043 21.8946 2.73478 22 3 22C3.26522 22 3.51957 21.8946 3.70711 21.7071C3.89464 21.5196 4 21.2652 4 21C4 19.4087 4.63214 17.8826 5.75736 16.7574C6.88258 15.6321 8.4087 15 10 15C11.5913 15 13.1174 15.6321 14.2426 16.7574C15.3679 17.8826 16 19.4087 16 21C16 21.2652 16.1054 21.5196 16.2929 21.7071C16.4804 21.8946 16.7348 22 17 22C17.2652 22 17.5196 21.8946 17.7071 21.7071C17.8946 21.5196 18 21.2652 18 21C17.9985 19.4633 17.5545 17.9596 16.721 16.6685C15.8875 15.3775 14.6999 14.3539 13.3 13.72ZM10 13C9.40666 13 8.82664 12.8241 8.33329 12.4944C7.83994 12.1648 7.45542 11.6962 7.22836 11.1481C7.0013 10.5999 6.94189 9.99667 7.05764 9.41473C7.1734 8.83279 7.45912 8.29824 7.87868 7.87868C8.29824 7.45912 8.83279 7.1734 9.41473 7.05764C9.99667 6.94189 10.5999 7.0013 11.1481 7.22836C11.6962 7.45542 12.1648 7.83994 12.4944 8.33329C12.8241 8.82664 13 9.40666 13 10C13 10.7956 12.6839 11.5587 12.1213 12.1213C11.5587 12.6839 10.7956 13 10 13ZM19.74 13.32C20.38 12.5993 20.798 11.7091 20.9438 10.7563C21.0896 9.80362 20.9569 8.82907 20.5618 7.95C20.1666 7.07093 19.5258 6.3248 18.7165 5.80142C17.9071 5.27805 16.9638 4.99974 16 5C15.7348 5 15.4804 5.10536 15.2929 5.29289C15.1054 5.48043 15 5.73478 15 6C15 6.26522 15.1054 6.51957 15.2929 6.70711C15.4804 6.89464 15.7348 7 16 7C16.7956 7 17.5587 7.31607 18.1213 7.87868C18.6839 8.44129 19 9.20435 19 10C18.9986 10.5252 18.8593 11.0409 18.5961 11.4954C18.3328 11.9499 17.9549 12.3274 17.5 12.59C17.3517 12.6755 17.2279 12.7977 17.1404 12.9447C17.0528 13.0918 17.0045 13.2589 17 13.43C16.9958 13.5998 17.0349 13.7678 17.1137 13.9183C17.1924 14.0687 17.3081 14.1967 17.45 14.29L17.84 14.55L17.97 14.62C19.1754 15.1917 20.1923 16.096 20.901 17.2263C21.6096 18.3566 21.9805 19.6659 21.97 21C21.97 21.2652 22.0754 21.5196 22.2629 21.7071C22.4504 21.8946 22.7048 22 22.97 22C23.2352 22 23.4896 21.8946 23.6771 21.7071C23.8646 21.5196 23.97 21.2652 23.97 21C23.9782 19.4654 23.5938 17.9543 22.8535 16.6101C22.1131 15.2659 21.0413 14.1333 19.74 13.32Z" fill="#0075FF"/>
</svg>
