<svg width="17" height="15" viewBox="0 0 17 15" fill="none" xmlns="http://www.w3.org/2000/svg">
<path opacity="0.8" d="M11.9084 4.59167L13.8251 6.5L5.83342 6.5C5.61241 6.5 5.40044 6.5878 5.24416 6.74408C5.08788 6.90036 5.00009 7.11232 5.00009 7.33333C5.00009 7.55435 5.08788 7.76631 5.24416 7.92259C5.40044 8.07887 5.61241 8.16667 5.83342 8.16667L13.8251 8.16667L11.9084 10.075C11.8303 10.1525 11.7683 10.2446 11.726 10.3462C11.6837 10.4477 11.6619 10.5567 11.6619 10.6667C11.6619 10.7767 11.6837 10.8856 11.726 10.9871C11.7683 11.0887 11.8303 11.1809 11.9084 11.2583C11.9859 11.3364 12.0781 11.3984 12.1796 11.4407C12.2812 11.4831 12.3901 11.5048 12.5001 11.5048C12.6101 11.5048 12.719 11.4831 12.8206 11.4407C12.9221 11.3984 13.0143 11.3364 13.0918 11.2583L16.4251 7.925C16.501 7.84575 16.5604 7.75229 16.6001 7.65C16.6834 7.44712 16.6834 7.21955 16.6001 7.01667C16.5604 6.91437 16.501 6.82092 16.4251 6.74167L13.0918 3.40833C13.0141 3.33063 12.9218 3.269 12.8203 3.22695C12.7188 3.1849 12.61 3.16326 12.5001 3.16326C12.3902 3.16326 12.2814 3.1849 12.1799 3.22695C12.0784 3.269 11.9861 3.33063 11.9084 3.40833C11.8307 3.48603 11.7691 3.57827 11.727 3.67979C11.685 3.78131 11.6633 3.89012 11.6633 4C11.6633 4.10988 11.685 4.21869 11.727 4.32021C11.7691 4.42173 11.8307 4.51397 11.9084 4.59167ZM8.66675 13.8333C8.66675 13.6123 8.57896 13.4004 8.42268 13.2441C8.26639 13.0878 8.05443 13 7.83342 13L2.50009 13C2.27907 13 2.06711 12.9122 1.91083 12.7559C1.75455 12.5996 1.66675 12.3877 1.66675 12.1667L1.66675 2.5C1.66675 2.27899 1.75455 2.06702 1.91083 1.91074C2.06711 1.75446 2.27907 1.66667 2.50009 1.66667L7.83342 1.66667C8.05443 1.66667 8.2664 1.57887 8.42268 1.42259C8.57896 1.26631 8.66675 1.05435 8.66675 0.833333C8.66675 0.612319 8.57896 0.400358 8.42268 0.244077C8.2664 0.0877969 8.05443 -3.76275e-07 7.83342 -3.85936e-07L2.50009 -5.59458e-07C1.83704 -5.88441e-07 1.20116 0.263392 0.732319 0.732233C0.263477 1.20107 8.57504e-05 1.83696 8.57214e-05 2.5L8.52989e-05 12.1667C8.52699e-05 12.8297 0.263477 13.4656 0.732318 13.9344C1.20116 14.4033 1.83704 14.6667 2.50009 14.6667L7.83342 14.6667C8.05443 14.6667 8.26639 14.5789 8.42268 14.4226C8.57896 14.2663 8.66675 14.0543 8.66675 13.8333Z" fill="#152C5B"/>
</svg>
