<svg width="21" height="20" viewBox="0 0 21 20" fill="none" xmlns="http://www.w3.org/2000/svg">
<path opacity="0.3" d="M7.52508 14.3952C7.52508 16.4584 5.83946 18.1284 3.76254 18.1284C1.68562 18.1284 0 16.4559 0 14.3952C0 12.3345 1.68562 10.662 3.76254 10.662C5.83946 10.662 7.52508 12.3345 7.52508 14.3952ZM3.76254 16.3365C4.84365 16.3365 5.71906 15.4679 5.71906 14.3952C5.71906 13.3225 4.84365 12.454 3.76254 12.454C2.68144 12.454 1.80602 13.3225 1.80602 14.3952C1.80602 15.4679 2.68144 16.3365 3.76254 16.3365ZM10.4649 7.4664C8.38796 7.4664 6.70234 5.79393 6.70234 3.7332C6.70234 1.67247 8.38796 0 10.4649 0C12.5418 0 14.2274 1.67247 14.2274 3.7332C14.2274 5.79393 12.5418 7.4664 10.4649 7.4664ZM10.4649 1.79194C9.38378 1.79194 8.50836 2.66053 8.50836 3.7332C8.50836 4.80587 9.38378 5.67447 10.4649 5.67447C11.546 5.67447 12.4214 4.80587 12.4214 3.7332C12.4214 2.66053 11.546 1.79194 10.4649 1.79194ZM17.2375 10.662C19.3169 10.662 21 12.3345 21 14.3952C21 16.4559 19.3144 18.1284 17.2375 18.1284C15.1605 18.1284 13.4749 16.4559 13.4749 14.3952C13.4749 12.3345 15.1605 10.662 17.2375 10.662ZM17.2375 16.3365C18.3186 16.3365 19.194 15.4679 19.194 14.3952C19.194 13.3225 18.3186 12.454 17.2375 12.454C16.1564 12.454 15.2809 13.3225 15.2809 14.3952C15.2809 15.4679 16.1564 16.3365 17.2375 16.3365ZM17.5385 10.0846C17.2475 8.09607 16.1237 6.37631 14.5309 5.27875C14.7166 4.79841 14.8194 4.27576 14.8194 3.73071C14.8194 3.59881 14.8144 3.4669 14.8018 3.33748C17.4256 4.78347 19.2441 7.49876 19.4072 10.6471C18.8503 10.3285 18.2157 10.1294 17.5385 10.0846ZM13.9967 17.2822C14.4356 17.7651 14.9799 18.1483 15.5945 18.3972C14.1421 19.4077 12.3737 20 10.4649 20C8.56856 20 6.8102 19.4151 5.36037 18.4171C5.98244 18.1732 6.53428 17.7924 6.97826 17.3096C8.01171 17.882 9.19816 18.2081 10.4649 18.2081C11.7492 18.2081 12.9557 17.8721 13.9967 17.2822ZM6.39883 5.28124C4.80351 6.37631 3.67977 8.10105 3.3913 10.0921C2.71154 10.1493 2.07441 10.3609 1.52007 10.6919C1.67057 7.52364 3.49164 4.79094 6.12793 3.33997C6.11789 3.46939 6.11037 3.60129 6.11037 3.7332C6.11037 4.27825 6.21321 4.8009 6.39883 5.28124Z" fill="#152C5B"/>
</svg>
