<svg width="16" height="16" viewBox="0 0 30 22" fill="none" xmlns="http://www.w3.org/2000/svg">
<g opacity="0.3">
<path d="M26.6406 20.3104H3.90077C2.85925 20.3104 2 19.444 2 18.3744V7.59812C2 6.53729 2.85057 5.66211 3.90077 5.66211H26.6492C27.6907 5.66211 28.55 6.52845 28.55 7.59812V18.3744C28.5413 19.444 27.6907 20.3104 26.6406 20.3104Z" stroke="#152C5B" stroke-width="2.1" stroke-miterlimit="10"/>
<path d="M25.8035 5.66207H4.74658V2.81885C4.74658 2.36393 5.14821 2 5.63181 2H24.9101C25.4018 2 25.7953 2.37151 25.7953 2.81885V5.66207H25.8035Z" stroke="#152C5B" stroke-width="2.1" stroke-miterlimit="10"/>
<path d="M23.9725 12.9862C23.9725 15.9761 22.6382 18.6297 20.5619 20.3104H9.98822C7.91185 18.6297 6.57764 15.9672 6.57764 12.9862C6.57764 9.99644 7.91185 7.34277 9.98822 5.66211H20.5619C22.6382 7.34277 23.9725 9.99644 23.9725 12.9862Z" stroke="#152C5B" stroke-width="2.1" stroke-miterlimit="10"/>
<path d="M17.86 15.5514C17.6557 15.862 17.3614 16.0991 16.9853 16.2872C16.6092 16.467 16.1759 16.5733 15.6854 16.606V17.3581C15.6854 17.4481 15.6527 17.5298 15.5873 17.5952C15.5219 17.6606 15.4402 17.6933 15.3421 17.6933C15.2521 17.6933 15.1704 17.6606 15.105 17.6034C15.0396 17.5462 15.0069 17.4644 15.0069 17.3663V16.6142C14.2466 16.5651 13.5353 16.3934 12.8568 16.1073C12.775 16.0746 12.7015 16.0092 12.6361 15.9274C12.5788 15.8457 12.5461 15.7557 12.5461 15.6576C12.5461 15.5268 12.587 15.4206 12.6769 15.3306C12.7587 15.2407 12.8732 15.1998 12.9958 15.1998C13.0775 15.1998 13.1429 15.2162 13.2002 15.2407C13.7724 15.4941 14.3774 15.6413 15.0069 15.6658V13.2214C14.5164 13.0906 14.1076 12.9516 13.797 12.8044C13.4127 12.6327 13.1184 12.4038 12.9222 12.1095C12.726 11.8234 12.6197 11.4882 12.6197 11.1039C12.6197 10.736 12.7096 10.3845 12.8977 10.0656C13.0939 9.73862 13.3718 9.46883 13.7316 9.27262C14.0994 9.07641 14.5245 8.95378 15.0069 8.90472V8.16893C15.0069 8.079 15.0396 7.99725 15.105 7.93185C15.1704 7.86644 15.244 7.83374 15.3421 7.83374C15.432 7.83374 15.5137 7.86644 15.5792 7.93185C15.6446 7.99725 15.6773 8.079 15.6773 8.16893V8.89655C16.3803 8.92925 16.9935 9.05188 17.533 9.24809C17.7374 9.32985 17.8437 9.47701 17.8437 9.68957C17.8437 9.80402 17.8028 9.9103 17.7129 10.0084C17.6311 10.1065 17.5249 10.1556 17.4022 10.1556C17.3532 10.1556 17.2959 10.1392 17.2305 10.1147C16.7564 9.94301 16.2413 9.8449 15.6773 9.82855V12.3548C16.1596 12.4692 16.5847 12.6 16.9526 12.7472C17.3205 12.9025 17.6148 13.1314 17.8273 13.4176C18.0399 13.7037 18.1462 14.0716 18.1462 14.5131C18.1625 14.8891 18.0562 15.2407 17.86 15.5514ZM13.9523 11.7416C14.173 11.9133 14.5245 12.0604 15.0151 12.1913V9.85308C14.5736 9.91848 14.2302 10.0493 13.985 10.2618C13.7397 10.4662 13.6171 10.7278 13.6171 11.0303C13.6171 11.3328 13.7316 11.5699 13.9523 11.7416ZM17.1733 14.4477C17.1733 14.1942 17.0589 13.9817 16.8218 13.8263C16.5929 13.671 16.2086 13.5157 15.6773 13.3767V15.6576C16.6746 15.5841 17.1733 15.1835 17.1733 14.4477Z" fill="#152C5B" stroke="#152C5B" stroke-width="0.8" stroke-miterlimit="10"/>
</g>
</svg>
