<svg width="23" height="21" viewBox="0 0 23 21" fill="none" xmlns="http://www.w3.org/2000/svg">
<path opacity="0.3" d="M19.9 1C21.0599 1 22 1.91143 22 3.03568V17.9643C22 19.0886 21.0599 20 19.9 20H15.7C14.54 20 13.6 19.0886 13.6 17.9643L13.5994 14.5714H10.8048C10.4854 14.5714 10.1913 14.6795 9.95703 14.8602C10.8727 15.3065 11.5 16.225 11.5 17.2857C11.5 18.7845 10.2466 20 8.69981 20C7.15353 20 5.90016 18.7845 5.90016 17.2857C5.90016 15.8841 6.99604 14.7305 8.4025 14.5867C8.64091 14.166 8.9892 13.8155 9.41146 13.5711C9.83373 13.3267 10.3147 13.1974 10.8048 13.1964L13.5994 13.1958V11.1786H6.51193C6.2008 12.3495 5.10439 13.2143 3.8002 13.2143C2.25337 13.2143 1 11.9988 1 10.5C1 9.00122 2.25337 7.78574 3.80017 7.78574C5.10439 7.78574 6.20135 8.65105 6.51193 9.82142H13.5994V8.48224H10.8048C9.4989 8.48224 8.40468 7.58105 8.11623 6.36941C6.85071 6.10939 5.90016 5.01935 5.90016 3.71429C5.90016 2.21548 7.15353 1.00003 8.69981 1.00003C10.2466 1.00003 11.5 2.21548 11.5 3.71429C11.5 4.92705 10.6799 5.9536 9.54754 6.3021C9.65557 6.54122 9.83178 6.74449 10.0549 6.88735C10.278 7.0302 10.5384 7.10654 10.8047 7.10713L13.5994 7.10659L13.6 3.03571C13.6 1.91143 14.54 1 15.7 1H19.8999H19.9ZM19.9 2.35713H15.7C15.3131 2.35713 14.9998 2.66115 14.9998 3.03571V17.9643C14.9998 18.3388 15.3131 18.6428 15.7 18.6428H19.9C20.2868 18.6428 20.6002 18.3388 20.6002 17.9643V3.03571C20.6002 2.66112 20.2868 2.35713 19.9 2.35713ZM8.92474 15.9459H8.47489C7.8084 16.0501 7.3 16.6104 7.3 17.2857C7.3 18.0349 7.92669 18.6428 8.69981 18.6428C9.47349 18.6428 10.1002 18.0348 10.1002 17.2857C10.1002 16.6104 9.59175 16.0502 8.92529 15.9459H8.92474ZM3.80073 9.14284C3.02705 9.14284 2.40036 9.75085 2.40036 10.5C2.40036 11.2491 3.0276 11.8571 3.80073 11.8571C4.57388 11.8571 5.20054 11.2491 5.20054 10.5C5.20054 9.75088 4.5733 9.14284 3.80017 9.14284H3.80073ZM8.70037 2.35713C7.92721 2.35713 7.30053 2.96514 7.30053 3.71426C7.30053 4.46338 7.92721 5.07142 8.70037 5.07142C9.47405 5.07142 10.1007 4.46341 10.1007 3.71426C10.1007 2.96511 9.47349 2.35713 8.70037 2.35713Z" fill="#152C5B" stroke="#152C5B" stroke-width="0.4"/>
</svg>
