<svg width="16" height="16" viewBox="0 0 32 32" fill="none" xmlns="http://www.w3.org/2000/svg">
<path opacity="0.3" d="M27.741 23.0515L27.7402 23.0501L24.1269 16.8101L24.0987 16.7615L24.1256 16.7122C24.8569 15.3689 25.2379 13.8631 25.2334 12.3336V12.3333C25.2334 9.8845 24.2606 7.53597 22.529 5.80438C20.7974 4.07279 18.4489 3.1 16.0001 3.1C13.5512 3.1 11.2027 4.07279 9.4711 5.80438C7.73952 7.53597 6.76672 9.8845 6.76672 12.3333V12.3336C6.76218 13.8631 7.14319 15.3689 7.87455 16.7122L7.90141 16.7615L7.87326 16.8101L4.25999 23.05L27.741 23.0515ZM27.741 23.0515C27.8563 23.2433 27.9171 23.4629 27.9171 23.6867C27.9171 23.9104 27.8563 24.13 27.741 24.3218L27.7401 24.3233C27.6315 24.5115 27.475 24.6677 27.2866 24.776C27.0981 24.8843 26.8844 24.9409 26.6671 24.94H26.6667H22.8401H22.7831L22.7541 24.989L20.8074 28.269L20.8068 28.2699C20.7515 28.3655 20.6817 28.4518 20.5997 28.5258L20.5997 28.5257L20.5973 28.528C20.3656 28.7513 20.0558 28.8753 19.734 28.8733H19.7334H19.5533C19.3705 28.8486 19.1956 28.7831 19.0414 28.6817C18.8856 28.5793 18.7551 28.4429 18.6597 28.2827C18.6595 28.2826 18.6594 28.2824 18.6593 28.2822L16.0867 23.8167L16.0004 23.667L15.9136 23.8164L13.3403 28.2431L13.3402 28.2433C13.2461 28.4059 13.116 28.5449 12.96 28.6497C12.8058 28.7532 12.6302 28.8205 12.4464 28.8467M27.741 23.0515L12.4464 28.8467M5.33299 24.9L5.33339 24.9H9.16006H9.21699L9.24605 24.949L11.1923 28.2283C11.1924 28.2284 11.1924 28.2285 11.1925 28.2286C11.2532 28.329 11.3279 28.4203 11.4143 28.4997L11.4161 28.5013C11.6447 28.7216 11.9493 28.8453 12.2667 28.8467C12.2669 28.8467 12.267 28.8467 12.2671 28.8467M5.33299 24.9L12.2667 28.9467L12.2671 28.8467M5.33299 24.9C5.11608 24.9009 4.90278 24.8445 4.71461 24.7366C4.52643 24.6287 4.37004 24.4731 4.26121 24.2855C4.15238 24.0978 4.09497 23.8848 4.09475 23.6679C4.09454 23.451 4.15151 23.2379 4.25993 23.0501L5.33299 24.9ZM12.2671 28.8467L12.4464 28.8467M12.2671 28.8467L12.4464 28.8467M12.1675 25.0913L12.2544 25.2366L12.3397 25.0904L14.3797 21.5971L14.4513 21.4745L14.3118 21.4484C12.5387 21.1167 10.9017 20.2729 9.60278 19.0213L9.51066 18.9326L9.44676 19.0434L7.54009 22.35L7.45363 22.5H7.62672H9.93292C10.1447 22.5023 10.3523 22.559 10.5357 22.6648C10.7194 22.7706 10.8726 22.922 10.9807 23.1043L10.9809 23.1046L12.1675 25.0913ZM22.0677 22.5L22.0685 22.5L24.3751 22.46L24.5448 22.457L24.46 22.31L22.5534 19.0034L22.4896 18.8928L22.3975 18.9812C21.0994 20.2269 19.4682 21.07 17.7012 21.4085L17.5636 21.4348L17.6333 21.5564L19.66 25.0898L19.745 25.2379L19.8326 25.0913L21.0192 23.1046L21.0194 23.1043C21.1275 22.922 21.2807 22.7706 21.4644 22.6648C21.648 22.5589 21.8558 22.5022 22.0677 22.5ZM12.2407 17.9596C13.3535 18.7031 14.6617 19.1 16.0001 19.1C17.7947 19.1 19.5158 18.3871 20.7848 17.1181C22.0538 15.8491 22.7667 14.128 22.7667 12.3333C22.7667 10.995 22.3699 9.68675 21.6263 8.57398C20.8828 7.4612 19.826 6.5939 18.5895 6.08175C17.3531 5.5696 15.9926 5.43559 14.6799 5.69669C13.3673 5.95778 12.1616 6.60224 11.2153 7.54858C10.269 8.49491 9.6245 9.70062 9.36341 11.0132C9.10232 12.3258 9.23632 13.6864 9.74847 14.9228C10.2606 16.1593 11.1279 17.2161 12.2407 17.9596Z" fill="#152C5B" stroke="white" stroke-width="0.2"/>
</svg>
