<svg width="26" height="24" viewBox="0 0 26 24" fill="none" xmlns="http://www.w3.org/2000/svg">
<path opacity="0.8" d="M24.1398 11.1575H1.85753C1.38589 11.1575 1 11.5402 1 12.0027C1 12.4704 1.38589 12.8478 1.85753 12.8478H24.1425C24.6141 12.8478 25 12.4651 25 12.0027C24.9973 11.5323 24.6114 11.1575 24.1398 11.1575ZM23.2849 15.3885C22.8133 15.3885 22.4274 15.7659 22.4274 16.2336V20.4646C22.4274 20.9324 22.0415 21.3097 21.5699 21.3097H16.4274C15.9558 21.3097 15.5699 21.6924 15.5699 22.1549C15.5699 22.6226 15.9558 23 16.4274 23H21.5699C22.9875 23 24.1398 21.8625 24.1398 20.4619V16.2257C24.1398 15.7632 23.7566 15.3885 23.2849 15.3885ZM8.71237 21.3097H4.42742C3.95578 21.3097 3.5699 20.927 3.5699 20.4646V16.231C3.5699 15.7632 3.18401 15.3858 2.71237 15.3858C2.24073 15.3858 1.85485 15.7632 1.85485 16.231V20.4619C1.85485 21.8625 3.00715 23 4.42474 23H8.70969C9.18133 23 9.56722 22.6173 9.56722 22.1549C9.5699 21.6871 9.18669 21.3097 8.71237 21.3097ZM2.71237 8.61416C3.18401 8.61416 3.5699 8.23146 3.5699 7.76903V3.53805C3.5699 3.07031 3.95578 2.69292 4.42742 2.69292H8.71237C9.18401 2.69292 9.5699 2.31022 9.5699 1.84779C9.5699 1.38004 9.18401 1.00266 8.71237 1.00266H4.42742C3.00983 1.00266 1.85753 2.14013 1.85753 3.54071V7.777C1.85753 8.23943 2.24073 8.61416 2.71237 8.61416ZM16.4274 2.69558H21.5699C22.0415 2.69558 22.4274 3.07828 22.4274 3.54071V7.77168C22.4274 8.23943 22.8133 8.61682 23.2849 8.61682C23.7566 8.61682 24.1425 8.23411 24.1425 7.77168V3.53805C24.1425 2.13747 22.9902 1 21.5726 1H16.4274C15.9558 1 15.5699 1.3827 15.5699 1.84513C15.5672 2.31553 15.9531 2.69558 16.4274 2.69558Z" fill="#152C5B" stroke="#152C5B" stroke-width="0.5"/>
</svg>
