<svg width="19" height="20" viewBox="0 0 19 20" fill="none" xmlns="http://www.w3.org/2000/svg">
<path opacity="0.4" d="M17.7799 17.6875L14.4562 14.2878C14.4195 14.2503 14.3792 14.2168 14.3358 14.1876C15.6531 12.7859 16.464 10.8939 16.464 8.8129C16.464 4.50488 12.9954 1 8.73199 1C4.46858 1 1 4.50488 1 8.8129C1 13.1209 4.46858 16.6258 8.73199 16.6258C10.4085 16.6258 11.9609 16.0821 13.229 15.1624C13.2647 15.2373 13.3098 15.3088 13.3708 15.3712L16.6945 18.7709C16.9906 19.0738 17.4736 19.0767 17.7733 18.7776C18.073 18.4784 18.0759 17.9904 17.7799 17.6875ZM2.32555 8.8129C2.32555 5.24326 5.19932 2.33942 8.73199 2.33942C12.2647 2.33942 15.1384 5.24326 15.1384 8.8129C15.1384 12.3825 12.2647 15.2864 8.73199 15.2864C5.19932 15.2864 2.32555 12.3825 2.32555 8.8129Z" fill="#152C5B" stroke="#152C5B"/>
</svg>
