<svg width="20" height="21" viewBox="0 0 20 21" fill="none" xmlns="http://www.w3.org/2000/svg">
<path opacity="0.3" d="M8.63079 3.7158C9.62381 3.4837 10.6596 3.50853 11.6404 3.78795C12.6211 4.06737 13.5145 4.59215 14.2361 5.31275C14.9577 6.03334 15.4837 6.92597 15.7645 7.90634C16.0452 8.8867 16.0715 9.92246 15.8408 10.9158C15.8095 11.0439 15.8039 11.1768 15.8242 11.3071C15.8445 11.4373 15.8904 11.5622 15.9592 11.6747C16.0279 11.7871 16.1183 11.8849 16.2249 11.9623C16.3316 12.0397 16.4526 12.0953 16.5808 12.1258C16.6571 12.1356 16.7344 12.1356 16.8108 12.1258C17.0392 12.1325 17.2631 12.0607 17.445 11.9224C17.6269 11.7841 17.756 11.5877 17.8108 11.3658C18.1223 10.0403 18.0904 8.65725 17.718 7.34756C17.3456 6.03787 16.6451 4.8449 15.6828 3.8816C14.7205 2.9183 13.5282 2.21656 12.2189 1.8428C10.9096 1.46905 9.5266 1.43566 8.20079 1.7458C7.93558 1.8068 7.70545 1.97066 7.56105 2.20133C7.41665 2.432 7.36979 2.71058 7.43079 2.9758C7.49179 3.24101 7.65565 3.47114 7.88632 3.61554C8.11699 3.75994 8.39558 3.8068 8.66079 3.7458L8.63079 3.7158ZM19.7108 18.2958L15.4408 14.0258L1.71079 0.295798C1.61783 0.20207 1.50723 0.127676 1.38537 0.0769069C1.26351 0.0261382 1.1328 0 1.00079 0C0.868781 0 0.738075 0.0261382 0.616216 0.0769069C0.494357 0.127676 0.383756 0.20207 0.290793 0.295798C0.104542 0.483161 0 0.736613 0 1.0008C0 1.26498 0.104542 1.51844 0.290793 1.7058L3.50079 4.9158C2.39756 6.45558 1.87648 8.33687 2.0303 10.2248C2.18412 12.1128 3.00286 13.8849 4.34079 15.2258L9.29079 20.1758C9.38376 20.2695 9.49436 20.3439 9.61622 20.3947C9.73808 20.4455 9.86878 20.4716 10.0008 20.4716C10.1328 20.4716 10.2635 20.4455 10.3854 20.3947C10.5072 20.3439 10.6178 20.2695 10.7108 20.1758L14.7108 16.1758L18.2708 19.7358C18.4578 19.9241 18.7119 20.0304 18.9773 20.0314C19.2426 20.0323 19.4975 19.9278 19.6858 19.7408C19.8741 19.5538 19.9804 19.2997 19.9813 19.0343C19.9823 18.769 19.8778 18.5141 19.6908 18.3258L19.7108 18.2958ZM10.1208 11.5358C9.84002 11.5537 9.55862 11.5123 9.29498 11.414C9.03133 11.3158 8.79138 11.1631 8.59079 10.9658C8.38992 10.7669 8.23347 10.5278 8.13178 10.264C8.03008 10.0003 7.98544 9.71804 8.00079 9.4358L10.1208 11.5358ZM10.0008 18.0358L5.76079 13.7958C4.80117 12.8322 4.19739 11.5711 4.0484 10.2193C3.89942 8.86758 4.21407 7.5053 4.94079 6.3558L6.41079 7.8258C6.0522 8.56987 5.93274 9.40671 6.06882 10.2214C6.2049 11.0361 6.58984 11.7887 7.17079 12.3758C7.54172 12.7489 7.98262 13.0452 8.46824 13.2477C8.95386 13.4502 9.47465 13.5549 10.0008 13.5558C10.6012 13.5531 11.193 13.4128 11.7308 13.1458L13.3108 14.7258L10.0008 18.0358Z" fill="#152C5B"/>
</svg>
