<svg width="173" height="68" viewBox="0 0 173 68" fill="none" xmlns="http://www.w3.org/2000/svg">
<path d="M87 19.1545V40.7837H101.133V36.5197H91.8756V19.1545H87Z" fill="#152C5B"/>
<path d="M114.086 19C107.482 19 102.483 23.6657 102.483 29.9691C102.483 36.2416 107.482 41 114.086 41C120.689 41 125.688 36.2107 125.688 29.9691C125.688 23.6966 120.689 19 114.086 19ZM114.148 23.264C117.758 23.264 120.689 26.1685 120.689 29.9691C120.689 33.7697 117.758 36.736 114.148 36.736C110.537 36.736 107.482 33.7697 107.482 29.9691C107.482 26.1685 110.506 23.264 114.148 23.264Z" fill="#152C5B"/>
<path d="M142.848 35.5618C141.46 36.2725 139.917 36.736 138.621 36.736C134.794 36.736 131.801 33.8006 131.801 29.9691C131.801 26.1685 134.763 23.2331 138.59 23.2331C140.688 23.2331 142.91 24.1601 144.514 25.6433L147.261 22.1517C145.07 20.236 141.799 19 138.59 19C131.863 19 126.802 23.7275 126.802 29.9691C126.802 36.2416 131.77 41 138.312 41C141.305 41 144.792 39.8567 147.076 38.1882V29.8764H142.848V35.5618Z" fill="#152C5B"/>
<path d="M161.397 19C154.794 19 149.795 23.6657 149.795 29.9691C149.795 36.2416 154.794 41 161.397 41C168.001 41 173 36.2107 173 29.9691C173 23.6966 168.001 19 161.397 19ZM161.459 23.264C165.069 23.264 168.001 26.1685 168.001 29.9691C168.001 33.7697 165.069 36.736 161.459 36.736C157.849 36.736 154.794 33.7697 154.794 29.9691C154.794 26.1685 157.818 23.264 161.459 23.264Z" fill="#152C5B"/>
<g filter="url(#filter0_d_52_81611)">
<circle cx="34" cy="30" r="27" fill="#0075FF"/>
</g>
<path d="M29.1855 16.8917V39.8644H44.1719V35.3355H34.3555V16.8917H29.1855Z" fill="url(#paint0_linear_52_81611)"/>
<defs>
<filter id="filter0_d_52_81611" x="0" y="0" width="68" height="68" filterUnits="userSpaceOnUse" color-interpolation-filters="sRGB">
<feFlood flood-opacity="0" result="BackgroundImageFix"/>
<feColorMatrix in="SourceAlpha" type="matrix" values="0 0 0 0 0 0 0 0 0 0 0 0 0 0 0 0 0 0 127 0" result="hardAlpha"/>
<feOffset dy="4"/>
<feGaussianBlur stdDeviation="3.5"/>
<feComposite in2="hardAlpha" operator="out"/>
<feColorMatrix type="matrix" values="0 0 0 0 0 0 0 0 0 0.458824 0 0 0 0 1 0 0 0 0.3 0"/>
<feBlend mode="normal" in2="BackgroundImageFix" result="effect1_dropShadow_52_81611"/>
<feBlend mode="normal" in="SourceGraphic" in2="effect1_dropShadow_52_81611" result="shape"/>
</filter>
<linearGradient id="paint0_linear_52_81611" x1="38.2906" y1="16.4863" x2="38.2906" y2="40.7873" gradientUnits="userSpaceOnUse">
<stop stop-color="#EAF3FF"/>
<stop offset="1" stop-color="#C3DFFF"/>
</linearGradient>
</defs>
</svg>
